M48
; DRILL file {KiCad (6.0.0)} date Mon Oct 31 23:33:16 2022
; FORMAT={-:-/ absolute / metric / decimal}
; #@! TF.CreationDate,2022-10-31T23:33:16+09:00
; #@! TF.GenerationSoftware,Kicad,Pcbnew,(6.0.0)
; #@! TF.FileFunction,Plated,1,4,PTH
FMAT,2
METRIC
; #@! TA.AperFunction,Plated,PTH,ViaDrill
T1C0.300
; #@! TA.AperFunction,Plated,PTH,ComponentDrill
T2C0.300
; #@! TA.AperFunction,Plated,PTH,ViaDrill
T3C0.400
; #@! TA.AperFunction,Plated,PTH,ComponentDrill
T4C1.000
%
G90
G05
T1
X16.25Y-22.5
X16.32Y-23.12
X16.35Y-32.54
X16.35Y-34.69
X16.5Y-20.5
X17.22Y-35.25
X17.44Y-23.23
X17.48Y-25.9
X17.49Y-25.25
X17.75Y-22.5
X17.95Y-27.35
X17.95Y-34.55
X18.0Y-18.0
X18.0Y-29.4
X18.0Y-30.05
X18.0Y-35.25
X18.24Y-25.09
X18.4Y-34.1
X18.448Y-32.368
X18.75Y-19.0
X19.0Y-19.75
X19.0Y-21.25
X19.0Y-23.75
X19.0Y-33.85
X19.19Y-29.97
X19.195Y-29.381
X19.2Y-28.79
X19.25Y-35.25
X19.34Y-25.95
X19.45Y-33.45
X20.75Y-26.0
X20.75Y-27.5
X20.75Y-30.25
X21.25Y-31.75
X21.25Y-35.25
X21.5Y-16.25
X21.5Y-18.25
X21.5Y-21.25
X21.72Y-27.0
X22.05Y-23.37
X22.25Y-28.0
X22.83Y-26.84
X23.25Y-35.25
X23.5Y-30.25
X23.5Y-31.75
X23.75Y-16.25
X23.75Y-27.5
X24.25Y-26.5
X24.25Y-35.25
X25.01Y-35.25
X25.5Y-27.0
X25.8Y-23.48
X26.25Y-16.25
X26.42Y-24.35
X26.5Y-21.5
X26.5Y-25.75
X26.75Y-27.25
X26.75Y-35.25
X26.94Y-30.15
X26.94Y-31.81
X26.99Y-31.22
X27.5Y-35.25
X27.68Y-22.84
X28.164Y-32.3
X28.24Y-21.25
X28.24Y-27.52
X28.5Y-38.75
X28.75Y-23.5
X28.75Y-24.25
X28.75Y-43.25
X28.775Y-18.475
X30.0Y-42.25
X30.5Y-21.25
X30.75Y-24.0
X31.4Y-41.15
X31.4Y-41.75
X31.75Y-33.25
X31.9Y-42.3
X31.9Y-42.9
X32.01Y-32.3
X32.25Y-21.25
X32.5Y-43.5
X33.0Y-23.5
X33.0Y-24.25
X33.22Y-31.3
X33.32Y-30.55
X33.5Y-40.22
X33.7Y-28.27
X33.92Y-26.7
X34.25Y-17.5
X34.41Y-23.3
X34.5Y-22.5
X34.79Y-35.75
X35.25Y-32.75
X35.31Y-41.69
X35.4Y-37.04
X35.5Y-40.25
X35.7Y-28.1
X35.74Y-38.32
X36.25Y-41.6
X36.25Y-43.5
X36.3Y-23.0
X36.5Y-18.0
X36.75Y-35.0
X36.8Y-25.9
X37.0Y-34.0
X37.171Y-43.261
X37.5Y-36.75
X37.5Y-38.25
X37.51Y-30.74
X37.55Y-42.1
X37.7Y-40.2
X37.85Y-43.15
X38.0Y-42.55
X38.21Y-27.48
X38.7Y-38.5
X38.75Y-36.0
X39.2Y-41.45
X39.25Y-35.25
X39.4Y-38.0
X39.5Y-20.0
X39.5Y-33.75
X39.65Y-25.62
X39.65Y-40.9
X39.94Y-27.25
X40.0Y-17.25
X40.24Y-25.6
X40.25Y-24.25
X40.847Y-25.234
X41.1Y-41.4
X41.19Y-26.3
X41.21Y-30.11
X41.25Y-35.5
X41.297Y-23.795
X41.4Y-21.5
X41.75Y-17.25
X42.0Y-31.75
X42.1Y-22.7
X42.25Y-43.5
X42.5Y-19.5
X42.5Y-30.0
X42.55Y-40.75
X42.58Y-27.84
X42.75Y-31.5
X43.08Y-34.58
X43.15Y-38.8
X43.9Y-34.5
X44.039Y-27.391
X44.05Y-21.81
X44.15Y-41.75
X44.25Y-19.75
X44.25Y-38.0
X44.25Y-40.75
X44.421Y-28.675
X44.421Y-29.325
X44.5Y-32.0
X44.89Y-35.08
X45.25Y-36.25
X45.4Y-32.0
X45.5Y-27.75
X45.5Y-34.5
X46.95Y-37.5
X47.0Y-39.25
X47.027Y-29.326
X47.1Y-31.1
X47.5Y-40.75
X47.75Y-27.75
X47.8Y-24.5
X47.9Y-28.8
X47.9Y-33.3
X48.7Y-22.7
X49.0Y-43.0
X49.25Y-17.5
X51.0Y-36.5
X51.5Y-40.25
X52.5Y-19.0
X52.5Y-37.2
X52.75Y-40.25
X53.75Y-22.5
X53.75Y-36.5
T2
X43.383Y-23.9
X43.383Y-24.9
X44.282Y-23.9
X44.282Y-24.9
X45.182Y-23.9
X45.182Y-24.9
T3
X41.4Y-20.6
X43.5Y-32.2
X46.3Y-20.6
T4
X19.93Y-17.25
X22.47Y-17.25
X25.01Y-17.25
X27.55Y-17.25
X50.506Y-19.306
X52.302Y-21.102
T0
M30
