G04 #@! TF.GenerationSoftware,KiCad,Pcbnew,(6.0.0)*
G04 #@! TF.CreationDate,2022-10-31T23:33:13+09:00*
G04 #@! TF.ProjectId,culturit_tx,63756c74-7572-4697-945f-74782e6b6963,rev?*
G04 #@! TF.SameCoordinates,Original*
G04 #@! TF.FileFunction,Soldermask,Top*
G04 #@! TF.FilePolarity,Negative*
%FSLAX46Y46*%
G04 Gerber Fmt 4.6, Leading zero omitted, Abs format (unit mm)*
G04 Created by KiCad (PCBNEW (6.0.0)) date 2022-10-31 23:33:13*
%MOMM*%
%LPD*%
G01*
G04 APERTURE LIST*
G04 Aperture macros list*
%AMRoundRect*
0 Rectangle with rounded corners*
0 $1 Rounding radius*
0 $2 $3 $4 $5 $6 $7 $8 $9 X,Y pos of 4 corners*
0 Add a 4 corners polygon primitive as box body*
4,1,4,$2,$3,$4,$5,$6,$7,$8,$9,$2,$3,0*
0 Add four circle primitives for the rounded corners*
1,1,$1+$1,$2,$3*
1,1,$1+$1,$4,$5*
1,1,$1+$1,$6,$7*
1,1,$1+$1,$8,$9*
0 Add four rect primitives between the rounded corners*
20,1,$1+$1,$2,$3,$4,$5,0*
20,1,$1+$1,$4,$5,$6,$7,0*
20,1,$1+$1,$6,$7,$8,$9,0*
20,1,$1+$1,$8,$9,$2,$3,0*%
%AMHorizOval*
0 Thick line with rounded ends*
0 $1 width*
0 $2 $3 position (X,Y) of the first rounded end (center of the circle)*
0 $4 $5 position (X,Y) of the second rounded end (center of the circle)*
0 Add line between two ends*
20,1,$1,$2,$3,$4,$5,0*
0 Add two circle primitives to create the rounded ends*
1,1,$1,$2,$3*
1,1,$1,$4,$5*%
%AMRotRect*
0 Rectangle, with rotation*
0 The origin of the aperture is its center*
0 $1 length*
0 $2 width*
0 $3 Rotation angle, in degrees counterclockwise*
0 Add horizontal line*
21,1,$1,$2,0,0,$3*%
G04 Aperture macros list end*
%ADD10C,0.010000*%
%ADD11R,0.600000X1.100000*%
%ADD12C,0.650000*%
%ADD13R,1.150000X0.300000*%
%ADD14R,2.000000X2.180000*%
%ADD15RoundRect,0.135000X0.135000X0.185000X-0.135000X0.185000X-0.135000X-0.185000X0.135000X-0.185000X0*%
%ADD16RoundRect,0.147500X-0.147500X-0.172500X0.147500X-0.172500X0.147500X0.172500X-0.147500X0.172500X0*%
%ADD17C,0.500000*%
%ADD18RoundRect,0.140000X0.170000X-0.140000X0.170000X0.140000X-0.170000X0.140000X-0.170000X-0.140000X0*%
%ADD19RoundRect,0.140000X-0.170000X0.140000X-0.170000X-0.140000X0.170000X-0.140000X0.170000X0.140000X0*%
%ADD20RoundRect,0.135000X0.185000X-0.135000X0.185000X0.135000X-0.185000X0.135000X-0.185000X-0.135000X0*%
%ADD21R,1.700000X1.700000*%
%ADD22O,1.700000X1.700000*%
%ADD23RoundRect,0.135000X-0.185000X0.135000X-0.185000X-0.135000X0.185000X-0.135000X0.185000X0.135000X0*%
%ADD24RoundRect,0.135000X-0.135000X-0.185000X0.135000X-0.185000X0.135000X0.185000X-0.135000X0.185000X0*%
%ADD25RoundRect,0.140000X0.140000X0.170000X-0.140000X0.170000X-0.140000X-0.170000X0.140000X-0.170000X0*%
%ADD26RoundRect,0.225000X0.225000X0.250000X-0.225000X0.250000X-0.225000X-0.250000X0.225000X-0.250000X0*%
%ADD27C,0.550000*%
%ADD28R,1.400000X0.900000*%
%ADD29R,0.254000X0.675000*%
%ADD30R,0.675000X0.254000*%
%ADD31RoundRect,0.225000X-0.250000X0.225000X-0.250000X-0.225000X0.250000X-0.225000X0.250000X0.225000X0*%
%ADD32R,0.600000X1.200000*%
%ADD33RoundRect,0.225000X0.250000X-0.225000X0.250000X0.225000X-0.250000X0.225000X-0.250000X-0.225000X0*%
%ADD34RoundRect,0.140000X-0.140000X-0.170000X0.140000X-0.170000X0.140000X0.170000X-0.140000X0.170000X0*%
%ADD35RoundRect,0.150000X0.587500X0.150000X-0.587500X0.150000X-0.587500X-0.150000X0.587500X-0.150000X0*%
%ADD36R,1.000000X0.800000*%
%ADD37RoundRect,0.218750X-0.381250X0.218750X-0.381250X-0.218750X0.381250X-0.218750X0.381250X0.218750X0*%
%ADD38RoundRect,0.200000X-0.275000X0.200000X-0.275000X-0.200000X0.275000X-0.200000X0.275000X0.200000X0*%
%ADD39RoundRect,0.250000X0.475000X-0.250000X0.475000X0.250000X-0.475000X0.250000X-0.475000X-0.250000X0*%
%ADD40R,1.050000X0.450000*%
%ADD41R,3.450000X4.350000*%
%ADD42R,0.300000X0.475000*%
%ADD43RotRect,1.700000X1.700000X45.000000*%
%ADD44HorizOval,1.700000X0.000000X0.000000X0.000000X0.000000X0*%
%ADD45R,0.600000X0.400000*%
%ADD46R,0.400000X0.600000*%
%ADD47RoundRect,0.147500X0.172500X-0.147500X0.172500X0.147500X-0.172500X0.147500X-0.172500X-0.147500X0*%
%ADD48R,1.050000X0.550000*%
G04 APERTURE END LIST*
D10*
X45557500Y-22700000D02*
X45557500Y-26100000D01*
X45557500Y-26100000D02*
X45207500Y-26100000D01*
X45207500Y-26100000D02*
X45207500Y-25425000D01*
X45207500Y-25425000D02*
X43357500Y-25425000D01*
X43357500Y-25425000D02*
X43357500Y-26100000D01*
X43357500Y-26100000D02*
X43007500Y-26100000D01*
X43007500Y-26100000D02*
X43007500Y-22700000D01*
X43007500Y-22700000D02*
X43357500Y-22700000D01*
X43357500Y-22700000D02*
X43357500Y-23375000D01*
X43357500Y-23375000D02*
X45207500Y-23375000D01*
X45207500Y-23375000D02*
X45207500Y-22700000D01*
X45207500Y-22700000D02*
X45557500Y-22700000D01*
G36*
X43357500Y-23375000D02*
G01*
X45207500Y-23375000D01*
X45207500Y-22700000D01*
X45557500Y-22700000D01*
X45557500Y-26100000D01*
X45207500Y-26100000D01*
X45207500Y-25425000D01*
X43357500Y-25425000D01*
X43357500Y-26100000D01*
X43007500Y-26100000D01*
X43007500Y-22700000D01*
X43357500Y-22700000D01*
X43357500Y-23375000D01*
G37*
X43357500Y-23375000D02*
X45207500Y-23375000D01*
X45207500Y-22700000D01*
X45557500Y-22700000D01*
X45557500Y-26100000D01*
X45207500Y-26100000D01*
X45207500Y-25425000D01*
X43357500Y-25425000D01*
X43357500Y-26100000D01*
X43007500Y-26100000D01*
X43007500Y-22700000D01*
X43357500Y-22700000D01*
X43357500Y-23375000D01*
X46732500Y-24750000D02*
X45932500Y-24750000D01*
X45932500Y-24750000D02*
X45924500Y-24750000D01*
X45924500Y-24750000D02*
X45916500Y-24749000D01*
X45916500Y-24749000D02*
X45909500Y-24748000D01*
X45909500Y-24748000D02*
X45901500Y-24747000D01*
X45901500Y-24747000D02*
X45893500Y-24745000D01*
X45893500Y-24745000D02*
X45886500Y-24743000D01*
X45886500Y-24743000D02*
X45878500Y-24740000D01*
X45878500Y-24740000D02*
X45871500Y-24737000D01*
X45871500Y-24737000D02*
X45864500Y-24734000D01*
X45864500Y-24734000D02*
X45857500Y-24730000D01*
X45857500Y-24730000D02*
X45850500Y-24726000D01*
X45850500Y-24726000D02*
X45844500Y-24721000D01*
X45844500Y-24721000D02*
X45838500Y-24717000D01*
X45838500Y-24717000D02*
X45832500Y-24711000D01*
X45832500Y-24711000D02*
X45826500Y-24706000D01*
X45826500Y-24706000D02*
X45821500Y-24700000D01*
X45821500Y-24700000D02*
X45815500Y-24694000D01*
X45815500Y-24694000D02*
X45811500Y-24688000D01*
X45811500Y-24688000D02*
X45806500Y-24682000D01*
X45806500Y-24682000D02*
X45802500Y-24675000D01*
X45802500Y-24675000D02*
X45798500Y-24668000D01*
X45798500Y-24668000D02*
X45795500Y-24661000D01*
X45795500Y-24661000D02*
X45792500Y-24654000D01*
X45792500Y-24654000D02*
X45789500Y-24646000D01*
X45789500Y-24646000D02*
X45787500Y-24639000D01*
X45787500Y-24639000D02*
X45785500Y-24631000D01*
X45785500Y-24631000D02*
X45784500Y-24623000D01*
X45784500Y-24623000D02*
X45783500Y-24616000D01*
X45783500Y-24616000D02*
X45782500Y-24608000D01*
X45782500Y-24608000D02*
X45782500Y-24600000D01*
X45782500Y-24600000D02*
X45782500Y-24592000D01*
X45782500Y-24592000D02*
X45783500Y-24584000D01*
X45783500Y-24584000D02*
X45784500Y-24577000D01*
X45784500Y-24577000D02*
X45785500Y-24569000D01*
X45785500Y-24569000D02*
X45787500Y-24561000D01*
X45787500Y-24561000D02*
X45789500Y-24554000D01*
X45789500Y-24554000D02*
X45792500Y-24546000D01*
X45792500Y-24546000D02*
X45795500Y-24539000D01*
X45795500Y-24539000D02*
X45798500Y-24532000D01*
X45798500Y-24532000D02*
X45802500Y-24525000D01*
X45802500Y-24525000D02*
X45806500Y-24518000D01*
X45806500Y-24518000D02*
X45811500Y-24512000D01*
X45811500Y-24512000D02*
X45815500Y-24506000D01*
X45815500Y-24506000D02*
X45821500Y-24500000D01*
X45821500Y-24500000D02*
X45826500Y-24494000D01*
X45826500Y-24494000D02*
X45832500Y-24489000D01*
X45832500Y-24489000D02*
X45838500Y-24483000D01*
X45838500Y-24483000D02*
X45844500Y-24479000D01*
X45844500Y-24479000D02*
X45850500Y-24474000D01*
X45850500Y-24474000D02*
X45857500Y-24470000D01*
X45857500Y-24470000D02*
X45864500Y-24466000D01*
X45864500Y-24466000D02*
X45871500Y-24463000D01*
X45871500Y-24463000D02*
X45878500Y-24460000D01*
X45878500Y-24460000D02*
X45886500Y-24457000D01*
X45886500Y-24457000D02*
X45893500Y-24455000D01*
X45893500Y-24455000D02*
X45901500Y-24453000D01*
X45901500Y-24453000D02*
X45909500Y-24452000D01*
X45909500Y-24452000D02*
X45916500Y-24451000D01*
X45916500Y-24451000D02*
X45924500Y-24450000D01*
X45924500Y-24450000D02*
X45932500Y-24450000D01*
X45932500Y-24450000D02*
X46732500Y-24450000D01*
X46732500Y-24450000D02*
X46732500Y-24600000D01*
X46732500Y-24600000D02*
X46732500Y-24750000D01*
X46732500Y-24750000D02*
X46732500Y-24750000D01*
G36*
X46732500Y-24750000D02*
G01*
X45924500Y-24750000D01*
X45916500Y-24749000D01*
X45909500Y-24748000D01*
X45901500Y-24747000D01*
X45893500Y-24745000D01*
X45886500Y-24743000D01*
X45878500Y-24740000D01*
X45864500Y-24734000D01*
X45850500Y-24726000D01*
X45844500Y-24721000D01*
X45838500Y-24717000D01*
X45832500Y-24711000D01*
X45826500Y-24706000D01*
X45821500Y-24700000D01*
X45815500Y-24694000D01*
X45811500Y-24688000D01*
X45806500Y-24682000D01*
X45798500Y-24668000D01*
X45792500Y-24654000D01*
X45789500Y-24646000D01*
X45787500Y-24639000D01*
X45785500Y-24631000D01*
X45784500Y-24623000D01*
X45783500Y-24616000D01*
X45782500Y-24608000D01*
X45782500Y-24592000D01*
X45783500Y-24584000D01*
X45784500Y-24577000D01*
X45785500Y-24569000D01*
X45787500Y-24561000D01*
X45789500Y-24554000D01*
X45792500Y-24546000D01*
X45798500Y-24532000D01*
X45806500Y-24518000D01*
X45811500Y-24512000D01*
X45815500Y-24506000D01*
X45821500Y-24500000D01*
X45826500Y-24494000D01*
X45832500Y-24489000D01*
X45838500Y-24483000D01*
X45844500Y-24479000D01*
X45850500Y-24474000D01*
X45864500Y-24466000D01*
X45878500Y-24460000D01*
X45886500Y-24457000D01*
X45893500Y-24455000D01*
X45901500Y-24453000D01*
X45909500Y-24452000D01*
X45916500Y-24451000D01*
X45924500Y-24450000D01*
X46732500Y-24450000D01*
X46732500Y-24750000D01*
G37*
X46732500Y-24750000D02*
X45924500Y-24750000D01*
X45916500Y-24749000D01*
X45909500Y-24748000D01*
X45901500Y-24747000D01*
X45893500Y-24745000D01*
X45886500Y-24743000D01*
X45878500Y-24740000D01*
X45864500Y-24734000D01*
X45850500Y-24726000D01*
X45844500Y-24721000D01*
X45838500Y-24717000D01*
X45832500Y-24711000D01*
X45826500Y-24706000D01*
X45821500Y-24700000D01*
X45815500Y-24694000D01*
X45811500Y-24688000D01*
X45806500Y-24682000D01*
X45798500Y-24668000D01*
X45792500Y-24654000D01*
X45789500Y-24646000D01*
X45787500Y-24639000D01*
X45785500Y-24631000D01*
X45784500Y-24623000D01*
X45783500Y-24616000D01*
X45782500Y-24608000D01*
X45782500Y-24592000D01*
X45783500Y-24584000D01*
X45784500Y-24577000D01*
X45785500Y-24569000D01*
X45787500Y-24561000D01*
X45789500Y-24554000D01*
X45792500Y-24546000D01*
X45798500Y-24532000D01*
X45806500Y-24518000D01*
X45811500Y-24512000D01*
X45815500Y-24506000D01*
X45821500Y-24500000D01*
X45826500Y-24494000D01*
X45832500Y-24489000D01*
X45838500Y-24483000D01*
X45844500Y-24479000D01*
X45850500Y-24474000D01*
X45864500Y-24466000D01*
X45878500Y-24460000D01*
X45886500Y-24457000D01*
X45893500Y-24455000D01*
X45901500Y-24453000D01*
X45909500Y-24452000D01*
X45916500Y-24451000D01*
X45924500Y-24450000D01*
X46732500Y-24450000D01*
X46732500Y-24750000D01*
X46732500Y-23550000D02*
X45932500Y-23550000D01*
X45932500Y-23550000D02*
X45924500Y-23550000D01*
X45924500Y-23550000D02*
X45916500Y-23549000D01*
X45916500Y-23549000D02*
X45909500Y-23548000D01*
X45909500Y-23548000D02*
X45901500Y-23547000D01*
X45901500Y-23547000D02*
X45893500Y-23545000D01*
X45893500Y-23545000D02*
X45886500Y-23543000D01*
X45886500Y-23543000D02*
X45878500Y-23540000D01*
X45878500Y-23540000D02*
X45871500Y-23537000D01*
X45871500Y-23537000D02*
X45864500Y-23534000D01*
X45864500Y-23534000D02*
X45857500Y-23530000D01*
X45857500Y-23530000D02*
X45850500Y-23526000D01*
X45850500Y-23526000D02*
X45844500Y-23521000D01*
X45844500Y-23521000D02*
X45838500Y-23517000D01*
X45838500Y-23517000D02*
X45832500Y-23511000D01*
X45832500Y-23511000D02*
X45826500Y-23506000D01*
X45826500Y-23506000D02*
X45821500Y-23500000D01*
X45821500Y-23500000D02*
X45815500Y-23494000D01*
X45815500Y-23494000D02*
X45811500Y-23488000D01*
X45811500Y-23488000D02*
X45806500Y-23482000D01*
X45806500Y-23482000D02*
X45802500Y-23475000D01*
X45802500Y-23475000D02*
X45798500Y-23468000D01*
X45798500Y-23468000D02*
X45795500Y-23461000D01*
X45795500Y-23461000D02*
X45792500Y-23454000D01*
X45792500Y-23454000D02*
X45789500Y-23446000D01*
X45789500Y-23446000D02*
X45787500Y-23439000D01*
X45787500Y-23439000D02*
X45785500Y-23431000D01*
X45785500Y-23431000D02*
X45784500Y-23423000D01*
X45784500Y-23423000D02*
X45783500Y-23416000D01*
X45783500Y-23416000D02*
X45782500Y-23408000D01*
X45782500Y-23408000D02*
X45782500Y-23400000D01*
X45782500Y-23400000D02*
X45782500Y-23392000D01*
X45782500Y-23392000D02*
X45783500Y-23384000D01*
X45783500Y-23384000D02*
X45784500Y-23377000D01*
X45784500Y-23377000D02*
X45785500Y-23369000D01*
X45785500Y-23369000D02*
X45787500Y-23361000D01*
X45787500Y-23361000D02*
X45789500Y-23354000D01*
X45789500Y-23354000D02*
X45792500Y-23346000D01*
X45792500Y-23346000D02*
X45795500Y-23339000D01*
X45795500Y-23339000D02*
X45798500Y-23332000D01*
X45798500Y-23332000D02*
X45802500Y-23325000D01*
X45802500Y-23325000D02*
X45806500Y-23318000D01*
X45806500Y-23318000D02*
X45811500Y-23312000D01*
X45811500Y-23312000D02*
X45815500Y-23306000D01*
X45815500Y-23306000D02*
X45821500Y-23300000D01*
X45821500Y-23300000D02*
X45826500Y-23294000D01*
X45826500Y-23294000D02*
X45832500Y-23289000D01*
X45832500Y-23289000D02*
X45838500Y-23283000D01*
X45838500Y-23283000D02*
X45844500Y-23279000D01*
X45844500Y-23279000D02*
X45850500Y-23274000D01*
X45850500Y-23274000D02*
X45857500Y-23270000D01*
X45857500Y-23270000D02*
X45864500Y-23266000D01*
X45864500Y-23266000D02*
X45871500Y-23263000D01*
X45871500Y-23263000D02*
X45878500Y-23260000D01*
X45878500Y-23260000D02*
X45886500Y-23257000D01*
X45886500Y-23257000D02*
X45893500Y-23255000D01*
X45893500Y-23255000D02*
X45901500Y-23253000D01*
X45901500Y-23253000D02*
X45909500Y-23252000D01*
X45909500Y-23252000D02*
X45916500Y-23251000D01*
X45916500Y-23251000D02*
X45924500Y-23250000D01*
X45924500Y-23250000D02*
X45932500Y-23250000D01*
X45932500Y-23250000D02*
X46732500Y-23250000D01*
X46732500Y-23250000D02*
X46732500Y-23400000D01*
X46732500Y-23400000D02*
X46732500Y-23550000D01*
X46732500Y-23550000D02*
X46732500Y-23550000D01*
G36*
X46732500Y-23550000D02*
G01*
X45924500Y-23550000D01*
X45916500Y-23549000D01*
X45909500Y-23548000D01*
X45901500Y-23547000D01*
X45893500Y-23545000D01*
X45886500Y-23543000D01*
X45878500Y-23540000D01*
X45864500Y-23534000D01*
X45850500Y-23526000D01*
X45844500Y-23521000D01*
X45838500Y-23517000D01*
X45832500Y-23511000D01*
X45826500Y-23506000D01*
X45821500Y-23500000D01*
X45815500Y-23494000D01*
X45811500Y-23488000D01*
X45806500Y-23482000D01*
X45798500Y-23468000D01*
X45792500Y-23454000D01*
X45789500Y-23446000D01*
X45787500Y-23439000D01*
X45785500Y-23431000D01*
X45784500Y-23423000D01*
X45783500Y-23416000D01*
X45782500Y-23408000D01*
X45782500Y-23392000D01*
X45783500Y-23384000D01*
X45784500Y-23377000D01*
X45785500Y-23369000D01*
X45787500Y-23361000D01*
X45789500Y-23354000D01*
X45792500Y-23346000D01*
X45798500Y-23332000D01*
X45806500Y-23318000D01*
X45811500Y-23312000D01*
X45815500Y-23306000D01*
X45821500Y-23300000D01*
X45826500Y-23294000D01*
X45832500Y-23289000D01*
X45838500Y-23283000D01*
X45844500Y-23279000D01*
X45850500Y-23274000D01*
X45864500Y-23266000D01*
X45878500Y-23260000D01*
X45886500Y-23257000D01*
X45893500Y-23255000D01*
X45901500Y-23253000D01*
X45909500Y-23252000D01*
X45916500Y-23251000D01*
X45924500Y-23250000D01*
X46732500Y-23250000D01*
X46732500Y-23550000D01*
G37*
X46732500Y-23550000D02*
X45924500Y-23550000D01*
X45916500Y-23549000D01*
X45909500Y-23548000D01*
X45901500Y-23547000D01*
X45893500Y-23545000D01*
X45886500Y-23543000D01*
X45878500Y-23540000D01*
X45864500Y-23534000D01*
X45850500Y-23526000D01*
X45844500Y-23521000D01*
X45838500Y-23517000D01*
X45832500Y-23511000D01*
X45826500Y-23506000D01*
X45821500Y-23500000D01*
X45815500Y-23494000D01*
X45811500Y-23488000D01*
X45806500Y-23482000D01*
X45798500Y-23468000D01*
X45792500Y-23454000D01*
X45789500Y-23446000D01*
X45787500Y-23439000D01*
X45785500Y-23431000D01*
X45784500Y-23423000D01*
X45783500Y-23416000D01*
X45782500Y-23408000D01*
X45782500Y-23392000D01*
X45783500Y-23384000D01*
X45784500Y-23377000D01*
X45785500Y-23369000D01*
X45787500Y-23361000D01*
X45789500Y-23354000D01*
X45792500Y-23346000D01*
X45798500Y-23332000D01*
X45806500Y-23318000D01*
X45811500Y-23312000D01*
X45815500Y-23306000D01*
X45821500Y-23300000D01*
X45826500Y-23294000D01*
X45832500Y-23289000D01*
X45838500Y-23283000D01*
X45844500Y-23279000D01*
X45850500Y-23274000D01*
X45864500Y-23266000D01*
X45878500Y-23260000D01*
X45886500Y-23257000D01*
X45893500Y-23255000D01*
X45901500Y-23253000D01*
X45909500Y-23252000D01*
X45916500Y-23251000D01*
X45924500Y-23250000D01*
X46732500Y-23250000D01*
X46732500Y-23550000D01*
X46732500Y-25550000D02*
X45932500Y-25550000D01*
X45932500Y-25550000D02*
X45924500Y-25550000D01*
X45924500Y-25550000D02*
X45916500Y-25549000D01*
X45916500Y-25549000D02*
X45909500Y-25548000D01*
X45909500Y-25548000D02*
X45901500Y-25547000D01*
X45901500Y-25547000D02*
X45893500Y-25545000D01*
X45893500Y-25545000D02*
X45886500Y-25543000D01*
X45886500Y-25543000D02*
X45878500Y-25540000D01*
X45878500Y-25540000D02*
X45871500Y-25537000D01*
X45871500Y-25537000D02*
X45864500Y-25534000D01*
X45864500Y-25534000D02*
X45857500Y-25530000D01*
X45857500Y-25530000D02*
X45850500Y-25526000D01*
X45850500Y-25526000D02*
X45844500Y-25521000D01*
X45844500Y-25521000D02*
X45838500Y-25517000D01*
X45838500Y-25517000D02*
X45832500Y-25511000D01*
X45832500Y-25511000D02*
X45826500Y-25506000D01*
X45826500Y-25506000D02*
X45821500Y-25500000D01*
X45821500Y-25500000D02*
X45815500Y-25494000D01*
X45815500Y-25494000D02*
X45811500Y-25488000D01*
X45811500Y-25488000D02*
X45806500Y-25482000D01*
X45806500Y-25482000D02*
X45802500Y-25475000D01*
X45802500Y-25475000D02*
X45798500Y-25468000D01*
X45798500Y-25468000D02*
X45795500Y-25461000D01*
X45795500Y-25461000D02*
X45792500Y-25454000D01*
X45792500Y-25454000D02*
X45789500Y-25446000D01*
X45789500Y-25446000D02*
X45787500Y-25439000D01*
X45787500Y-25439000D02*
X45785500Y-25431000D01*
X45785500Y-25431000D02*
X45784500Y-25423000D01*
X45784500Y-25423000D02*
X45783500Y-25416000D01*
X45783500Y-25416000D02*
X45782500Y-25408000D01*
X45782500Y-25408000D02*
X45782500Y-25400000D01*
X45782500Y-25400000D02*
X45782500Y-25392000D01*
X45782500Y-25392000D02*
X45783500Y-25384000D01*
X45783500Y-25384000D02*
X45784500Y-25377000D01*
X45784500Y-25377000D02*
X45785500Y-25369000D01*
X45785500Y-25369000D02*
X45787500Y-25361000D01*
X45787500Y-25361000D02*
X45789500Y-25354000D01*
X45789500Y-25354000D02*
X45792500Y-25346000D01*
X45792500Y-25346000D02*
X45795500Y-25339000D01*
X45795500Y-25339000D02*
X45798500Y-25332000D01*
X45798500Y-25332000D02*
X45802500Y-25325000D01*
X45802500Y-25325000D02*
X45806500Y-25318000D01*
X45806500Y-25318000D02*
X45811500Y-25312000D01*
X45811500Y-25312000D02*
X45815500Y-25306000D01*
X45815500Y-25306000D02*
X45821500Y-25300000D01*
X45821500Y-25300000D02*
X45826500Y-25294000D01*
X45826500Y-25294000D02*
X45832500Y-25289000D01*
X45832500Y-25289000D02*
X45838500Y-25283000D01*
X45838500Y-25283000D02*
X45844500Y-25279000D01*
X45844500Y-25279000D02*
X45850500Y-25274000D01*
X45850500Y-25274000D02*
X45857500Y-25270000D01*
X45857500Y-25270000D02*
X45864500Y-25266000D01*
X45864500Y-25266000D02*
X45871500Y-25263000D01*
X45871500Y-25263000D02*
X45878500Y-25260000D01*
X45878500Y-25260000D02*
X45886500Y-25257000D01*
X45886500Y-25257000D02*
X45893500Y-25255000D01*
X45893500Y-25255000D02*
X45901500Y-25253000D01*
X45901500Y-25253000D02*
X45909500Y-25252000D01*
X45909500Y-25252000D02*
X45916500Y-25251000D01*
X45916500Y-25251000D02*
X45924500Y-25250000D01*
X45924500Y-25250000D02*
X45932500Y-25250000D01*
X45932500Y-25250000D02*
X46732500Y-25250000D01*
X46732500Y-25250000D02*
X46732500Y-25400000D01*
X46732500Y-25400000D02*
X46732500Y-25550000D01*
X46732500Y-25550000D02*
X46732500Y-25550000D01*
G36*
X46732500Y-25550000D02*
G01*
X45924500Y-25550000D01*
X45916500Y-25549000D01*
X45909500Y-25548000D01*
X45901500Y-25547000D01*
X45893500Y-25545000D01*
X45886500Y-25543000D01*
X45878500Y-25540000D01*
X45864500Y-25534000D01*
X45850500Y-25526000D01*
X45844500Y-25521000D01*
X45838500Y-25517000D01*
X45832500Y-25511000D01*
X45826500Y-25506000D01*
X45821500Y-25500000D01*
X45815500Y-25494000D01*
X45811500Y-25488000D01*
X45806500Y-25482000D01*
X45798500Y-25468000D01*
X45792500Y-25454000D01*
X45789500Y-25446000D01*
X45787500Y-25439000D01*
X45785500Y-25431000D01*
X45784500Y-25423000D01*
X45783500Y-25416000D01*
X45782500Y-25408000D01*
X45782500Y-25392000D01*
X45783500Y-25384000D01*
X45784500Y-25377000D01*
X45785500Y-25369000D01*
X45787500Y-25361000D01*
X45789500Y-25354000D01*
X45792500Y-25346000D01*
X45798500Y-25332000D01*
X45806500Y-25318000D01*
X45811500Y-25312000D01*
X45815500Y-25306000D01*
X45821500Y-25300000D01*
X45826500Y-25294000D01*
X45832500Y-25289000D01*
X45838500Y-25283000D01*
X45844500Y-25279000D01*
X45850500Y-25274000D01*
X45864500Y-25266000D01*
X45878500Y-25260000D01*
X45886500Y-25257000D01*
X45893500Y-25255000D01*
X45901500Y-25253000D01*
X45909500Y-25252000D01*
X45916500Y-25251000D01*
X45924500Y-25250000D01*
X46732500Y-25250000D01*
X46732500Y-25550000D01*
G37*
X46732500Y-25550000D02*
X45924500Y-25550000D01*
X45916500Y-25549000D01*
X45909500Y-25548000D01*
X45901500Y-25547000D01*
X45893500Y-25545000D01*
X45886500Y-25543000D01*
X45878500Y-25540000D01*
X45864500Y-25534000D01*
X45850500Y-25526000D01*
X45844500Y-25521000D01*
X45838500Y-25517000D01*
X45832500Y-25511000D01*
X45826500Y-25506000D01*
X45821500Y-25500000D01*
X45815500Y-25494000D01*
X45811500Y-25488000D01*
X45806500Y-25482000D01*
X45798500Y-25468000D01*
X45792500Y-25454000D01*
X45789500Y-25446000D01*
X45787500Y-25439000D01*
X45785500Y-25431000D01*
X45784500Y-25423000D01*
X45783500Y-25416000D01*
X45782500Y-25408000D01*
X45782500Y-25392000D01*
X45783500Y-25384000D01*
X45784500Y-25377000D01*
X45785500Y-25369000D01*
X45787500Y-25361000D01*
X45789500Y-25354000D01*
X45792500Y-25346000D01*
X45798500Y-25332000D01*
X45806500Y-25318000D01*
X45811500Y-25312000D01*
X45815500Y-25306000D01*
X45821500Y-25300000D01*
X45826500Y-25294000D01*
X45832500Y-25289000D01*
X45838500Y-25283000D01*
X45844500Y-25279000D01*
X45850500Y-25274000D01*
X45864500Y-25266000D01*
X45878500Y-25260000D01*
X45886500Y-25257000D01*
X45893500Y-25255000D01*
X45901500Y-25253000D01*
X45909500Y-25252000D01*
X45916500Y-25251000D01*
X45924500Y-25250000D01*
X46732500Y-25250000D01*
X46732500Y-25550000D01*
X41832500Y-23650000D02*
X42632500Y-23650000D01*
X42632500Y-23650000D02*
X42640500Y-23650000D01*
X42640500Y-23650000D02*
X42648500Y-23651000D01*
X42648500Y-23651000D02*
X42655500Y-23652000D01*
X42655500Y-23652000D02*
X42663500Y-23653000D01*
X42663500Y-23653000D02*
X42671500Y-23655000D01*
X42671500Y-23655000D02*
X42678500Y-23657000D01*
X42678500Y-23657000D02*
X42686500Y-23660000D01*
X42686500Y-23660000D02*
X42693500Y-23663000D01*
X42693500Y-23663000D02*
X42700500Y-23666000D01*
X42700500Y-23666000D02*
X42707500Y-23670000D01*
X42707500Y-23670000D02*
X42714500Y-23674000D01*
X42714500Y-23674000D02*
X42720500Y-23679000D01*
X42720500Y-23679000D02*
X42726500Y-23683000D01*
X42726500Y-23683000D02*
X42732500Y-23689000D01*
X42732500Y-23689000D02*
X42738500Y-23694000D01*
X42738500Y-23694000D02*
X42743500Y-23700000D01*
X42743500Y-23700000D02*
X42749500Y-23706000D01*
X42749500Y-23706000D02*
X42753500Y-23712000D01*
X42753500Y-23712000D02*
X42758500Y-23718000D01*
X42758500Y-23718000D02*
X42762500Y-23725000D01*
X42762500Y-23725000D02*
X42766500Y-23732000D01*
X42766500Y-23732000D02*
X42769500Y-23739000D01*
X42769500Y-23739000D02*
X42772500Y-23746000D01*
X42772500Y-23746000D02*
X42775500Y-23754000D01*
X42775500Y-23754000D02*
X42777500Y-23761000D01*
X42777500Y-23761000D02*
X42779500Y-23769000D01*
X42779500Y-23769000D02*
X42780500Y-23777000D01*
X42780500Y-23777000D02*
X42781500Y-23784000D01*
X42781500Y-23784000D02*
X42782500Y-23792000D01*
X42782500Y-23792000D02*
X42782500Y-23800000D01*
X42782500Y-23800000D02*
X42782500Y-23808000D01*
X42782500Y-23808000D02*
X42781500Y-23816000D01*
X42781500Y-23816000D02*
X42780500Y-23823000D01*
X42780500Y-23823000D02*
X42779500Y-23831000D01*
X42779500Y-23831000D02*
X42777500Y-23839000D01*
X42777500Y-23839000D02*
X42775500Y-23846000D01*
X42775500Y-23846000D02*
X42772500Y-23854000D01*
X42772500Y-23854000D02*
X42769500Y-23861000D01*
X42769500Y-23861000D02*
X42766500Y-23868000D01*
X42766500Y-23868000D02*
X42762500Y-23875000D01*
X42762500Y-23875000D02*
X42758500Y-23882000D01*
X42758500Y-23882000D02*
X42753500Y-23888000D01*
X42753500Y-23888000D02*
X42749500Y-23894000D01*
X42749500Y-23894000D02*
X42743500Y-23900000D01*
X42743500Y-23900000D02*
X42738500Y-23906000D01*
X42738500Y-23906000D02*
X42732500Y-23911000D01*
X42732500Y-23911000D02*
X42726500Y-23917000D01*
X42726500Y-23917000D02*
X42720500Y-23921000D01*
X42720500Y-23921000D02*
X42714500Y-23926000D01*
X42714500Y-23926000D02*
X42707500Y-23930000D01*
X42707500Y-23930000D02*
X42700500Y-23934000D01*
X42700500Y-23934000D02*
X42693500Y-23937000D01*
X42693500Y-23937000D02*
X42686500Y-23940000D01*
X42686500Y-23940000D02*
X42678500Y-23943000D01*
X42678500Y-23943000D02*
X42671500Y-23945000D01*
X42671500Y-23945000D02*
X42663500Y-23947000D01*
X42663500Y-23947000D02*
X42655500Y-23948000D01*
X42655500Y-23948000D02*
X42648500Y-23949000D01*
X42648500Y-23949000D02*
X42640500Y-23950000D01*
X42640500Y-23950000D02*
X42632500Y-23950000D01*
X42632500Y-23950000D02*
X41832500Y-23950000D01*
X41832500Y-23950000D02*
X41832500Y-23800000D01*
X41832500Y-23800000D02*
X41832500Y-23650000D01*
X41832500Y-23650000D02*
X41832500Y-23650000D01*
G36*
X42648500Y-23651000D02*
G01*
X42655500Y-23652000D01*
X42663500Y-23653000D01*
X42671500Y-23655000D01*
X42678500Y-23657000D01*
X42686500Y-23660000D01*
X42700500Y-23666000D01*
X42714500Y-23674000D01*
X42720500Y-23679000D01*
X42726500Y-23683000D01*
X42732500Y-23689000D01*
X42738500Y-23694000D01*
X42743500Y-23700000D01*
X42749500Y-23706000D01*
X42753500Y-23712000D01*
X42758500Y-23718000D01*
X42766500Y-23732000D01*
X42772500Y-23746000D01*
X42775500Y-23754000D01*
X42777500Y-23761000D01*
X42779500Y-23769000D01*
X42780500Y-23777000D01*
X42781500Y-23784000D01*
X42782500Y-23792000D01*
X42782500Y-23808000D01*
X42781500Y-23816000D01*
X42780500Y-23823000D01*
X42779500Y-23831000D01*
X42777500Y-23839000D01*
X42775500Y-23846000D01*
X42772500Y-23854000D01*
X42766500Y-23868000D01*
X42758500Y-23882000D01*
X42753500Y-23888000D01*
X42749500Y-23894000D01*
X42743500Y-23900000D01*
X42738500Y-23906000D01*
X42732500Y-23911000D01*
X42726500Y-23917000D01*
X42720500Y-23921000D01*
X42714500Y-23926000D01*
X42700500Y-23934000D01*
X42686500Y-23940000D01*
X42678500Y-23943000D01*
X42671500Y-23945000D01*
X42663500Y-23947000D01*
X42655500Y-23948000D01*
X42648500Y-23949000D01*
X42640500Y-23950000D01*
X41832500Y-23950000D01*
X41832500Y-23650000D01*
X42640500Y-23650000D01*
X42648500Y-23651000D01*
G37*
X42648500Y-23651000D02*
X42655500Y-23652000D01*
X42663500Y-23653000D01*
X42671500Y-23655000D01*
X42678500Y-23657000D01*
X42686500Y-23660000D01*
X42700500Y-23666000D01*
X42714500Y-23674000D01*
X42720500Y-23679000D01*
X42726500Y-23683000D01*
X42732500Y-23689000D01*
X42738500Y-23694000D01*
X42743500Y-23700000D01*
X42749500Y-23706000D01*
X42753500Y-23712000D01*
X42758500Y-23718000D01*
X42766500Y-23732000D01*
X42772500Y-23746000D01*
X42775500Y-23754000D01*
X42777500Y-23761000D01*
X42779500Y-23769000D01*
X42780500Y-23777000D01*
X42781500Y-23784000D01*
X42782500Y-23792000D01*
X42782500Y-23808000D01*
X42781500Y-23816000D01*
X42780500Y-23823000D01*
X42779500Y-23831000D01*
X42777500Y-23839000D01*
X42775500Y-23846000D01*
X42772500Y-23854000D01*
X42766500Y-23868000D01*
X42758500Y-23882000D01*
X42753500Y-23888000D01*
X42749500Y-23894000D01*
X42743500Y-23900000D01*
X42738500Y-23906000D01*
X42732500Y-23911000D01*
X42726500Y-23917000D01*
X42720500Y-23921000D01*
X42714500Y-23926000D01*
X42700500Y-23934000D01*
X42686500Y-23940000D01*
X42678500Y-23943000D01*
X42671500Y-23945000D01*
X42663500Y-23947000D01*
X42655500Y-23948000D01*
X42648500Y-23949000D01*
X42640500Y-23950000D01*
X41832500Y-23950000D01*
X41832500Y-23650000D01*
X42640500Y-23650000D01*
X42648500Y-23651000D01*
X41832500Y-24850000D02*
X42632500Y-24850000D01*
X42632500Y-24850000D02*
X42640500Y-24850000D01*
X42640500Y-24850000D02*
X42648500Y-24851000D01*
X42648500Y-24851000D02*
X42655500Y-24852000D01*
X42655500Y-24852000D02*
X42663500Y-24853000D01*
X42663500Y-24853000D02*
X42671500Y-24855000D01*
X42671500Y-24855000D02*
X42678500Y-24857000D01*
X42678500Y-24857000D02*
X42686500Y-24860000D01*
X42686500Y-24860000D02*
X42693500Y-24863000D01*
X42693500Y-24863000D02*
X42700500Y-24866000D01*
X42700500Y-24866000D02*
X42707500Y-24870000D01*
X42707500Y-24870000D02*
X42714500Y-24874000D01*
X42714500Y-24874000D02*
X42720500Y-24879000D01*
X42720500Y-24879000D02*
X42726500Y-24883000D01*
X42726500Y-24883000D02*
X42732500Y-24889000D01*
X42732500Y-24889000D02*
X42738500Y-24894000D01*
X42738500Y-24894000D02*
X42743500Y-24900000D01*
X42743500Y-24900000D02*
X42749500Y-24906000D01*
X42749500Y-24906000D02*
X42753500Y-24912000D01*
X42753500Y-24912000D02*
X42758500Y-24918000D01*
X42758500Y-24918000D02*
X42762500Y-24925000D01*
X42762500Y-24925000D02*
X42766500Y-24932000D01*
X42766500Y-24932000D02*
X42769500Y-24939000D01*
X42769500Y-24939000D02*
X42772500Y-24946000D01*
X42772500Y-24946000D02*
X42775500Y-24954000D01*
X42775500Y-24954000D02*
X42777500Y-24961000D01*
X42777500Y-24961000D02*
X42779500Y-24969000D01*
X42779500Y-24969000D02*
X42780500Y-24977000D01*
X42780500Y-24977000D02*
X42781500Y-24984000D01*
X42781500Y-24984000D02*
X42782500Y-24992000D01*
X42782500Y-24992000D02*
X42782500Y-25000000D01*
X42782500Y-25000000D02*
X42782500Y-25008000D01*
X42782500Y-25008000D02*
X42781500Y-25016000D01*
X42781500Y-25016000D02*
X42780500Y-25023000D01*
X42780500Y-25023000D02*
X42779500Y-25031000D01*
X42779500Y-25031000D02*
X42777500Y-25039000D01*
X42777500Y-25039000D02*
X42775500Y-25046000D01*
X42775500Y-25046000D02*
X42772500Y-25054000D01*
X42772500Y-25054000D02*
X42769500Y-25061000D01*
X42769500Y-25061000D02*
X42766500Y-25068000D01*
X42766500Y-25068000D02*
X42762500Y-25075000D01*
X42762500Y-25075000D02*
X42758500Y-25082000D01*
X42758500Y-25082000D02*
X42753500Y-25088000D01*
X42753500Y-25088000D02*
X42749500Y-25094000D01*
X42749500Y-25094000D02*
X42743500Y-25100000D01*
X42743500Y-25100000D02*
X42738500Y-25106000D01*
X42738500Y-25106000D02*
X42732500Y-25111000D01*
X42732500Y-25111000D02*
X42726500Y-25117000D01*
X42726500Y-25117000D02*
X42720500Y-25121000D01*
X42720500Y-25121000D02*
X42714500Y-25126000D01*
X42714500Y-25126000D02*
X42707500Y-25130000D01*
X42707500Y-25130000D02*
X42700500Y-25134000D01*
X42700500Y-25134000D02*
X42693500Y-25137000D01*
X42693500Y-25137000D02*
X42686500Y-25140000D01*
X42686500Y-25140000D02*
X42678500Y-25143000D01*
X42678500Y-25143000D02*
X42671500Y-25145000D01*
X42671500Y-25145000D02*
X42663500Y-25147000D01*
X42663500Y-25147000D02*
X42655500Y-25148000D01*
X42655500Y-25148000D02*
X42648500Y-25149000D01*
X42648500Y-25149000D02*
X42640500Y-25150000D01*
X42640500Y-25150000D02*
X42632500Y-25150000D01*
X42632500Y-25150000D02*
X41832500Y-25150000D01*
X41832500Y-25150000D02*
X41832500Y-25000000D01*
X41832500Y-25000000D02*
X41832500Y-24850000D01*
X41832500Y-24850000D02*
X41832500Y-24850000D01*
G36*
X42648500Y-24851000D02*
G01*
X42655500Y-24852000D01*
X42663500Y-24853000D01*
X42671500Y-24855000D01*
X42678500Y-24857000D01*
X42686500Y-24860000D01*
X42700500Y-24866000D01*
X42714500Y-24874000D01*
X42720500Y-24879000D01*
X42726500Y-24883000D01*
X42732500Y-24889000D01*
X42738500Y-24894000D01*
X42743500Y-24900000D01*
X42749500Y-24906000D01*
X42753500Y-24912000D01*
X42758500Y-24918000D01*
X42766500Y-24932000D01*
X42772500Y-24946000D01*
X42775500Y-24954000D01*
X42777500Y-24961000D01*
X42779500Y-24969000D01*
X42780500Y-24977000D01*
X42781500Y-24984000D01*
X42782500Y-24992000D01*
X42782500Y-25008000D01*
X42781500Y-25016000D01*
X42780500Y-25023000D01*
X42779500Y-25031000D01*
X42777500Y-25039000D01*
X42775500Y-25046000D01*
X42772500Y-25054000D01*
X42766500Y-25068000D01*
X42758500Y-25082000D01*
X42753500Y-25088000D01*
X42749500Y-25094000D01*
X42743500Y-25100000D01*
X42738500Y-25106000D01*
X42732500Y-25111000D01*
X42726500Y-25117000D01*
X42720500Y-25121000D01*
X42714500Y-25126000D01*
X42700500Y-25134000D01*
X42686500Y-25140000D01*
X42678500Y-25143000D01*
X42671500Y-25145000D01*
X42663500Y-25147000D01*
X42655500Y-25148000D01*
X42648500Y-25149000D01*
X42640500Y-25150000D01*
X41832500Y-25150000D01*
X41832500Y-24850000D01*
X42640500Y-24850000D01*
X42648500Y-24851000D01*
G37*
X42648500Y-24851000D02*
X42655500Y-24852000D01*
X42663500Y-24853000D01*
X42671500Y-24855000D01*
X42678500Y-24857000D01*
X42686500Y-24860000D01*
X42700500Y-24866000D01*
X42714500Y-24874000D01*
X42720500Y-24879000D01*
X42726500Y-24883000D01*
X42732500Y-24889000D01*
X42738500Y-24894000D01*
X42743500Y-24900000D01*
X42749500Y-24906000D01*
X42753500Y-24912000D01*
X42758500Y-24918000D01*
X42766500Y-24932000D01*
X42772500Y-24946000D01*
X42775500Y-24954000D01*
X42777500Y-24961000D01*
X42779500Y-24969000D01*
X42780500Y-24977000D01*
X42781500Y-24984000D01*
X42782500Y-24992000D01*
X42782500Y-25008000D01*
X42781500Y-25016000D01*
X42780500Y-25023000D01*
X42779500Y-25031000D01*
X42777500Y-25039000D01*
X42775500Y-25046000D01*
X42772500Y-25054000D01*
X42766500Y-25068000D01*
X42758500Y-25082000D01*
X42753500Y-25088000D01*
X42749500Y-25094000D01*
X42743500Y-25100000D01*
X42738500Y-25106000D01*
X42732500Y-25111000D01*
X42726500Y-25117000D01*
X42720500Y-25121000D01*
X42714500Y-25126000D01*
X42700500Y-25134000D01*
X42686500Y-25140000D01*
X42678500Y-25143000D01*
X42671500Y-25145000D01*
X42663500Y-25147000D01*
X42655500Y-25148000D01*
X42648500Y-25149000D01*
X42640500Y-25150000D01*
X41832500Y-25150000D01*
X41832500Y-24850000D01*
X42640500Y-24850000D01*
X42648500Y-24851000D01*
X46732500Y-24350000D02*
X45932500Y-24350000D01*
X45932500Y-24350000D02*
X45924500Y-24350000D01*
X45924500Y-24350000D02*
X45916500Y-24349000D01*
X45916500Y-24349000D02*
X45909500Y-24348000D01*
X45909500Y-24348000D02*
X45901500Y-24347000D01*
X45901500Y-24347000D02*
X45893500Y-24345000D01*
X45893500Y-24345000D02*
X45886500Y-24343000D01*
X45886500Y-24343000D02*
X45878500Y-24340000D01*
X45878500Y-24340000D02*
X45871500Y-24337000D01*
X45871500Y-24337000D02*
X45864500Y-24334000D01*
X45864500Y-24334000D02*
X45857500Y-24330000D01*
X45857500Y-24330000D02*
X45850500Y-24326000D01*
X45850500Y-24326000D02*
X45844500Y-24321000D01*
X45844500Y-24321000D02*
X45838500Y-24317000D01*
X45838500Y-24317000D02*
X45832500Y-24311000D01*
X45832500Y-24311000D02*
X45826500Y-24306000D01*
X45826500Y-24306000D02*
X45821500Y-24300000D01*
X45821500Y-24300000D02*
X45815500Y-24294000D01*
X45815500Y-24294000D02*
X45811500Y-24288000D01*
X45811500Y-24288000D02*
X45806500Y-24282000D01*
X45806500Y-24282000D02*
X45802500Y-24275000D01*
X45802500Y-24275000D02*
X45798500Y-24268000D01*
X45798500Y-24268000D02*
X45795500Y-24261000D01*
X45795500Y-24261000D02*
X45792500Y-24254000D01*
X45792500Y-24254000D02*
X45789500Y-24246000D01*
X45789500Y-24246000D02*
X45787500Y-24239000D01*
X45787500Y-24239000D02*
X45785500Y-24231000D01*
X45785500Y-24231000D02*
X45784500Y-24223000D01*
X45784500Y-24223000D02*
X45783500Y-24216000D01*
X45783500Y-24216000D02*
X45782500Y-24208000D01*
X45782500Y-24208000D02*
X45782500Y-24200000D01*
X45782500Y-24200000D02*
X45782500Y-24192000D01*
X45782500Y-24192000D02*
X45783500Y-24184000D01*
X45783500Y-24184000D02*
X45784500Y-24177000D01*
X45784500Y-24177000D02*
X45785500Y-24169000D01*
X45785500Y-24169000D02*
X45787500Y-24161000D01*
X45787500Y-24161000D02*
X45789500Y-24154000D01*
X45789500Y-24154000D02*
X45792500Y-24146000D01*
X45792500Y-24146000D02*
X45795500Y-24139000D01*
X45795500Y-24139000D02*
X45798500Y-24132000D01*
X45798500Y-24132000D02*
X45802500Y-24125000D01*
X45802500Y-24125000D02*
X45806500Y-24118000D01*
X45806500Y-24118000D02*
X45811500Y-24112000D01*
X45811500Y-24112000D02*
X45815500Y-24106000D01*
X45815500Y-24106000D02*
X45821500Y-24100000D01*
X45821500Y-24100000D02*
X45826500Y-24094000D01*
X45826500Y-24094000D02*
X45832500Y-24089000D01*
X45832500Y-24089000D02*
X45838500Y-24083000D01*
X45838500Y-24083000D02*
X45844500Y-24079000D01*
X45844500Y-24079000D02*
X45850500Y-24074000D01*
X45850500Y-24074000D02*
X45857500Y-24070000D01*
X45857500Y-24070000D02*
X45864500Y-24066000D01*
X45864500Y-24066000D02*
X45871500Y-24063000D01*
X45871500Y-24063000D02*
X45878500Y-24060000D01*
X45878500Y-24060000D02*
X45886500Y-24057000D01*
X45886500Y-24057000D02*
X45893500Y-24055000D01*
X45893500Y-24055000D02*
X45901500Y-24053000D01*
X45901500Y-24053000D02*
X45909500Y-24052000D01*
X45909500Y-24052000D02*
X45916500Y-24051000D01*
X45916500Y-24051000D02*
X45924500Y-24050000D01*
X45924500Y-24050000D02*
X45932500Y-24050000D01*
X45932500Y-24050000D02*
X46732500Y-24050000D01*
X46732500Y-24050000D02*
X46732500Y-24200000D01*
X46732500Y-24200000D02*
X46732500Y-24350000D01*
X46732500Y-24350000D02*
X46732500Y-24350000D01*
G36*
X46732500Y-24350000D02*
G01*
X45924500Y-24350000D01*
X45916500Y-24349000D01*
X45909500Y-24348000D01*
X45901500Y-24347000D01*
X45893500Y-24345000D01*
X45886500Y-24343000D01*
X45878500Y-24340000D01*
X45864500Y-24334000D01*
X45850500Y-24326000D01*
X45844500Y-24321000D01*
X45838500Y-24317000D01*
X45832500Y-24311000D01*
X45826500Y-24306000D01*
X45821500Y-24300000D01*
X45815500Y-24294000D01*
X45811500Y-24288000D01*
X45806500Y-24282000D01*
X45798500Y-24268000D01*
X45792500Y-24254000D01*
X45789500Y-24246000D01*
X45787500Y-24239000D01*
X45785500Y-24231000D01*
X45784500Y-24223000D01*
X45783500Y-24216000D01*
X45782500Y-24208000D01*
X45782500Y-24192000D01*
X45783500Y-24184000D01*
X45784500Y-24177000D01*
X45785500Y-24169000D01*
X45787500Y-24161000D01*
X45789500Y-24154000D01*
X45792500Y-24146000D01*
X45798500Y-24132000D01*
X45806500Y-24118000D01*
X45811500Y-24112000D01*
X45815500Y-24106000D01*
X45821500Y-24100000D01*
X45826500Y-24094000D01*
X45832500Y-24089000D01*
X45838500Y-24083000D01*
X45844500Y-24079000D01*
X45850500Y-24074000D01*
X45864500Y-24066000D01*
X45878500Y-24060000D01*
X45886500Y-24057000D01*
X45893500Y-24055000D01*
X45901500Y-24053000D01*
X45909500Y-24052000D01*
X45916500Y-24051000D01*
X45924500Y-24050000D01*
X46732500Y-24050000D01*
X46732500Y-24350000D01*
G37*
X46732500Y-24350000D02*
X45924500Y-24350000D01*
X45916500Y-24349000D01*
X45909500Y-24348000D01*
X45901500Y-24347000D01*
X45893500Y-24345000D01*
X45886500Y-24343000D01*
X45878500Y-24340000D01*
X45864500Y-24334000D01*
X45850500Y-24326000D01*
X45844500Y-24321000D01*
X45838500Y-24317000D01*
X45832500Y-24311000D01*
X45826500Y-24306000D01*
X45821500Y-24300000D01*
X45815500Y-24294000D01*
X45811500Y-24288000D01*
X45806500Y-24282000D01*
X45798500Y-24268000D01*
X45792500Y-24254000D01*
X45789500Y-24246000D01*
X45787500Y-24239000D01*
X45785500Y-24231000D01*
X45784500Y-24223000D01*
X45783500Y-24216000D01*
X45782500Y-24208000D01*
X45782500Y-24192000D01*
X45783500Y-24184000D01*
X45784500Y-24177000D01*
X45785500Y-24169000D01*
X45787500Y-24161000D01*
X45789500Y-24154000D01*
X45792500Y-24146000D01*
X45798500Y-24132000D01*
X45806500Y-24118000D01*
X45811500Y-24112000D01*
X45815500Y-24106000D01*
X45821500Y-24100000D01*
X45826500Y-24094000D01*
X45832500Y-24089000D01*
X45838500Y-24083000D01*
X45844500Y-24079000D01*
X45850500Y-24074000D01*
X45864500Y-24066000D01*
X45878500Y-24060000D01*
X45886500Y-24057000D01*
X45893500Y-24055000D01*
X45901500Y-24053000D01*
X45909500Y-24052000D01*
X45916500Y-24051000D01*
X45924500Y-24050000D01*
X46732500Y-24050000D01*
X46732500Y-24350000D01*
X41832500Y-25250000D02*
X42632500Y-25250000D01*
X42632500Y-25250000D02*
X42640500Y-25250000D01*
X42640500Y-25250000D02*
X42648500Y-25251000D01*
X42648500Y-25251000D02*
X42655500Y-25252000D01*
X42655500Y-25252000D02*
X42663500Y-25253000D01*
X42663500Y-25253000D02*
X42671500Y-25255000D01*
X42671500Y-25255000D02*
X42678500Y-25257000D01*
X42678500Y-25257000D02*
X42686500Y-25260000D01*
X42686500Y-25260000D02*
X42693500Y-25263000D01*
X42693500Y-25263000D02*
X42700500Y-25266000D01*
X42700500Y-25266000D02*
X42707500Y-25270000D01*
X42707500Y-25270000D02*
X42714500Y-25274000D01*
X42714500Y-25274000D02*
X42720500Y-25279000D01*
X42720500Y-25279000D02*
X42726500Y-25283000D01*
X42726500Y-25283000D02*
X42732500Y-25289000D01*
X42732500Y-25289000D02*
X42738500Y-25294000D01*
X42738500Y-25294000D02*
X42743500Y-25300000D01*
X42743500Y-25300000D02*
X42749500Y-25306000D01*
X42749500Y-25306000D02*
X42753500Y-25312000D01*
X42753500Y-25312000D02*
X42758500Y-25318000D01*
X42758500Y-25318000D02*
X42762500Y-25325000D01*
X42762500Y-25325000D02*
X42766500Y-25332000D01*
X42766500Y-25332000D02*
X42769500Y-25339000D01*
X42769500Y-25339000D02*
X42772500Y-25346000D01*
X42772500Y-25346000D02*
X42775500Y-25354000D01*
X42775500Y-25354000D02*
X42777500Y-25361000D01*
X42777500Y-25361000D02*
X42779500Y-25369000D01*
X42779500Y-25369000D02*
X42780500Y-25377000D01*
X42780500Y-25377000D02*
X42781500Y-25384000D01*
X42781500Y-25384000D02*
X42782500Y-25392000D01*
X42782500Y-25392000D02*
X42782500Y-25400000D01*
X42782500Y-25400000D02*
X42782500Y-25408000D01*
X42782500Y-25408000D02*
X42781500Y-25416000D01*
X42781500Y-25416000D02*
X42780500Y-25423000D01*
X42780500Y-25423000D02*
X42779500Y-25431000D01*
X42779500Y-25431000D02*
X42777500Y-25439000D01*
X42777500Y-25439000D02*
X42775500Y-25446000D01*
X42775500Y-25446000D02*
X42772500Y-25454000D01*
X42772500Y-25454000D02*
X42769500Y-25461000D01*
X42769500Y-25461000D02*
X42766500Y-25468000D01*
X42766500Y-25468000D02*
X42762500Y-25475000D01*
X42762500Y-25475000D02*
X42758500Y-25482000D01*
X42758500Y-25482000D02*
X42753500Y-25488000D01*
X42753500Y-25488000D02*
X42749500Y-25494000D01*
X42749500Y-25494000D02*
X42743500Y-25500000D01*
X42743500Y-25500000D02*
X42738500Y-25506000D01*
X42738500Y-25506000D02*
X42732500Y-25511000D01*
X42732500Y-25511000D02*
X42726500Y-25517000D01*
X42726500Y-25517000D02*
X42720500Y-25521000D01*
X42720500Y-25521000D02*
X42714500Y-25526000D01*
X42714500Y-25526000D02*
X42707500Y-25530000D01*
X42707500Y-25530000D02*
X42700500Y-25534000D01*
X42700500Y-25534000D02*
X42693500Y-25537000D01*
X42693500Y-25537000D02*
X42686500Y-25540000D01*
X42686500Y-25540000D02*
X42678500Y-25543000D01*
X42678500Y-25543000D02*
X42671500Y-25545000D01*
X42671500Y-25545000D02*
X42663500Y-25547000D01*
X42663500Y-25547000D02*
X42655500Y-25548000D01*
X42655500Y-25548000D02*
X42648500Y-25549000D01*
X42648500Y-25549000D02*
X42640500Y-25550000D01*
X42640500Y-25550000D02*
X42632500Y-25550000D01*
X42632500Y-25550000D02*
X41832500Y-25550000D01*
X41832500Y-25550000D02*
X41832500Y-25400000D01*
X41832500Y-25400000D02*
X41832500Y-25250000D01*
X41832500Y-25250000D02*
X41832500Y-25250000D01*
G36*
X42648500Y-25251000D02*
G01*
X42655500Y-25252000D01*
X42663500Y-25253000D01*
X42671500Y-25255000D01*
X42678500Y-25257000D01*
X42686500Y-25260000D01*
X42700500Y-25266000D01*
X42714500Y-25274000D01*
X42720500Y-25279000D01*
X42726500Y-25283000D01*
X42732500Y-25289000D01*
X42738500Y-25294000D01*
X42743500Y-25300000D01*
X42749500Y-25306000D01*
X42753500Y-25312000D01*
X42758500Y-25318000D01*
X42766500Y-25332000D01*
X42772500Y-25346000D01*
X42775500Y-25354000D01*
X42777500Y-25361000D01*
X42779500Y-25369000D01*
X42780500Y-25377000D01*
X42781500Y-25384000D01*
X42782500Y-25392000D01*
X42782500Y-25408000D01*
X42781500Y-25416000D01*
X42780500Y-25423000D01*
X42779500Y-25431000D01*
X42777500Y-25439000D01*
X42775500Y-25446000D01*
X42772500Y-25454000D01*
X42766500Y-25468000D01*
X42758500Y-25482000D01*
X42753500Y-25488000D01*
X42749500Y-25494000D01*
X42743500Y-25500000D01*
X42738500Y-25506000D01*
X42732500Y-25511000D01*
X42726500Y-25517000D01*
X42720500Y-25521000D01*
X42714500Y-25526000D01*
X42700500Y-25534000D01*
X42686500Y-25540000D01*
X42678500Y-25543000D01*
X42671500Y-25545000D01*
X42663500Y-25547000D01*
X42655500Y-25548000D01*
X42648500Y-25549000D01*
X42640500Y-25550000D01*
X41832500Y-25550000D01*
X41832500Y-25250000D01*
X42640500Y-25250000D01*
X42648500Y-25251000D01*
G37*
X42648500Y-25251000D02*
X42655500Y-25252000D01*
X42663500Y-25253000D01*
X42671500Y-25255000D01*
X42678500Y-25257000D01*
X42686500Y-25260000D01*
X42700500Y-25266000D01*
X42714500Y-25274000D01*
X42720500Y-25279000D01*
X42726500Y-25283000D01*
X42732500Y-25289000D01*
X42738500Y-25294000D01*
X42743500Y-25300000D01*
X42749500Y-25306000D01*
X42753500Y-25312000D01*
X42758500Y-25318000D01*
X42766500Y-25332000D01*
X42772500Y-25346000D01*
X42775500Y-25354000D01*
X42777500Y-25361000D01*
X42779500Y-25369000D01*
X42780500Y-25377000D01*
X42781500Y-25384000D01*
X42782500Y-25392000D01*
X42782500Y-25408000D01*
X42781500Y-25416000D01*
X42780500Y-25423000D01*
X42779500Y-25431000D01*
X42777500Y-25439000D01*
X42775500Y-25446000D01*
X42772500Y-25454000D01*
X42766500Y-25468000D01*
X42758500Y-25482000D01*
X42753500Y-25488000D01*
X42749500Y-25494000D01*
X42743500Y-25500000D01*
X42738500Y-25506000D01*
X42732500Y-25511000D01*
X42726500Y-25517000D01*
X42720500Y-25521000D01*
X42714500Y-25526000D01*
X42700500Y-25534000D01*
X42686500Y-25540000D01*
X42678500Y-25543000D01*
X42671500Y-25545000D01*
X42663500Y-25547000D01*
X42655500Y-25548000D01*
X42648500Y-25549000D01*
X42640500Y-25550000D01*
X41832500Y-25550000D01*
X41832500Y-25250000D01*
X42640500Y-25250000D01*
X42648500Y-25251000D01*
X46732500Y-25150000D02*
X45932500Y-25150000D01*
X45932500Y-25150000D02*
X45924500Y-25150000D01*
X45924500Y-25150000D02*
X45916500Y-25149000D01*
X45916500Y-25149000D02*
X45909500Y-25148000D01*
X45909500Y-25148000D02*
X45901500Y-25147000D01*
X45901500Y-25147000D02*
X45893500Y-25145000D01*
X45893500Y-25145000D02*
X45886500Y-25143000D01*
X45886500Y-25143000D02*
X45878500Y-25140000D01*
X45878500Y-25140000D02*
X45871500Y-25137000D01*
X45871500Y-25137000D02*
X45864500Y-25134000D01*
X45864500Y-25134000D02*
X45857500Y-25130000D01*
X45857500Y-25130000D02*
X45850500Y-25126000D01*
X45850500Y-25126000D02*
X45844500Y-25121000D01*
X45844500Y-25121000D02*
X45838500Y-25117000D01*
X45838500Y-25117000D02*
X45832500Y-25111000D01*
X45832500Y-25111000D02*
X45826500Y-25106000D01*
X45826500Y-25106000D02*
X45821500Y-25100000D01*
X45821500Y-25100000D02*
X45815500Y-25094000D01*
X45815500Y-25094000D02*
X45811500Y-25088000D01*
X45811500Y-25088000D02*
X45806500Y-25082000D01*
X45806500Y-25082000D02*
X45802500Y-25075000D01*
X45802500Y-25075000D02*
X45798500Y-25068000D01*
X45798500Y-25068000D02*
X45795500Y-25061000D01*
X45795500Y-25061000D02*
X45792500Y-25054000D01*
X45792500Y-25054000D02*
X45789500Y-25046000D01*
X45789500Y-25046000D02*
X45787500Y-25039000D01*
X45787500Y-25039000D02*
X45785500Y-25031000D01*
X45785500Y-25031000D02*
X45784500Y-25023000D01*
X45784500Y-25023000D02*
X45783500Y-25016000D01*
X45783500Y-25016000D02*
X45782500Y-25008000D01*
X45782500Y-25008000D02*
X45782500Y-25000000D01*
X45782500Y-25000000D02*
X45782500Y-24992000D01*
X45782500Y-24992000D02*
X45783500Y-24984000D01*
X45783500Y-24984000D02*
X45784500Y-24977000D01*
X45784500Y-24977000D02*
X45785500Y-24969000D01*
X45785500Y-24969000D02*
X45787500Y-24961000D01*
X45787500Y-24961000D02*
X45789500Y-24954000D01*
X45789500Y-24954000D02*
X45792500Y-24946000D01*
X45792500Y-24946000D02*
X45795500Y-24939000D01*
X45795500Y-24939000D02*
X45798500Y-24932000D01*
X45798500Y-24932000D02*
X45802500Y-24925000D01*
X45802500Y-24925000D02*
X45806500Y-24918000D01*
X45806500Y-24918000D02*
X45811500Y-24912000D01*
X45811500Y-24912000D02*
X45815500Y-24906000D01*
X45815500Y-24906000D02*
X45821500Y-24900000D01*
X45821500Y-24900000D02*
X45826500Y-24894000D01*
X45826500Y-24894000D02*
X45832500Y-24889000D01*
X45832500Y-24889000D02*
X45838500Y-24883000D01*
X45838500Y-24883000D02*
X45844500Y-24879000D01*
X45844500Y-24879000D02*
X45850500Y-24874000D01*
X45850500Y-24874000D02*
X45857500Y-24870000D01*
X45857500Y-24870000D02*
X45864500Y-24866000D01*
X45864500Y-24866000D02*
X45871500Y-24863000D01*
X45871500Y-24863000D02*
X45878500Y-24860000D01*
X45878500Y-24860000D02*
X45886500Y-24857000D01*
X45886500Y-24857000D02*
X45893500Y-24855000D01*
X45893500Y-24855000D02*
X45901500Y-24853000D01*
X45901500Y-24853000D02*
X45909500Y-24852000D01*
X45909500Y-24852000D02*
X45916500Y-24851000D01*
X45916500Y-24851000D02*
X45924500Y-24850000D01*
X45924500Y-24850000D02*
X45932500Y-24850000D01*
X45932500Y-24850000D02*
X46732500Y-24850000D01*
X46732500Y-24850000D02*
X46732500Y-25000000D01*
X46732500Y-25000000D02*
X46732500Y-25150000D01*
X46732500Y-25150000D02*
X46732500Y-25150000D01*
G36*
X46732500Y-25150000D02*
G01*
X45924500Y-25150000D01*
X45916500Y-25149000D01*
X45909500Y-25148000D01*
X45901500Y-25147000D01*
X45893500Y-25145000D01*
X45886500Y-25143000D01*
X45878500Y-25140000D01*
X45864500Y-25134000D01*
X45850500Y-25126000D01*
X45844500Y-25121000D01*
X45838500Y-25117000D01*
X45832500Y-25111000D01*
X45826500Y-25106000D01*
X45821500Y-25100000D01*
X45815500Y-25094000D01*
X45811500Y-25088000D01*
X45806500Y-25082000D01*
X45798500Y-25068000D01*
X45792500Y-25054000D01*
X45789500Y-25046000D01*
X45787500Y-25039000D01*
X45785500Y-25031000D01*
X45784500Y-25023000D01*
X45783500Y-25016000D01*
X45782500Y-25008000D01*
X45782500Y-24992000D01*
X45783500Y-24984000D01*
X45784500Y-24977000D01*
X45785500Y-24969000D01*
X45787500Y-24961000D01*
X45789500Y-24954000D01*
X45792500Y-24946000D01*
X45798500Y-24932000D01*
X45806500Y-24918000D01*
X45811500Y-24912000D01*
X45815500Y-24906000D01*
X45821500Y-24900000D01*
X45826500Y-24894000D01*
X45832500Y-24889000D01*
X45838500Y-24883000D01*
X45844500Y-24879000D01*
X45850500Y-24874000D01*
X45864500Y-24866000D01*
X45878500Y-24860000D01*
X45886500Y-24857000D01*
X45893500Y-24855000D01*
X45901500Y-24853000D01*
X45909500Y-24852000D01*
X45916500Y-24851000D01*
X45924500Y-24850000D01*
X46732500Y-24850000D01*
X46732500Y-25150000D01*
G37*
X46732500Y-25150000D02*
X45924500Y-25150000D01*
X45916500Y-25149000D01*
X45909500Y-25148000D01*
X45901500Y-25147000D01*
X45893500Y-25145000D01*
X45886500Y-25143000D01*
X45878500Y-25140000D01*
X45864500Y-25134000D01*
X45850500Y-25126000D01*
X45844500Y-25121000D01*
X45838500Y-25117000D01*
X45832500Y-25111000D01*
X45826500Y-25106000D01*
X45821500Y-25100000D01*
X45815500Y-25094000D01*
X45811500Y-25088000D01*
X45806500Y-25082000D01*
X45798500Y-25068000D01*
X45792500Y-25054000D01*
X45789500Y-25046000D01*
X45787500Y-25039000D01*
X45785500Y-25031000D01*
X45784500Y-25023000D01*
X45783500Y-25016000D01*
X45782500Y-25008000D01*
X45782500Y-24992000D01*
X45783500Y-24984000D01*
X45784500Y-24977000D01*
X45785500Y-24969000D01*
X45787500Y-24961000D01*
X45789500Y-24954000D01*
X45792500Y-24946000D01*
X45798500Y-24932000D01*
X45806500Y-24918000D01*
X45811500Y-24912000D01*
X45815500Y-24906000D01*
X45821500Y-24900000D01*
X45826500Y-24894000D01*
X45832500Y-24889000D01*
X45838500Y-24883000D01*
X45844500Y-24879000D01*
X45850500Y-24874000D01*
X45864500Y-24866000D01*
X45878500Y-24860000D01*
X45886500Y-24857000D01*
X45893500Y-24855000D01*
X45901500Y-24853000D01*
X45909500Y-24852000D01*
X45916500Y-24851000D01*
X45924500Y-24850000D01*
X46732500Y-24850000D01*
X46732500Y-25150000D01*
X41832500Y-24050000D02*
X42632500Y-24050000D01*
X42632500Y-24050000D02*
X42640500Y-24050000D01*
X42640500Y-24050000D02*
X42648500Y-24051000D01*
X42648500Y-24051000D02*
X42655500Y-24052000D01*
X42655500Y-24052000D02*
X42663500Y-24053000D01*
X42663500Y-24053000D02*
X42671500Y-24055000D01*
X42671500Y-24055000D02*
X42678500Y-24057000D01*
X42678500Y-24057000D02*
X42686500Y-24060000D01*
X42686500Y-24060000D02*
X42693500Y-24063000D01*
X42693500Y-24063000D02*
X42700500Y-24066000D01*
X42700500Y-24066000D02*
X42707500Y-24070000D01*
X42707500Y-24070000D02*
X42714500Y-24074000D01*
X42714500Y-24074000D02*
X42720500Y-24079000D01*
X42720500Y-24079000D02*
X42726500Y-24083000D01*
X42726500Y-24083000D02*
X42732500Y-24089000D01*
X42732500Y-24089000D02*
X42738500Y-24094000D01*
X42738500Y-24094000D02*
X42743500Y-24100000D01*
X42743500Y-24100000D02*
X42749500Y-24106000D01*
X42749500Y-24106000D02*
X42753500Y-24112000D01*
X42753500Y-24112000D02*
X42758500Y-24118000D01*
X42758500Y-24118000D02*
X42762500Y-24125000D01*
X42762500Y-24125000D02*
X42766500Y-24132000D01*
X42766500Y-24132000D02*
X42769500Y-24139000D01*
X42769500Y-24139000D02*
X42772500Y-24146000D01*
X42772500Y-24146000D02*
X42775500Y-24154000D01*
X42775500Y-24154000D02*
X42777500Y-24161000D01*
X42777500Y-24161000D02*
X42779500Y-24169000D01*
X42779500Y-24169000D02*
X42780500Y-24177000D01*
X42780500Y-24177000D02*
X42781500Y-24184000D01*
X42781500Y-24184000D02*
X42782500Y-24192000D01*
X42782500Y-24192000D02*
X42782500Y-24200000D01*
X42782500Y-24200000D02*
X42782500Y-24208000D01*
X42782500Y-24208000D02*
X42781500Y-24216000D01*
X42781500Y-24216000D02*
X42780500Y-24223000D01*
X42780500Y-24223000D02*
X42779500Y-24231000D01*
X42779500Y-24231000D02*
X42777500Y-24239000D01*
X42777500Y-24239000D02*
X42775500Y-24246000D01*
X42775500Y-24246000D02*
X42772500Y-24254000D01*
X42772500Y-24254000D02*
X42769500Y-24261000D01*
X42769500Y-24261000D02*
X42766500Y-24268000D01*
X42766500Y-24268000D02*
X42762500Y-24275000D01*
X42762500Y-24275000D02*
X42758500Y-24282000D01*
X42758500Y-24282000D02*
X42753500Y-24288000D01*
X42753500Y-24288000D02*
X42749500Y-24294000D01*
X42749500Y-24294000D02*
X42743500Y-24300000D01*
X42743500Y-24300000D02*
X42738500Y-24306000D01*
X42738500Y-24306000D02*
X42732500Y-24311000D01*
X42732500Y-24311000D02*
X42726500Y-24317000D01*
X42726500Y-24317000D02*
X42720500Y-24321000D01*
X42720500Y-24321000D02*
X42714500Y-24326000D01*
X42714500Y-24326000D02*
X42707500Y-24330000D01*
X42707500Y-24330000D02*
X42700500Y-24334000D01*
X42700500Y-24334000D02*
X42693500Y-24337000D01*
X42693500Y-24337000D02*
X42686500Y-24340000D01*
X42686500Y-24340000D02*
X42678500Y-24343000D01*
X42678500Y-24343000D02*
X42671500Y-24345000D01*
X42671500Y-24345000D02*
X42663500Y-24347000D01*
X42663500Y-24347000D02*
X42655500Y-24348000D01*
X42655500Y-24348000D02*
X42648500Y-24349000D01*
X42648500Y-24349000D02*
X42640500Y-24350000D01*
X42640500Y-24350000D02*
X42632500Y-24350000D01*
X42632500Y-24350000D02*
X41832500Y-24350000D01*
X41832500Y-24350000D02*
X41832500Y-24200000D01*
X41832500Y-24200000D02*
X41832500Y-24050000D01*
X41832500Y-24050000D02*
X41832500Y-24050000D01*
G36*
X42648500Y-24051000D02*
G01*
X42655500Y-24052000D01*
X42663500Y-24053000D01*
X42671500Y-24055000D01*
X42678500Y-24057000D01*
X42686500Y-24060000D01*
X42700500Y-24066000D01*
X42714500Y-24074000D01*
X42720500Y-24079000D01*
X42726500Y-24083000D01*
X42732500Y-24089000D01*
X42738500Y-24094000D01*
X42743500Y-24100000D01*
X42749500Y-24106000D01*
X42753500Y-24112000D01*
X42758500Y-24118000D01*
X42766500Y-24132000D01*
X42772500Y-24146000D01*
X42775500Y-24154000D01*
X42777500Y-24161000D01*
X42779500Y-24169000D01*
X42780500Y-24177000D01*
X42781500Y-24184000D01*
X42782500Y-24192000D01*
X42782500Y-24208000D01*
X42781500Y-24216000D01*
X42780500Y-24223000D01*
X42779500Y-24231000D01*
X42777500Y-24239000D01*
X42775500Y-24246000D01*
X42772500Y-24254000D01*
X42766500Y-24268000D01*
X42758500Y-24282000D01*
X42753500Y-24288000D01*
X42749500Y-24294000D01*
X42743500Y-24300000D01*
X42738500Y-24306000D01*
X42732500Y-24311000D01*
X42726500Y-24317000D01*
X42720500Y-24321000D01*
X42714500Y-24326000D01*
X42700500Y-24334000D01*
X42686500Y-24340000D01*
X42678500Y-24343000D01*
X42671500Y-24345000D01*
X42663500Y-24347000D01*
X42655500Y-24348000D01*
X42648500Y-24349000D01*
X42640500Y-24350000D01*
X41832500Y-24350000D01*
X41832500Y-24050000D01*
X42640500Y-24050000D01*
X42648500Y-24051000D01*
G37*
X42648500Y-24051000D02*
X42655500Y-24052000D01*
X42663500Y-24053000D01*
X42671500Y-24055000D01*
X42678500Y-24057000D01*
X42686500Y-24060000D01*
X42700500Y-24066000D01*
X42714500Y-24074000D01*
X42720500Y-24079000D01*
X42726500Y-24083000D01*
X42732500Y-24089000D01*
X42738500Y-24094000D01*
X42743500Y-24100000D01*
X42749500Y-24106000D01*
X42753500Y-24112000D01*
X42758500Y-24118000D01*
X42766500Y-24132000D01*
X42772500Y-24146000D01*
X42775500Y-24154000D01*
X42777500Y-24161000D01*
X42779500Y-24169000D01*
X42780500Y-24177000D01*
X42781500Y-24184000D01*
X42782500Y-24192000D01*
X42782500Y-24208000D01*
X42781500Y-24216000D01*
X42780500Y-24223000D01*
X42779500Y-24231000D01*
X42777500Y-24239000D01*
X42775500Y-24246000D01*
X42772500Y-24254000D01*
X42766500Y-24268000D01*
X42758500Y-24282000D01*
X42753500Y-24288000D01*
X42749500Y-24294000D01*
X42743500Y-24300000D01*
X42738500Y-24306000D01*
X42732500Y-24311000D01*
X42726500Y-24317000D01*
X42720500Y-24321000D01*
X42714500Y-24326000D01*
X42700500Y-24334000D01*
X42686500Y-24340000D01*
X42678500Y-24343000D01*
X42671500Y-24345000D01*
X42663500Y-24347000D01*
X42655500Y-24348000D01*
X42648500Y-24349000D01*
X42640500Y-24350000D01*
X41832500Y-24350000D01*
X41832500Y-24050000D01*
X42640500Y-24050000D01*
X42648500Y-24051000D01*
X41832500Y-24450000D02*
X42632500Y-24450000D01*
X42632500Y-24450000D02*
X42640500Y-24450000D01*
X42640500Y-24450000D02*
X42648500Y-24451000D01*
X42648500Y-24451000D02*
X42655500Y-24452000D01*
X42655500Y-24452000D02*
X42663500Y-24453000D01*
X42663500Y-24453000D02*
X42671500Y-24455000D01*
X42671500Y-24455000D02*
X42678500Y-24457000D01*
X42678500Y-24457000D02*
X42686500Y-24460000D01*
X42686500Y-24460000D02*
X42693500Y-24463000D01*
X42693500Y-24463000D02*
X42700500Y-24466000D01*
X42700500Y-24466000D02*
X42707500Y-24470000D01*
X42707500Y-24470000D02*
X42714500Y-24474000D01*
X42714500Y-24474000D02*
X42720500Y-24479000D01*
X42720500Y-24479000D02*
X42726500Y-24483000D01*
X42726500Y-24483000D02*
X42732500Y-24489000D01*
X42732500Y-24489000D02*
X42738500Y-24494000D01*
X42738500Y-24494000D02*
X42743500Y-24500000D01*
X42743500Y-24500000D02*
X42749500Y-24506000D01*
X42749500Y-24506000D02*
X42753500Y-24512000D01*
X42753500Y-24512000D02*
X42758500Y-24518000D01*
X42758500Y-24518000D02*
X42762500Y-24525000D01*
X42762500Y-24525000D02*
X42766500Y-24532000D01*
X42766500Y-24532000D02*
X42769500Y-24539000D01*
X42769500Y-24539000D02*
X42772500Y-24546000D01*
X42772500Y-24546000D02*
X42775500Y-24554000D01*
X42775500Y-24554000D02*
X42777500Y-24561000D01*
X42777500Y-24561000D02*
X42779500Y-24569000D01*
X42779500Y-24569000D02*
X42780500Y-24577000D01*
X42780500Y-24577000D02*
X42781500Y-24584000D01*
X42781500Y-24584000D02*
X42782500Y-24592000D01*
X42782500Y-24592000D02*
X42782500Y-24600000D01*
X42782500Y-24600000D02*
X42782500Y-24608000D01*
X42782500Y-24608000D02*
X42781500Y-24616000D01*
X42781500Y-24616000D02*
X42780500Y-24623000D01*
X42780500Y-24623000D02*
X42779500Y-24631000D01*
X42779500Y-24631000D02*
X42777500Y-24639000D01*
X42777500Y-24639000D02*
X42775500Y-24646000D01*
X42775500Y-24646000D02*
X42772500Y-24654000D01*
X42772500Y-24654000D02*
X42769500Y-24661000D01*
X42769500Y-24661000D02*
X42766500Y-24668000D01*
X42766500Y-24668000D02*
X42762500Y-24675000D01*
X42762500Y-24675000D02*
X42758500Y-24682000D01*
X42758500Y-24682000D02*
X42753500Y-24688000D01*
X42753500Y-24688000D02*
X42749500Y-24694000D01*
X42749500Y-24694000D02*
X42743500Y-24700000D01*
X42743500Y-24700000D02*
X42738500Y-24706000D01*
X42738500Y-24706000D02*
X42732500Y-24711000D01*
X42732500Y-24711000D02*
X42726500Y-24717000D01*
X42726500Y-24717000D02*
X42720500Y-24721000D01*
X42720500Y-24721000D02*
X42714500Y-24726000D01*
X42714500Y-24726000D02*
X42707500Y-24730000D01*
X42707500Y-24730000D02*
X42700500Y-24734000D01*
X42700500Y-24734000D02*
X42693500Y-24737000D01*
X42693500Y-24737000D02*
X42686500Y-24740000D01*
X42686500Y-24740000D02*
X42678500Y-24743000D01*
X42678500Y-24743000D02*
X42671500Y-24745000D01*
X42671500Y-24745000D02*
X42663500Y-24747000D01*
X42663500Y-24747000D02*
X42655500Y-24748000D01*
X42655500Y-24748000D02*
X42648500Y-24749000D01*
X42648500Y-24749000D02*
X42640500Y-24750000D01*
X42640500Y-24750000D02*
X42632500Y-24750000D01*
X42632500Y-24750000D02*
X41832500Y-24750000D01*
X41832500Y-24750000D02*
X41832500Y-24600000D01*
X41832500Y-24600000D02*
X41832500Y-24450000D01*
X41832500Y-24450000D02*
X41832500Y-24450000D01*
G36*
X42648500Y-24451000D02*
G01*
X42655500Y-24452000D01*
X42663500Y-24453000D01*
X42671500Y-24455000D01*
X42678500Y-24457000D01*
X42686500Y-24460000D01*
X42700500Y-24466000D01*
X42714500Y-24474000D01*
X42720500Y-24479000D01*
X42726500Y-24483000D01*
X42732500Y-24489000D01*
X42738500Y-24494000D01*
X42743500Y-24500000D01*
X42749500Y-24506000D01*
X42753500Y-24512000D01*
X42758500Y-24518000D01*
X42766500Y-24532000D01*
X42772500Y-24546000D01*
X42775500Y-24554000D01*
X42777500Y-24561000D01*
X42779500Y-24569000D01*
X42780500Y-24577000D01*
X42781500Y-24584000D01*
X42782500Y-24592000D01*
X42782500Y-24608000D01*
X42781500Y-24616000D01*
X42780500Y-24623000D01*
X42779500Y-24631000D01*
X42777500Y-24639000D01*
X42775500Y-24646000D01*
X42772500Y-24654000D01*
X42766500Y-24668000D01*
X42758500Y-24682000D01*
X42753500Y-24688000D01*
X42749500Y-24694000D01*
X42743500Y-24700000D01*
X42738500Y-24706000D01*
X42732500Y-24711000D01*
X42726500Y-24717000D01*
X42720500Y-24721000D01*
X42714500Y-24726000D01*
X42700500Y-24734000D01*
X42686500Y-24740000D01*
X42678500Y-24743000D01*
X42671500Y-24745000D01*
X42663500Y-24747000D01*
X42655500Y-24748000D01*
X42648500Y-24749000D01*
X42640500Y-24750000D01*
X41832500Y-24750000D01*
X41832500Y-24450000D01*
X42640500Y-24450000D01*
X42648500Y-24451000D01*
G37*
X42648500Y-24451000D02*
X42655500Y-24452000D01*
X42663500Y-24453000D01*
X42671500Y-24455000D01*
X42678500Y-24457000D01*
X42686500Y-24460000D01*
X42700500Y-24466000D01*
X42714500Y-24474000D01*
X42720500Y-24479000D01*
X42726500Y-24483000D01*
X42732500Y-24489000D01*
X42738500Y-24494000D01*
X42743500Y-24500000D01*
X42749500Y-24506000D01*
X42753500Y-24512000D01*
X42758500Y-24518000D01*
X42766500Y-24532000D01*
X42772500Y-24546000D01*
X42775500Y-24554000D01*
X42777500Y-24561000D01*
X42779500Y-24569000D01*
X42780500Y-24577000D01*
X42781500Y-24584000D01*
X42782500Y-24592000D01*
X42782500Y-24608000D01*
X42781500Y-24616000D01*
X42780500Y-24623000D01*
X42779500Y-24631000D01*
X42777500Y-24639000D01*
X42775500Y-24646000D01*
X42772500Y-24654000D01*
X42766500Y-24668000D01*
X42758500Y-24682000D01*
X42753500Y-24688000D01*
X42749500Y-24694000D01*
X42743500Y-24700000D01*
X42738500Y-24706000D01*
X42732500Y-24711000D01*
X42726500Y-24717000D01*
X42720500Y-24721000D01*
X42714500Y-24726000D01*
X42700500Y-24734000D01*
X42686500Y-24740000D01*
X42678500Y-24743000D01*
X42671500Y-24745000D01*
X42663500Y-24747000D01*
X42655500Y-24748000D01*
X42648500Y-24749000D01*
X42640500Y-24750000D01*
X41832500Y-24750000D01*
X41832500Y-24450000D01*
X42640500Y-24450000D01*
X42648500Y-24451000D01*
X46732500Y-23950000D02*
X45932500Y-23950000D01*
X45932500Y-23950000D02*
X45924500Y-23950000D01*
X45924500Y-23950000D02*
X45916500Y-23949000D01*
X45916500Y-23949000D02*
X45909500Y-23948000D01*
X45909500Y-23948000D02*
X45901500Y-23947000D01*
X45901500Y-23947000D02*
X45893500Y-23945000D01*
X45893500Y-23945000D02*
X45886500Y-23943000D01*
X45886500Y-23943000D02*
X45878500Y-23940000D01*
X45878500Y-23940000D02*
X45871500Y-23937000D01*
X45871500Y-23937000D02*
X45864500Y-23934000D01*
X45864500Y-23934000D02*
X45857500Y-23930000D01*
X45857500Y-23930000D02*
X45850500Y-23926000D01*
X45850500Y-23926000D02*
X45844500Y-23921000D01*
X45844500Y-23921000D02*
X45838500Y-23917000D01*
X45838500Y-23917000D02*
X45832500Y-23911000D01*
X45832500Y-23911000D02*
X45826500Y-23906000D01*
X45826500Y-23906000D02*
X45821500Y-23900000D01*
X45821500Y-23900000D02*
X45815500Y-23894000D01*
X45815500Y-23894000D02*
X45811500Y-23888000D01*
X45811500Y-23888000D02*
X45806500Y-23882000D01*
X45806500Y-23882000D02*
X45802500Y-23875000D01*
X45802500Y-23875000D02*
X45798500Y-23868000D01*
X45798500Y-23868000D02*
X45795500Y-23861000D01*
X45795500Y-23861000D02*
X45792500Y-23854000D01*
X45792500Y-23854000D02*
X45789500Y-23846000D01*
X45789500Y-23846000D02*
X45787500Y-23839000D01*
X45787500Y-23839000D02*
X45785500Y-23831000D01*
X45785500Y-23831000D02*
X45784500Y-23823000D01*
X45784500Y-23823000D02*
X45783500Y-23816000D01*
X45783500Y-23816000D02*
X45782500Y-23808000D01*
X45782500Y-23808000D02*
X45782500Y-23800000D01*
X45782500Y-23800000D02*
X45782500Y-23792000D01*
X45782500Y-23792000D02*
X45783500Y-23784000D01*
X45783500Y-23784000D02*
X45784500Y-23777000D01*
X45784500Y-23777000D02*
X45785500Y-23769000D01*
X45785500Y-23769000D02*
X45787500Y-23761000D01*
X45787500Y-23761000D02*
X45789500Y-23754000D01*
X45789500Y-23754000D02*
X45792500Y-23746000D01*
X45792500Y-23746000D02*
X45795500Y-23739000D01*
X45795500Y-23739000D02*
X45798500Y-23732000D01*
X45798500Y-23732000D02*
X45802500Y-23725000D01*
X45802500Y-23725000D02*
X45806500Y-23718000D01*
X45806500Y-23718000D02*
X45811500Y-23712000D01*
X45811500Y-23712000D02*
X45815500Y-23706000D01*
X45815500Y-23706000D02*
X45821500Y-23700000D01*
X45821500Y-23700000D02*
X45826500Y-23694000D01*
X45826500Y-23694000D02*
X45832500Y-23689000D01*
X45832500Y-23689000D02*
X45838500Y-23683000D01*
X45838500Y-23683000D02*
X45844500Y-23679000D01*
X45844500Y-23679000D02*
X45850500Y-23674000D01*
X45850500Y-23674000D02*
X45857500Y-23670000D01*
X45857500Y-23670000D02*
X45864500Y-23666000D01*
X45864500Y-23666000D02*
X45871500Y-23663000D01*
X45871500Y-23663000D02*
X45878500Y-23660000D01*
X45878500Y-23660000D02*
X45886500Y-23657000D01*
X45886500Y-23657000D02*
X45893500Y-23655000D01*
X45893500Y-23655000D02*
X45901500Y-23653000D01*
X45901500Y-23653000D02*
X45909500Y-23652000D01*
X45909500Y-23652000D02*
X45916500Y-23651000D01*
X45916500Y-23651000D02*
X45924500Y-23650000D01*
X45924500Y-23650000D02*
X45932500Y-23650000D01*
X45932500Y-23650000D02*
X46732500Y-23650000D01*
X46732500Y-23650000D02*
X46732500Y-23800000D01*
X46732500Y-23800000D02*
X46732500Y-23950000D01*
X46732500Y-23950000D02*
X46732500Y-23950000D01*
G36*
X46732500Y-23950000D02*
G01*
X45924500Y-23950000D01*
X45916500Y-23949000D01*
X45909500Y-23948000D01*
X45901500Y-23947000D01*
X45893500Y-23945000D01*
X45886500Y-23943000D01*
X45878500Y-23940000D01*
X45864500Y-23934000D01*
X45850500Y-23926000D01*
X45844500Y-23921000D01*
X45838500Y-23917000D01*
X45832500Y-23911000D01*
X45826500Y-23906000D01*
X45821500Y-23900000D01*
X45815500Y-23894000D01*
X45811500Y-23888000D01*
X45806500Y-23882000D01*
X45798500Y-23868000D01*
X45792500Y-23854000D01*
X45789500Y-23846000D01*
X45787500Y-23839000D01*
X45785500Y-23831000D01*
X45784500Y-23823000D01*
X45783500Y-23816000D01*
X45782500Y-23808000D01*
X45782500Y-23792000D01*
X45783500Y-23784000D01*
X45784500Y-23777000D01*
X45785500Y-23769000D01*
X45787500Y-23761000D01*
X45789500Y-23754000D01*
X45792500Y-23746000D01*
X45798500Y-23732000D01*
X45806500Y-23718000D01*
X45811500Y-23712000D01*
X45815500Y-23706000D01*
X45821500Y-23700000D01*
X45826500Y-23694000D01*
X45832500Y-23689000D01*
X45838500Y-23683000D01*
X45844500Y-23679000D01*
X45850500Y-23674000D01*
X45864500Y-23666000D01*
X45878500Y-23660000D01*
X45886500Y-23657000D01*
X45893500Y-23655000D01*
X45901500Y-23653000D01*
X45909500Y-23652000D01*
X45916500Y-23651000D01*
X45924500Y-23650000D01*
X46732500Y-23650000D01*
X46732500Y-23950000D01*
G37*
X46732500Y-23950000D02*
X45924500Y-23950000D01*
X45916500Y-23949000D01*
X45909500Y-23948000D01*
X45901500Y-23947000D01*
X45893500Y-23945000D01*
X45886500Y-23943000D01*
X45878500Y-23940000D01*
X45864500Y-23934000D01*
X45850500Y-23926000D01*
X45844500Y-23921000D01*
X45838500Y-23917000D01*
X45832500Y-23911000D01*
X45826500Y-23906000D01*
X45821500Y-23900000D01*
X45815500Y-23894000D01*
X45811500Y-23888000D01*
X45806500Y-23882000D01*
X45798500Y-23868000D01*
X45792500Y-23854000D01*
X45789500Y-23846000D01*
X45787500Y-23839000D01*
X45785500Y-23831000D01*
X45784500Y-23823000D01*
X45783500Y-23816000D01*
X45782500Y-23808000D01*
X45782500Y-23792000D01*
X45783500Y-23784000D01*
X45784500Y-23777000D01*
X45785500Y-23769000D01*
X45787500Y-23761000D01*
X45789500Y-23754000D01*
X45792500Y-23746000D01*
X45798500Y-23732000D01*
X45806500Y-23718000D01*
X45811500Y-23712000D01*
X45815500Y-23706000D01*
X45821500Y-23700000D01*
X45826500Y-23694000D01*
X45832500Y-23689000D01*
X45838500Y-23683000D01*
X45844500Y-23679000D01*
X45850500Y-23674000D01*
X45864500Y-23666000D01*
X45878500Y-23660000D01*
X45886500Y-23657000D01*
X45893500Y-23655000D01*
X45901500Y-23653000D01*
X45909500Y-23652000D01*
X45916500Y-23651000D01*
X45924500Y-23650000D01*
X46732500Y-23650000D01*
X46732500Y-23950000D01*
X41832500Y-23250000D02*
X42632500Y-23250000D01*
X42632500Y-23250000D02*
X42640500Y-23250000D01*
X42640500Y-23250000D02*
X42648500Y-23251000D01*
X42648500Y-23251000D02*
X42655500Y-23252000D01*
X42655500Y-23252000D02*
X42663500Y-23253000D01*
X42663500Y-23253000D02*
X42671500Y-23255000D01*
X42671500Y-23255000D02*
X42678500Y-23257000D01*
X42678500Y-23257000D02*
X42686500Y-23260000D01*
X42686500Y-23260000D02*
X42693500Y-23263000D01*
X42693500Y-23263000D02*
X42700500Y-23266000D01*
X42700500Y-23266000D02*
X42707500Y-23270000D01*
X42707500Y-23270000D02*
X42714500Y-23274000D01*
X42714500Y-23274000D02*
X42720500Y-23279000D01*
X42720500Y-23279000D02*
X42726500Y-23283000D01*
X42726500Y-23283000D02*
X42732500Y-23289000D01*
X42732500Y-23289000D02*
X42738500Y-23294000D01*
X42738500Y-23294000D02*
X42743500Y-23300000D01*
X42743500Y-23300000D02*
X42749500Y-23306000D01*
X42749500Y-23306000D02*
X42753500Y-23312000D01*
X42753500Y-23312000D02*
X42758500Y-23318000D01*
X42758500Y-23318000D02*
X42762500Y-23325000D01*
X42762500Y-23325000D02*
X42766500Y-23332000D01*
X42766500Y-23332000D02*
X42769500Y-23339000D01*
X42769500Y-23339000D02*
X42772500Y-23346000D01*
X42772500Y-23346000D02*
X42775500Y-23354000D01*
X42775500Y-23354000D02*
X42777500Y-23361000D01*
X42777500Y-23361000D02*
X42779500Y-23369000D01*
X42779500Y-23369000D02*
X42780500Y-23377000D01*
X42780500Y-23377000D02*
X42781500Y-23384000D01*
X42781500Y-23384000D02*
X42782500Y-23392000D01*
X42782500Y-23392000D02*
X42782500Y-23400000D01*
X42782500Y-23400000D02*
X42782500Y-23408000D01*
X42782500Y-23408000D02*
X42781500Y-23416000D01*
X42781500Y-23416000D02*
X42780500Y-23423000D01*
X42780500Y-23423000D02*
X42779500Y-23431000D01*
X42779500Y-23431000D02*
X42777500Y-23439000D01*
X42777500Y-23439000D02*
X42775500Y-23446000D01*
X42775500Y-23446000D02*
X42772500Y-23454000D01*
X42772500Y-23454000D02*
X42769500Y-23461000D01*
X42769500Y-23461000D02*
X42766500Y-23468000D01*
X42766500Y-23468000D02*
X42762500Y-23475000D01*
X42762500Y-23475000D02*
X42758500Y-23482000D01*
X42758500Y-23482000D02*
X42753500Y-23488000D01*
X42753500Y-23488000D02*
X42749500Y-23494000D01*
X42749500Y-23494000D02*
X42743500Y-23500000D01*
X42743500Y-23500000D02*
X42738500Y-23506000D01*
X42738500Y-23506000D02*
X42732500Y-23511000D01*
X42732500Y-23511000D02*
X42726500Y-23517000D01*
X42726500Y-23517000D02*
X42720500Y-23521000D01*
X42720500Y-23521000D02*
X42714500Y-23526000D01*
X42714500Y-23526000D02*
X42707500Y-23530000D01*
X42707500Y-23530000D02*
X42700500Y-23534000D01*
X42700500Y-23534000D02*
X42693500Y-23537000D01*
X42693500Y-23537000D02*
X42686500Y-23540000D01*
X42686500Y-23540000D02*
X42678500Y-23543000D01*
X42678500Y-23543000D02*
X42671500Y-23545000D01*
X42671500Y-23545000D02*
X42663500Y-23547000D01*
X42663500Y-23547000D02*
X42655500Y-23548000D01*
X42655500Y-23548000D02*
X42648500Y-23549000D01*
X42648500Y-23549000D02*
X42640500Y-23550000D01*
X42640500Y-23550000D02*
X42632500Y-23550000D01*
X42632500Y-23550000D02*
X41832500Y-23550000D01*
X41832500Y-23550000D02*
X41832500Y-23400000D01*
X41832500Y-23400000D02*
X41832500Y-23250000D01*
X41832500Y-23250000D02*
X41832500Y-23250000D01*
G36*
X42648500Y-23251000D02*
G01*
X42655500Y-23252000D01*
X42663500Y-23253000D01*
X42671500Y-23255000D01*
X42678500Y-23257000D01*
X42686500Y-23260000D01*
X42700500Y-23266000D01*
X42714500Y-23274000D01*
X42720500Y-23279000D01*
X42726500Y-23283000D01*
X42732500Y-23289000D01*
X42738500Y-23294000D01*
X42743500Y-23300000D01*
X42749500Y-23306000D01*
X42753500Y-23312000D01*
X42758500Y-23318000D01*
X42766500Y-23332000D01*
X42772500Y-23346000D01*
X42775500Y-23354000D01*
X42777500Y-23361000D01*
X42779500Y-23369000D01*
X42780500Y-23377000D01*
X42781500Y-23384000D01*
X42782500Y-23392000D01*
X42782500Y-23408000D01*
X42781500Y-23416000D01*
X42780500Y-23423000D01*
X42779500Y-23431000D01*
X42777500Y-23439000D01*
X42775500Y-23446000D01*
X42772500Y-23454000D01*
X42766500Y-23468000D01*
X42758500Y-23482000D01*
X42753500Y-23488000D01*
X42749500Y-23494000D01*
X42743500Y-23500000D01*
X42738500Y-23506000D01*
X42732500Y-23511000D01*
X42726500Y-23517000D01*
X42720500Y-23521000D01*
X42714500Y-23526000D01*
X42700500Y-23534000D01*
X42686500Y-23540000D01*
X42678500Y-23543000D01*
X42671500Y-23545000D01*
X42663500Y-23547000D01*
X42655500Y-23548000D01*
X42648500Y-23549000D01*
X42640500Y-23550000D01*
X41832500Y-23550000D01*
X41832500Y-23250000D01*
X42640500Y-23250000D01*
X42648500Y-23251000D01*
G37*
X42648500Y-23251000D02*
X42655500Y-23252000D01*
X42663500Y-23253000D01*
X42671500Y-23255000D01*
X42678500Y-23257000D01*
X42686500Y-23260000D01*
X42700500Y-23266000D01*
X42714500Y-23274000D01*
X42720500Y-23279000D01*
X42726500Y-23283000D01*
X42732500Y-23289000D01*
X42738500Y-23294000D01*
X42743500Y-23300000D01*
X42749500Y-23306000D01*
X42753500Y-23312000D01*
X42758500Y-23318000D01*
X42766500Y-23332000D01*
X42772500Y-23346000D01*
X42775500Y-23354000D01*
X42777500Y-23361000D01*
X42779500Y-23369000D01*
X42780500Y-23377000D01*
X42781500Y-23384000D01*
X42782500Y-23392000D01*
X42782500Y-23408000D01*
X42781500Y-23416000D01*
X42780500Y-23423000D01*
X42779500Y-23431000D01*
X42777500Y-23439000D01*
X42775500Y-23446000D01*
X42772500Y-23454000D01*
X42766500Y-23468000D01*
X42758500Y-23482000D01*
X42753500Y-23488000D01*
X42749500Y-23494000D01*
X42743500Y-23500000D01*
X42738500Y-23506000D01*
X42732500Y-23511000D01*
X42726500Y-23517000D01*
X42720500Y-23521000D01*
X42714500Y-23526000D01*
X42700500Y-23534000D01*
X42686500Y-23540000D01*
X42678500Y-23543000D01*
X42671500Y-23545000D01*
X42663500Y-23547000D01*
X42655500Y-23548000D01*
X42648500Y-23549000D01*
X42640500Y-23550000D01*
X41832500Y-23550000D01*
X41832500Y-23250000D01*
X42640500Y-23250000D01*
X42648500Y-23251000D01*
D11*
X23800000Y-22000000D03*
X25200000Y-22000000D03*
D12*
X50147000Y-26610000D03*
X50147000Y-32390000D03*
D13*
X49072000Y-32850000D03*
X49072000Y-32050000D03*
X49072000Y-30750000D03*
X49072000Y-29750000D03*
X49072000Y-29250000D03*
X49072000Y-28250000D03*
X49072000Y-26950000D03*
X49072000Y-26150000D03*
X49072000Y-26450000D03*
X49072000Y-27250000D03*
X49072000Y-27750000D03*
X49072000Y-28750000D03*
X49072000Y-30250000D03*
X49072000Y-31250000D03*
X49072000Y-31750000D03*
X49072000Y-32550000D03*
D14*
X53577000Y-34610000D03*
X53577000Y-24390000D03*
X49647000Y-34610000D03*
X49647000Y-24390000D03*
D15*
X46010000Y-28500000D03*
X44990000Y-28500000D03*
D16*
X46015000Y-35500000D03*
X46985000Y-35500000D03*
D15*
X35310000Y-24200000D03*
X34290000Y-24200000D03*
D17*
X45182500Y-24900000D03*
X44282500Y-24900000D03*
X43382500Y-24900000D03*
X45182500Y-23900000D03*
X44282500Y-23900000D03*
X43382500Y-23900000D03*
D18*
X42400000Y-21780000D03*
X42400000Y-20820000D03*
D19*
X25250000Y-19520000D03*
X25250000Y-20480000D03*
D20*
X41200000Y-29520000D03*
X41200000Y-28500000D03*
D21*
X27550000Y-17250000D03*
D22*
X25010000Y-17250000D03*
X22470000Y-17250000D03*
X19930000Y-17250000D03*
D23*
X32500000Y-41690000D03*
X32500000Y-42710000D03*
D20*
X51500000Y-39010000D03*
X51500000Y-37990000D03*
D24*
X20490000Y-22000000D03*
X21510000Y-22000000D03*
D15*
X37410000Y-24200000D03*
X36390000Y-24200000D03*
D25*
X41180000Y-38000000D03*
X40220000Y-38000000D03*
D26*
X36875000Y-27100000D03*
X35325000Y-27100000D03*
D15*
X40010000Y-26500000D03*
X38990000Y-26500000D03*
D16*
X42115000Y-37000000D03*
X43085000Y-37000000D03*
D27*
X46000000Y-19000000D03*
X46000000Y-17200000D03*
D28*
X47800000Y-17450000D03*
X44200000Y-17450000D03*
X47800000Y-18750000D03*
X44200000Y-18750000D03*
D20*
X39000000Y-29520000D03*
X39000000Y-28500000D03*
D25*
X46980000Y-34500000D03*
X46020000Y-34500000D03*
D20*
X43500000Y-21810000D03*
X43500000Y-20790000D03*
D29*
X43150000Y-42662500D03*
D30*
X43287500Y-41750000D03*
X43287500Y-41250000D03*
X43287500Y-40750000D03*
X43287500Y-40250000D03*
D29*
X43150000Y-39337500D03*
X42650000Y-39337500D03*
X42150000Y-39337500D03*
X41650000Y-39337500D03*
X41150000Y-39337500D03*
X40650000Y-39337500D03*
X40150000Y-39337500D03*
X39650000Y-39337500D03*
X39150000Y-39337500D03*
X38650000Y-39337500D03*
D30*
X38512500Y-40250000D03*
X38512500Y-40750000D03*
X38512500Y-41250000D03*
X38512500Y-41750000D03*
D29*
X38650000Y-42662500D03*
X39150000Y-42662500D03*
X39650000Y-42662500D03*
X40150000Y-42662500D03*
X40650000Y-42662500D03*
X41150000Y-42662500D03*
X41650000Y-42662500D03*
X42150000Y-42662500D03*
X42650000Y-42662500D03*
D19*
X47700000Y-22720000D03*
X47700000Y-23680000D03*
D31*
X48500000Y-37725000D03*
X48500000Y-39275000D03*
D32*
X40450000Y-31550000D03*
X39500000Y-31550000D03*
X38550000Y-31550000D03*
X38550000Y-34050000D03*
X40450000Y-34050000D03*
D33*
X42000000Y-34175000D03*
X42000000Y-32625000D03*
D31*
X40200000Y-21125000D03*
X40200000Y-22675000D03*
D34*
X46020000Y-36500000D03*
X46980000Y-36500000D03*
D20*
X34400000Y-29910000D03*
X34400000Y-28890000D03*
D23*
X27500000Y-19490000D03*
X27500000Y-20510000D03*
D35*
X38137500Y-23050000D03*
X38137500Y-21150000D03*
X36262500Y-22100000D03*
X33637500Y-21050000D03*
X33637500Y-19150000D03*
X31762500Y-20100000D03*
D36*
X17750000Y-19000000D03*
X17750000Y-20400000D03*
X20250000Y-20400000D03*
X20250000Y-19000000D03*
D35*
X38137500Y-19950000D03*
X38137500Y-18050000D03*
X36262500Y-19000000D03*
D33*
X27400000Y-25875000D03*
X27400000Y-24325000D03*
D23*
X44600000Y-20790000D03*
X44600000Y-21810000D03*
D24*
X18490000Y-22000000D03*
X19510000Y-22000000D03*
D25*
X34480000Y-33500000D03*
X33520000Y-33500000D03*
D37*
X32000000Y-28437500D03*
X32000000Y-30562500D03*
D38*
X50000000Y-37675000D03*
X50000000Y-39325000D03*
D39*
X30000000Y-30550000D03*
X30000000Y-28650000D03*
D23*
X34500000Y-41690000D03*
X34500000Y-42710000D03*
D33*
X48500000Y-21775000D03*
X48500000Y-20225000D03*
D25*
X43080000Y-35900000D03*
X42120000Y-35900000D03*
D40*
X29850000Y-35095000D03*
X29850000Y-36365000D03*
X29850000Y-37635000D03*
X29850000Y-38905000D03*
X35550000Y-38905000D03*
X35550000Y-37635000D03*
X35550000Y-36365000D03*
X35550000Y-35095000D03*
D41*
X32700000Y-37000000D03*
D42*
X36700000Y-28562000D03*
X36200000Y-28562000D03*
X35700000Y-28562000D03*
X35700000Y-30238000D03*
X36200000Y-30238000D03*
X36700000Y-30238000D03*
D20*
X36000000Y-32810000D03*
X36000000Y-31790000D03*
D34*
X42120000Y-38000000D03*
X43080000Y-38000000D03*
D25*
X41180000Y-37000000D03*
X40220000Y-37000000D03*
D24*
X46290000Y-21300000D03*
X47310000Y-21300000D03*
D43*
X52301562Y-21101562D03*
D44*
X50505511Y-19305511D03*
D23*
X34000000Y-31290000D03*
X34000000Y-32310000D03*
D15*
X46010000Y-29500000D03*
X44990000Y-29500000D03*
D20*
X40100000Y-29520000D03*
X40100000Y-28500000D03*
D45*
X25650000Y-35250000D03*
X25650000Y-34150000D03*
X25650000Y-33350000D03*
X25650000Y-31750000D03*
X24750000Y-31350000D03*
X25650000Y-30950000D03*
X24750000Y-30550000D03*
X25650000Y-30150000D03*
X24750000Y-29750000D03*
X25650000Y-29350000D03*
X24750000Y-28950000D03*
X25650000Y-28550000D03*
X24750000Y-28150000D03*
X25650000Y-27750000D03*
D46*
X25800000Y-24350000D03*
X25000000Y-24350000D03*
X24200000Y-24350000D03*
X23400000Y-24350000D03*
X23000000Y-25250000D03*
X22600000Y-24350000D03*
X22200000Y-25250000D03*
X21800000Y-24350000D03*
X21400000Y-25250000D03*
X21000000Y-24350000D03*
X20600000Y-25250000D03*
X20200000Y-24350000D03*
X19800000Y-25250000D03*
X19400000Y-24350000D03*
X19000000Y-25250000D03*
X18600000Y-24350000D03*
X17800000Y-24350000D03*
X17000000Y-24350000D03*
X16200000Y-24350000D03*
D45*
X16350000Y-25350000D03*
X16350000Y-26150000D03*
X17250000Y-26550000D03*
X16350000Y-26950000D03*
X17250000Y-27350000D03*
X16350000Y-27750000D03*
X17250000Y-28150000D03*
X16350000Y-28550000D03*
X17250000Y-28950000D03*
X17250000Y-29750000D03*
X16350000Y-30150000D03*
X17250000Y-30550000D03*
X16350000Y-30950000D03*
X17250000Y-31350000D03*
X16350000Y-31750000D03*
X17250000Y-32150000D03*
X17250000Y-32950000D03*
X16350000Y-33350000D03*
X17250000Y-33750000D03*
X16350000Y-34150000D03*
X17250000Y-34550000D03*
X16350000Y-35250000D03*
D46*
X23000000Y-30950000D03*
X22200000Y-30950000D03*
X21400000Y-30950000D03*
X20600000Y-30950000D03*
X19800000Y-30950000D03*
X19000000Y-30950000D03*
D23*
X33500000Y-41690000D03*
X33500000Y-42710000D03*
D47*
X52500000Y-38985000D03*
X52500000Y-38015000D03*
D18*
X23750000Y-20480000D03*
X23750000Y-19520000D03*
D20*
X40200000Y-19310000D03*
X40200000Y-18290000D03*
D48*
X46250000Y-32950000D03*
X46250000Y-32000000D03*
X46250000Y-31050000D03*
X43750000Y-31050000D03*
X43750000Y-32950000D03*
D20*
X37000000Y-32810000D03*
X37000000Y-31790000D03*
M02*
