G04 #@! TF.GenerationSoftware,KiCad,Pcbnew,(6.0.0)*
G04 #@! TF.CreationDate,2022-10-31T23:33:13+09:00*
G04 #@! TF.ProjectId,culturit_tx,63756c74-7572-4697-945f-74782e6b6963,rev?*
G04 #@! TF.SameCoordinates,Original*
G04 #@! TF.FileFunction,Copper,L2,Inr*
G04 #@! TF.FilePolarity,Positive*
%FSLAX46Y46*%
G04 Gerber Fmt 4.6, Leading zero omitted, Abs format (unit mm)*
G04 Created by KiCad (PCBNEW (6.0.0)) date 2022-10-31 23:33:13*
%MOMM*%
%LPD*%
G01*
G04 APERTURE LIST*
G04 Aperture macros list*
%AMHorizOval*
0 Thick line with rounded ends*
0 $1 width*
0 $2 $3 position (X,Y) of the first rounded end (center of the circle)*
0 $4 $5 position (X,Y) of the second rounded end (center of the circle)*
0 Add line between two ends*
20,1,$1,$2,$3,$4,$5,0*
0 Add two circle primitives to create the rounded ends*
1,1,$1,$2,$3*
1,1,$1,$4,$5*%
%AMRotRect*
0 Rectangle, with rotation*
0 The origin of the aperture is its center*
0 $1 length*
0 $2 width*
0 $3 Rotation angle, in degrees counterclockwise*
0 Add horizontal line*
21,1,$1,$2,0,0,$3*%
G04 Aperture macros list end*
G04 #@! TA.AperFunction,ComponentPad*
%ADD10C,0.500000*%
G04 #@! TD*
G04 #@! TA.AperFunction,ComponentPad*
%ADD11R,1.700000X1.700000*%
G04 #@! TD*
G04 #@! TA.AperFunction,ComponentPad*
%ADD12O,1.700000X1.700000*%
G04 #@! TD*
G04 #@! TA.AperFunction,ComponentPad*
%ADD13RotRect,1.700000X1.700000X45.000000*%
G04 #@! TD*
G04 #@! TA.AperFunction,ComponentPad*
%ADD14HorizOval,1.700000X0.000000X0.000000X0.000000X0.000000X0*%
G04 #@! TD*
G04 #@! TA.AperFunction,ViaPad*
%ADD15C,0.400000*%
G04 #@! TD*
G04 #@! TA.AperFunction,ViaPad*
%ADD16C,0.600000*%
G04 #@! TD*
G04 #@! TA.AperFunction,Conductor*
%ADD17C,0.127000*%
G04 #@! TD*
G04 #@! TA.AperFunction,Conductor*
%ADD18C,0.200000*%
G04 #@! TD*
G04 APERTURE END LIST*
D10*
X45182500Y-24900000D03*
X44282500Y-24900000D03*
X43382500Y-24900000D03*
X45182500Y-23900000D03*
X44282500Y-23900000D03*
X43382500Y-23900000D03*
D11*
X27550000Y-17250000D03*
D12*
X25010000Y-17250000D03*
X22470000Y-17250000D03*
X19930000Y-17250000D03*
D13*
X52301562Y-21101562D03*
D14*
X50505511Y-19305511D03*
D15*
X32010000Y-32300000D03*
X44150000Y-41750000D03*
X19190000Y-29970000D03*
X17220000Y-35250000D03*
X35740000Y-38320000D03*
X41190000Y-26300000D03*
X38210000Y-27480000D03*
X40847316Y-25233948D03*
X47000000Y-39250000D03*
X49000000Y-43000000D03*
X42550000Y-40750000D03*
X51000000Y-36500000D03*
X46950000Y-37500000D03*
X43150000Y-38800000D03*
X52750000Y-40250000D03*
X36250000Y-43500000D03*
X17950000Y-34550000D03*
X49250000Y-17500000D03*
X52500000Y-19000000D03*
X53750000Y-22500000D03*
X37550000Y-42100000D03*
X43900000Y-34500000D03*
X39200000Y-41450000D03*
X31900000Y-42900000D03*
X38000000Y-42550000D03*
X33500000Y-40220000D03*
X39500000Y-20000000D03*
X17490000Y-25250000D03*
X53750000Y-36500000D03*
X42250000Y-43500000D03*
X41400000Y-21500000D03*
X17750000Y-22500000D03*
X32500000Y-43500000D03*
X40000000Y-17250000D03*
X26750000Y-27250000D03*
X30000000Y-42250000D03*
X23500000Y-31750000D03*
X19000000Y-21250000D03*
X21500000Y-21250000D03*
X21500000Y-16250000D03*
X41750000Y-17250000D03*
X36300000Y-23000000D03*
X28775000Y-18475000D03*
X35500000Y-40250000D03*
X19000000Y-19750000D03*
X23750000Y-27500000D03*
X22250000Y-28000000D03*
X41297011Y-23795087D03*
X27500000Y-35250000D03*
X19250000Y-35250000D03*
X23250000Y-35250000D03*
X36800000Y-25900000D03*
X42100000Y-22700000D03*
X20750000Y-26000000D03*
D16*
X46300000Y-20600000D03*
D15*
X16250000Y-22500000D03*
X26250000Y-16250000D03*
X28500000Y-38750000D03*
X28750000Y-43250000D03*
X18000000Y-18000000D03*
X34250000Y-17500000D03*
X19340000Y-25950000D03*
D16*
X41400000Y-20600000D03*
D15*
X32250000Y-21250000D03*
X25500000Y-27000000D03*
X36500000Y-18000000D03*
X16500000Y-20500000D03*
X20750000Y-30250000D03*
X47750000Y-27750000D03*
X26750000Y-35250000D03*
X24250000Y-35250000D03*
X20750000Y-27500000D03*
X18000000Y-35250000D03*
X21250000Y-35250000D03*
X23500000Y-30250000D03*
X23750000Y-16250000D03*
X44250000Y-19750000D03*
X21500000Y-18250000D03*
X47500000Y-40750000D03*
X45250000Y-36250000D03*
X45500000Y-27750000D03*
X21250000Y-31750000D03*
X30500000Y-21250000D03*
X40250000Y-24250000D03*
X42580000Y-27840000D03*
X42500000Y-19500000D03*
X24250000Y-26500000D03*
X42000000Y-31750000D03*
X35250000Y-32750000D03*
X42750000Y-31500000D03*
X33000000Y-24250000D03*
X18240000Y-25090000D03*
X27680000Y-22840000D03*
X39650000Y-25620000D03*
X22050000Y-23370000D03*
X39940000Y-27250000D03*
X26420000Y-24350000D03*
X44038581Y-27391360D03*
X37000000Y-34000000D03*
X28240000Y-21250000D03*
X44050000Y-21810000D03*
X40240000Y-25600000D03*
X34500000Y-22500000D03*
X25800000Y-23480000D03*
X33920000Y-26700000D03*
X44500000Y-32000000D03*
X28750000Y-23500000D03*
X31750000Y-33250000D03*
X51500000Y-40250000D03*
X30750000Y-24000000D03*
X42500000Y-30000000D03*
X39500000Y-33750000D03*
X26500000Y-21500000D03*
X28750000Y-24250000D03*
X34410000Y-23300000D03*
X28240000Y-27520000D03*
X44250000Y-38000000D03*
X33000000Y-23500000D03*
X31900000Y-42300000D03*
X41210000Y-30110000D03*
X19000000Y-23750000D03*
X33700000Y-28270000D03*
X26500000Y-25750000D03*
X31400000Y-41150000D03*
X37700000Y-40200000D03*
X33320000Y-30550000D03*
X35700000Y-28100000D03*
X48700000Y-22700000D03*
X26940000Y-30150000D03*
X19000000Y-33850000D03*
X31400000Y-41750000D03*
X39250000Y-35250000D03*
X25010000Y-35250000D03*
X26990000Y-31220000D03*
X19450000Y-33450000D03*
X18448192Y-32368209D03*
X37171115Y-43260557D03*
X21720000Y-27000000D03*
X39400000Y-38000000D03*
X39650000Y-40900000D03*
X38700000Y-38500000D03*
X18750000Y-19000000D03*
X16350000Y-34690000D03*
X26940000Y-31810000D03*
X41250000Y-35500000D03*
X47800000Y-24500000D03*
X35310000Y-41690000D03*
X16350000Y-32540000D03*
X19200000Y-28790000D03*
X18000000Y-30050000D03*
X35400000Y-37040000D03*
X18400000Y-34100000D03*
X18000000Y-29400000D03*
X41100000Y-41400000D03*
X19195072Y-29381016D03*
X37850000Y-43150000D03*
X28164263Y-32299701D03*
X33220000Y-31300000D03*
X34790000Y-35750000D03*
X36250000Y-41600000D03*
X17950000Y-27350000D03*
X22830000Y-26840000D03*
X43080000Y-34580000D03*
X37510000Y-30740000D03*
X37500000Y-36750000D03*
X45500000Y-34500000D03*
X36750000Y-35000000D03*
X47026781Y-29326070D03*
D16*
X43500000Y-32200000D03*
D15*
X17480000Y-25900000D03*
X52500000Y-37200000D03*
X44420541Y-29325000D03*
X16320000Y-23120000D03*
X38750000Y-36000000D03*
X44420541Y-28675000D03*
X47100000Y-31100000D03*
X47900000Y-33300000D03*
X45400000Y-32000000D03*
X47900000Y-28800000D03*
X17440000Y-23230000D03*
X37500000Y-38250000D03*
X44890000Y-35080000D03*
X44250000Y-40750000D03*
D17*
X21490000Y-27560000D02*
X23040000Y-27560000D01*
X20340000Y-26950000D02*
X20880000Y-26950000D01*
X19340000Y-25950000D02*
X20340000Y-26950000D01*
X24480000Y-27030000D02*
X25050000Y-26460000D01*
X23040000Y-27560000D02*
X23570000Y-27030000D01*
X34990000Y-26530000D02*
X39920000Y-26530000D01*
X25050000Y-26460000D02*
X33390000Y-26460000D01*
X23570000Y-27030000D02*
X24480000Y-27030000D01*
X33390000Y-26460000D02*
X33600000Y-26250000D01*
X20880000Y-26950000D02*
X21490000Y-27560000D01*
X40150000Y-26300000D02*
X41190000Y-26300000D01*
X33600000Y-26250000D02*
X34710000Y-26250000D01*
X34710000Y-26250000D02*
X34990000Y-26530000D01*
X39920000Y-26530000D02*
X40150000Y-26300000D01*
X22830000Y-26840000D02*
X25220000Y-24450000D01*
X27680000Y-22050000D02*
X43810000Y-22050000D01*
X25600000Y-24450000D02*
X26920000Y-23130000D01*
X26920000Y-22810000D02*
X27680000Y-22050000D01*
X43810000Y-22050000D02*
X44050000Y-21810000D01*
X26920000Y-23130000D02*
X26920000Y-22810000D01*
X25220000Y-24450000D02*
X25600000Y-24450000D01*
D18*
X21006801Y-29225001D02*
X44320542Y-29225001D01*
X17709657Y-25927857D02*
X21006801Y-29225001D01*
X17507857Y-25927857D02*
X17709657Y-25927857D01*
X44320542Y-29225001D02*
X44420541Y-29325000D01*
X17480000Y-25900000D02*
X17507857Y-25927857D01*
X17896055Y-25477855D02*
X21193199Y-28774999D01*
X17490000Y-25250000D02*
X17717855Y-25477855D01*
X21193199Y-28774999D02*
X44320542Y-28774999D01*
X44320542Y-28774999D02*
X44420541Y-28675000D01*
X17717855Y-25477855D02*
X17896055Y-25477855D01*
G04 #@! TA.AperFunction,Conductor*
G36*
X28789721Y-15522402D02*
G01*
X28836214Y-15576058D01*
X28847600Y-15628400D01*
X28847600Y-17613351D01*
X28846518Y-17621569D01*
X28846518Y-17633976D01*
X28842224Y-17650001D01*
X28847600Y-17670064D01*
X28863362Y-17728889D01*
X28921112Y-17786639D01*
X28937132Y-17790932D01*
X28937133Y-17790932D01*
X28983977Y-17803484D01*
X28983978Y-17803484D01*
X29000000Y-17807777D01*
X29016024Y-17803483D01*
X29028432Y-17803483D01*
X29036650Y-17802401D01*
X33463350Y-17802401D01*
X33471568Y-17803483D01*
X33483975Y-17803483D01*
X33500000Y-17807777D01*
X33516025Y-17803483D01*
X33516026Y-17803483D01*
X33520064Y-17802401D01*
X33544296Y-17795908D01*
X33562866Y-17790932D01*
X33578888Y-17786639D01*
X33636638Y-17728889D01*
X33652400Y-17670064D01*
X33657776Y-17650001D01*
X33653482Y-17633976D01*
X33653482Y-17621569D01*
X33652400Y-17613351D01*
X33652400Y-16928401D01*
X33672402Y-16860280D01*
X33726058Y-16813787D01*
X33778400Y-16802401D01*
X45375336Y-16802401D01*
X45443457Y-16822403D01*
X45489950Y-16876059D01*
X45500054Y-16946333D01*
X45493887Y-16971082D01*
X45466066Y-17048358D01*
X45453307Y-17083797D01*
X45452679Y-17092354D01*
X45452678Y-17092357D01*
X45446722Y-17173470D01*
X45442197Y-17235094D01*
X45472182Y-17383806D01*
X45476081Y-17391458D01*
X45537156Y-17511324D01*
X45537158Y-17511327D01*
X45541055Y-17518975D01*
X45546868Y-17525297D01*
X45546869Y-17525298D01*
X45563065Y-17542911D01*
X45643740Y-17630644D01*
X45651043Y-17635172D01*
X45651044Y-17635173D01*
X45707314Y-17670062D01*
X45772672Y-17710586D01*
X45780919Y-17712982D01*
X45912015Y-17751069D01*
X45912018Y-17751070D01*
X45918353Y-17752910D01*
X45925794Y-17753456D01*
X45926805Y-17753531D01*
X45926813Y-17753531D01*
X45929110Y-17753700D01*
X46038004Y-17753700D01*
X46042249Y-17753118D01*
X46042256Y-17753118D01*
X46103309Y-17744754D01*
X46150301Y-17738317D01*
X46208847Y-17712982D01*
X46281644Y-17681480D01*
X46281646Y-17681479D01*
X46289528Y-17678068D01*
X46407425Y-17582597D01*
X46412401Y-17575595D01*
X46412403Y-17575593D01*
X46490329Y-17465940D01*
X46490330Y-17465938D01*
X46495304Y-17458939D01*
X46502418Y-17439181D01*
X46543785Y-17324279D01*
X46546693Y-17316203D01*
X46551555Y-17250000D01*
X46557174Y-17173470D01*
X46557803Y-17164906D01*
X46527818Y-17016194D01*
X46512232Y-16985605D01*
X46499127Y-16915829D01*
X46525826Y-16850044D01*
X46583853Y-16809137D01*
X46624498Y-16802401D01*
X51199795Y-16802401D01*
X51267916Y-16822403D01*
X51275219Y-16827469D01*
X51610757Y-17078208D01*
X51617770Y-17083850D01*
X51838278Y-17274614D01*
X51886352Y-17316203D01*
X51997106Y-17412018D01*
X52003694Y-17418142D01*
X52358652Y-17772573D01*
X52364770Y-17779136D01*
X52612915Y-18065110D01*
X52693499Y-18157979D01*
X52699152Y-18164983D01*
X53000017Y-18566354D01*
X53005141Y-18573725D01*
X53276573Y-18995533D01*
X53281167Y-19003265D01*
X53484628Y-19375398D01*
X53521794Y-19443375D01*
X53525826Y-19451420D01*
X53719175Y-19874248D01*
X53734417Y-19907581D01*
X53737863Y-19915891D01*
X53772934Y-20009793D01*
X53913356Y-20385776D01*
X53916202Y-20394315D01*
X53957935Y-20536240D01*
X54056560Y-20871642D01*
X54057703Y-20875530D01*
X54059930Y-20884242D01*
X54094283Y-21041903D01*
X54166717Y-21374339D01*
X54168318Y-21383197D01*
X54178614Y-21454661D01*
X54235729Y-21851096D01*
X54235873Y-21852097D01*
X54236437Y-21856581D01*
X54237669Y-21868026D01*
X54235095Y-21884267D01*
X54235174Y-21884472D01*
X54235140Y-21884690D01*
X54241112Y-21900125D01*
X54242722Y-21915350D01*
X54243937Y-21920495D01*
X54380093Y-23353456D01*
X54380305Y-23355948D01*
X54427637Y-23986867D01*
X54483988Y-24738003D01*
X54490661Y-24826957D01*
X54490821Y-24829426D01*
X54571867Y-26300763D01*
X54571952Y-26302314D01*
X54572063Y-26304773D01*
X54599799Y-27093008D01*
X54623939Y-27779042D01*
X54624002Y-27781543D01*
X54646600Y-29256458D01*
X54646614Y-29258959D01*
X54643029Y-30050000D01*
X54640278Y-30657128D01*
X54639929Y-30734084D01*
X54639893Y-30736556D01*
X54623453Y-31410598D01*
X54603923Y-32211286D01*
X54603837Y-32213786D01*
X54538600Y-33687484D01*
X54538464Y-33689982D01*
X54443987Y-35162046D01*
X54443802Y-35164541D01*
X54323079Y-36599274D01*
X54321832Y-36604858D01*
X54320438Y-36619664D01*
X54314662Y-36635212D01*
X54317434Y-36651565D01*
X54316092Y-36665814D01*
X54316301Y-36672092D01*
X54285159Y-36977607D01*
X54244194Y-37379482D01*
X54242606Y-37386106D01*
X54241125Y-37399843D01*
X54235140Y-37415312D01*
X54237691Y-37431700D01*
X54236312Y-37444491D01*
X54235766Y-37448843D01*
X54170529Y-37904507D01*
X54168983Y-37913149D01*
X54066097Y-38391422D01*
X54063953Y-38399935D01*
X53928013Y-38869889D01*
X53925281Y-38878232D01*
X53756949Y-39337571D01*
X53753643Y-39345703D01*
X53553740Y-39792201D01*
X53549876Y-39800084D01*
X53319361Y-40231589D01*
X53314957Y-40239184D01*
X53054955Y-40653591D01*
X53050033Y-40660860D01*
X52761812Y-41056149D01*
X52756396Y-41063058D01*
X52441347Y-41437324D01*
X52435463Y-41443839D01*
X52325744Y-41557128D01*
X52098843Y-41791413D01*
X52095117Y-41795260D01*
X52088800Y-41801343D01*
X51745269Y-42109840D01*
X51724813Y-42128210D01*
X51718084Y-42133842D01*
X51701447Y-42146809D01*
X51332210Y-42434579D01*
X51325102Y-42439731D01*
X50919236Y-42712861D01*
X50911786Y-42717506D01*
X50487876Y-42961718D01*
X50480121Y-42965832D01*
X50040258Y-43179922D01*
X50032236Y-43183487D01*
X49865389Y-43250764D01*
X49578491Y-43366448D01*
X49570265Y-43369435D01*
X49289155Y-43460598D01*
X49104912Y-43520347D01*
X49096472Y-43522763D01*
X49073990Y-43528358D01*
X48621730Y-43640908D01*
X48613151Y-43642728D01*
X48521632Y-43658836D01*
X48131328Y-43727531D01*
X48122634Y-43728750D01*
X47929445Y-43749018D01*
X47636101Y-43779794D01*
X47627361Y-43780404D01*
X47236489Y-43794029D01*
X47167249Y-43796443D01*
X47162862Y-43796519D01*
X47150061Y-43796519D01*
X47134037Y-43792226D01*
X47118013Y-43796520D01*
X47105605Y-43796520D01*
X47097387Y-43797602D01*
X37460786Y-43797602D01*
X37392665Y-43777600D01*
X37346172Y-43723944D01*
X37336068Y-43653670D01*
X37365562Y-43589090D01*
X37385633Y-43570668D01*
X37393508Y-43566655D01*
X37477213Y-43482950D01*
X37479029Y-43484766D01*
X37523762Y-43450273D01*
X37594499Y-43444199D01*
X37626505Y-43458262D01*
X37627607Y-43456098D01*
X37733081Y-43509840D01*
X37742870Y-43511390D01*
X37742872Y-43511391D01*
X37840207Y-43526807D01*
X37850000Y-43528358D01*
X37859793Y-43526807D01*
X37957128Y-43511391D01*
X37957130Y-43511390D01*
X37966919Y-43509840D01*
X38072393Y-43456098D01*
X38156098Y-43372393D01*
X38209840Y-43266919D01*
X38220584Y-43199087D01*
X38226807Y-43159793D01*
X38228358Y-43150000D01*
X38222587Y-43113560D01*
X38211391Y-43042872D01*
X38211390Y-43042870D01*
X38209840Y-43033081D01*
X38195561Y-43005056D01*
X38182456Y-42935281D01*
X38209155Y-42869496D01*
X38222758Y-42856463D01*
X38222393Y-42856098D01*
X38306098Y-42772393D01*
X38359840Y-42666919D01*
X38378358Y-42550000D01*
X38367011Y-42478358D01*
X38361391Y-42442872D01*
X38361390Y-42442870D01*
X38359840Y-42433081D01*
X38306098Y-42327607D01*
X38222393Y-42243902D01*
X38116919Y-42190160D01*
X38107130Y-42188610D01*
X38107128Y-42188609D01*
X38028571Y-42176167D01*
X37964418Y-42145754D01*
X37926891Y-42085486D01*
X37923833Y-42071429D01*
X37911391Y-41992872D01*
X37911390Y-41992870D01*
X37909840Y-41983081D01*
X37856098Y-41877607D01*
X37772393Y-41793902D01*
X37666919Y-41740160D01*
X37657130Y-41738610D01*
X37657128Y-41738609D01*
X37559793Y-41723193D01*
X37550000Y-41721642D01*
X37540207Y-41723193D01*
X37442872Y-41738609D01*
X37442870Y-41738610D01*
X37433081Y-41740160D01*
X37327607Y-41793902D01*
X37243902Y-41877607D01*
X37190160Y-41983081D01*
X37188610Y-41992870D01*
X37188609Y-41992872D01*
X37176299Y-42070596D01*
X37171642Y-42100000D01*
X37173193Y-42109793D01*
X37186635Y-42194661D01*
X37190160Y-42216919D01*
X37243902Y-42322393D01*
X37327607Y-42406098D01*
X37433081Y-42459840D01*
X37442870Y-42461390D01*
X37442872Y-42461391D01*
X37521429Y-42473833D01*
X37585582Y-42504246D01*
X37623109Y-42564514D01*
X37626167Y-42578571D01*
X37640160Y-42666919D01*
X37644660Y-42675750D01*
X37644660Y-42675751D01*
X37654439Y-42694942D01*
X37667544Y-42764719D01*
X37640845Y-42830504D01*
X37627242Y-42843537D01*
X37627607Y-42843902D01*
X37543902Y-42927607D01*
X37542086Y-42925791D01*
X37497353Y-42960284D01*
X37426616Y-42966358D01*
X37394610Y-42952295D01*
X37393508Y-42954459D01*
X37288034Y-42900717D01*
X37278245Y-42899167D01*
X37278243Y-42899166D01*
X37180908Y-42883750D01*
X37171115Y-42882199D01*
X37161322Y-42883750D01*
X37063987Y-42899166D01*
X37063985Y-42899167D01*
X37054196Y-42900717D01*
X36948722Y-42954459D01*
X36865017Y-43038164D01*
X36811275Y-43143638D01*
X36809725Y-43153427D01*
X36809724Y-43153429D01*
X36802493Y-43199087D01*
X36792757Y-43260557D01*
X36794308Y-43270350D01*
X36809528Y-43366443D01*
X36811275Y-43377476D01*
X36865017Y-43482950D01*
X36948722Y-43566655D01*
X36956073Y-43570400D01*
X36998860Y-43625892D01*
X37004934Y-43696628D01*
X36971800Y-43759419D01*
X36909979Y-43794328D01*
X36881444Y-43797602D01*
X28278400Y-43797602D01*
X28210279Y-43777600D01*
X28163786Y-43723944D01*
X28152400Y-43671602D01*
X28152400Y-41750000D01*
X31021642Y-41750000D01*
X31023193Y-41759791D01*
X31023193Y-41759793D01*
X31037407Y-41849535D01*
X31040160Y-41866919D01*
X31093902Y-41972393D01*
X31177607Y-42056098D01*
X31283081Y-42109840D01*
X31292870Y-42111390D01*
X31292872Y-42111391D01*
X31390207Y-42126807D01*
X31400000Y-42128358D01*
X31404436Y-42127655D01*
X31469667Y-42146809D01*
X31516160Y-42200465D01*
X31525995Y-42272517D01*
X31521642Y-42300000D01*
X31523193Y-42309793D01*
X31537336Y-42399087D01*
X31540160Y-42416919D01*
X31568377Y-42472298D01*
X31584656Y-42504246D01*
X31593902Y-42522393D01*
X31598921Y-42527412D01*
X31622254Y-42592804D01*
X31606175Y-42661956D01*
X31600101Y-42671408D01*
X31593902Y-42677607D01*
X31540160Y-42783081D01*
X31538610Y-42792870D01*
X31538609Y-42792872D01*
X31526473Y-42869496D01*
X31521642Y-42900000D01*
X31523193Y-42909793D01*
X31531764Y-42963906D01*
X31540160Y-43016919D01*
X31593902Y-43122393D01*
X31677607Y-43206098D01*
X31783081Y-43259840D01*
X31792870Y-43261390D01*
X31792872Y-43261391D01*
X31890207Y-43276807D01*
X31900000Y-43278358D01*
X31909793Y-43276807D01*
X32007128Y-43261391D01*
X32007130Y-43261390D01*
X32016919Y-43259840D01*
X32122393Y-43206098D01*
X32206098Y-43122393D01*
X32259840Y-43016919D01*
X32268237Y-42963906D01*
X32276807Y-42909793D01*
X32278358Y-42900000D01*
X32273527Y-42869496D01*
X32261391Y-42792872D01*
X32261390Y-42792870D01*
X32259840Y-42783081D01*
X32206098Y-42677607D01*
X32201079Y-42672588D01*
X32177746Y-42607196D01*
X32193825Y-42538044D01*
X32199899Y-42528592D01*
X32206098Y-42522393D01*
X32215345Y-42504246D01*
X32231623Y-42472298D01*
X32259840Y-42416919D01*
X32262665Y-42399087D01*
X32276807Y-42309793D01*
X32278358Y-42300000D01*
X32276807Y-42290207D01*
X32261391Y-42192872D01*
X32261390Y-42192870D01*
X32259840Y-42183081D01*
X32206098Y-42077607D01*
X32122393Y-41993902D01*
X32016919Y-41940160D01*
X32007130Y-41938610D01*
X32007128Y-41938609D01*
X31909793Y-41923193D01*
X31900000Y-41921642D01*
X31895564Y-41922345D01*
X31830333Y-41903191D01*
X31783840Y-41849535D01*
X31774005Y-41777481D01*
X31776807Y-41759791D01*
X31778358Y-41750000D01*
X31768855Y-41690000D01*
X34931642Y-41690000D01*
X34933193Y-41699793D01*
X34947386Y-41789402D01*
X34950160Y-41806919D01*
X35003902Y-41912393D01*
X35087607Y-41996098D01*
X35193081Y-42049840D01*
X35202870Y-42051390D01*
X35202872Y-42051391D01*
X35300207Y-42066807D01*
X35310000Y-42068358D01*
X35319793Y-42066807D01*
X35417128Y-42051391D01*
X35417130Y-42051390D01*
X35426919Y-42049840D01*
X35532393Y-41996098D01*
X35616098Y-41912393D01*
X35669840Y-41806919D01*
X35672296Y-41791413D01*
X35702706Y-41727259D01*
X35762974Y-41689731D01*
X35833963Y-41690743D01*
X35893136Y-41729974D01*
X35909012Y-41753918D01*
X35943902Y-41822393D01*
X36027607Y-41906098D01*
X36133081Y-41959840D01*
X36142870Y-41961390D01*
X36142872Y-41961391D01*
X36240207Y-41976807D01*
X36250000Y-41978358D01*
X36259793Y-41976807D01*
X36357128Y-41961391D01*
X36357130Y-41961390D01*
X36366919Y-41959840D01*
X36472393Y-41906098D01*
X36556098Y-41822393D01*
X36609840Y-41716919D01*
X36612553Y-41699793D01*
X36626807Y-41609793D01*
X36628358Y-41600000D01*
X36624518Y-41575752D01*
X36611391Y-41492872D01*
X36611390Y-41492870D01*
X36609840Y-41483081D01*
X36592984Y-41450000D01*
X38821642Y-41450000D01*
X38823193Y-41459793D01*
X38833934Y-41527607D01*
X38840160Y-41566919D01*
X38893902Y-41672393D01*
X38977607Y-41756098D01*
X39083081Y-41809840D01*
X39092870Y-41811390D01*
X39092872Y-41811391D01*
X39190207Y-41826807D01*
X39200000Y-41828358D01*
X39209793Y-41826807D01*
X39307128Y-41811391D01*
X39307130Y-41811390D01*
X39316919Y-41809840D01*
X39422393Y-41756098D01*
X39506098Y-41672393D01*
X39559840Y-41566919D01*
X39566067Y-41527607D01*
X39576807Y-41459793D01*
X39578358Y-41450000D01*
X39576807Y-41440206D01*
X39573302Y-41418076D01*
X39582402Y-41347665D01*
X39628124Y-41293351D01*
X39678040Y-41273917D01*
X39757128Y-41261391D01*
X39757130Y-41261390D01*
X39766919Y-41259840D01*
X39872393Y-41206098D01*
X39956098Y-41122393D01*
X40009840Y-41016919D01*
X40028358Y-40900000D01*
X40021568Y-40857128D01*
X40011391Y-40792872D01*
X40011390Y-40792870D01*
X40009840Y-40783081D01*
X39992984Y-40750000D01*
X42171642Y-40750000D01*
X42173193Y-40759793D01*
X42178716Y-40794661D01*
X42190160Y-40866919D01*
X42243902Y-40972393D01*
X42327607Y-41056098D01*
X42433081Y-41109840D01*
X42442870Y-41111390D01*
X42442872Y-41111391D01*
X42540207Y-41126807D01*
X42550000Y-41128358D01*
X42559793Y-41126807D01*
X42657128Y-41111391D01*
X42657130Y-41111390D01*
X42666919Y-41109840D01*
X42772393Y-41056098D01*
X42856098Y-40972393D01*
X42909840Y-40866919D01*
X42921285Y-40794661D01*
X42926807Y-40759793D01*
X42928358Y-40750000D01*
X42913677Y-40657308D01*
X42911391Y-40642872D01*
X42911390Y-40642870D01*
X42909840Y-40633081D01*
X42856098Y-40527607D01*
X42772393Y-40443902D01*
X42666919Y-40390160D01*
X42657130Y-40388610D01*
X42657128Y-40388609D01*
X42559793Y-40373193D01*
X42550000Y-40371642D01*
X42540207Y-40373193D01*
X42442872Y-40388609D01*
X42442870Y-40388610D01*
X42433081Y-40390160D01*
X42327607Y-40443902D01*
X42243902Y-40527607D01*
X42190160Y-40633081D01*
X42188610Y-40642870D01*
X42188609Y-40642872D01*
X42186323Y-40657308D01*
X42171642Y-40750000D01*
X39992984Y-40750000D01*
X39956098Y-40677607D01*
X39872393Y-40593902D01*
X39766919Y-40540160D01*
X39757130Y-40538610D01*
X39757128Y-40538609D01*
X39659793Y-40523193D01*
X39650000Y-40521642D01*
X39640207Y-40523193D01*
X39542872Y-40538609D01*
X39542870Y-40538610D01*
X39533081Y-40540160D01*
X39427607Y-40593902D01*
X39343902Y-40677607D01*
X39290160Y-40783081D01*
X39288610Y-40792870D01*
X39288609Y-40792872D01*
X39278432Y-40857128D01*
X39271642Y-40900000D01*
X39273193Y-40909793D01*
X39273193Y-40909794D01*
X39276698Y-40931924D01*
X39267598Y-41002335D01*
X39221876Y-41056649D01*
X39171960Y-41076083D01*
X39092872Y-41088609D01*
X39092870Y-41088610D01*
X39083081Y-41090160D01*
X38977607Y-41143902D01*
X38893902Y-41227607D01*
X38840160Y-41333081D01*
X38838610Y-41342870D01*
X38838609Y-41342872D01*
X38832111Y-41383902D01*
X38821642Y-41450000D01*
X36592984Y-41450000D01*
X36556098Y-41377607D01*
X36472393Y-41293902D01*
X36366919Y-41240160D01*
X36357130Y-41238610D01*
X36357128Y-41238609D01*
X36259793Y-41223193D01*
X36250000Y-41221642D01*
X36240207Y-41223193D01*
X36142872Y-41238609D01*
X36142870Y-41238610D01*
X36133081Y-41240160D01*
X36027607Y-41293902D01*
X35943902Y-41377607D01*
X35890160Y-41483081D01*
X35888609Y-41492874D01*
X35887704Y-41498587D01*
X35857294Y-41562741D01*
X35797026Y-41600269D01*
X35726037Y-41599257D01*
X35666864Y-41560026D01*
X35650988Y-41536082D01*
X35623982Y-41483081D01*
X35616098Y-41467607D01*
X35532393Y-41383902D01*
X35426919Y-41330160D01*
X35417130Y-41328610D01*
X35417128Y-41328609D01*
X35319793Y-41313193D01*
X35310000Y-41311642D01*
X35300207Y-41313193D01*
X35202872Y-41328609D01*
X35202870Y-41328610D01*
X35193081Y-41330160D01*
X35087607Y-41383902D01*
X35003902Y-41467607D01*
X34950160Y-41573081D01*
X34948610Y-41582870D01*
X34948609Y-41582872D01*
X34946014Y-41599257D01*
X34931642Y-41690000D01*
X31768855Y-41690000D01*
X31761391Y-41642872D01*
X31761390Y-41642870D01*
X31759840Y-41633081D01*
X31724000Y-41562741D01*
X31710601Y-41536444D01*
X31710600Y-41536443D01*
X31706098Y-41527607D01*
X31701079Y-41522588D01*
X31677746Y-41457196D01*
X31693825Y-41388044D01*
X31699899Y-41378592D01*
X31706098Y-41372393D01*
X31759840Y-41266919D01*
X31763366Y-41244661D01*
X31776807Y-41159793D01*
X31778358Y-41150000D01*
X31776807Y-41140207D01*
X31761391Y-41042872D01*
X31761390Y-41042870D01*
X31759840Y-41033081D01*
X31706098Y-40927607D01*
X31622393Y-40843902D01*
X31516919Y-40790160D01*
X31507130Y-40788610D01*
X31507128Y-40788609D01*
X31409793Y-40773193D01*
X31400000Y-40771642D01*
X31390207Y-40773193D01*
X31292872Y-40788609D01*
X31292870Y-40788610D01*
X31283081Y-40790160D01*
X31177607Y-40843902D01*
X31093902Y-40927607D01*
X31040160Y-41033081D01*
X31038610Y-41042870D01*
X31038609Y-41042872D01*
X31023193Y-41140207D01*
X31021642Y-41150000D01*
X31023193Y-41159793D01*
X31036635Y-41244661D01*
X31040160Y-41266919D01*
X31093902Y-41372393D01*
X31098921Y-41377412D01*
X31122254Y-41442804D01*
X31106175Y-41511956D01*
X31100101Y-41521408D01*
X31093902Y-41527607D01*
X31089400Y-41536443D01*
X31089399Y-41536444D01*
X31076000Y-41562741D01*
X31040160Y-41633081D01*
X31038610Y-41642870D01*
X31038609Y-41642872D01*
X31031145Y-41690000D01*
X31021642Y-41750000D01*
X28152400Y-41750000D01*
X28152400Y-38800000D01*
X42771642Y-38800000D01*
X42773193Y-38809793D01*
X42784033Y-38878232D01*
X42790160Y-38916919D01*
X42843902Y-39022393D01*
X42927607Y-39106098D01*
X43033081Y-39159840D01*
X43042870Y-39161390D01*
X43042872Y-39161391D01*
X43140207Y-39176807D01*
X43150000Y-39178358D01*
X43159793Y-39176807D01*
X43257128Y-39161391D01*
X43257130Y-39161390D01*
X43266919Y-39159840D01*
X43372393Y-39106098D01*
X43456098Y-39022393D01*
X43509840Y-38916919D01*
X43515968Y-38878232D01*
X43526807Y-38809793D01*
X43528358Y-38800000D01*
X43509840Y-38683081D01*
X43456098Y-38577607D01*
X43372393Y-38493902D01*
X43266919Y-38440160D01*
X43257130Y-38438610D01*
X43257128Y-38438609D01*
X43159793Y-38423193D01*
X43150000Y-38421642D01*
X43140207Y-38423193D01*
X43042872Y-38438609D01*
X43042870Y-38438610D01*
X43033081Y-38440160D01*
X42927607Y-38493902D01*
X42843902Y-38577607D01*
X42790160Y-38683081D01*
X42771642Y-38800000D01*
X28152400Y-38800000D01*
X28152400Y-38320000D01*
X35361642Y-38320000D01*
X35380160Y-38436919D01*
X35433902Y-38542393D01*
X35517607Y-38626098D01*
X35623081Y-38679840D01*
X35632870Y-38681390D01*
X35632872Y-38681391D01*
X35730207Y-38696807D01*
X35740000Y-38698358D01*
X35749793Y-38696807D01*
X35847128Y-38681391D01*
X35847130Y-38681390D01*
X35856919Y-38679840D01*
X35962393Y-38626098D01*
X36046098Y-38542393D01*
X36099840Y-38436919D01*
X36118358Y-38320000D01*
X36099840Y-38203081D01*
X36046098Y-38097607D01*
X35962393Y-38013902D01*
X35856919Y-37960160D01*
X35847130Y-37958610D01*
X35847128Y-37958609D01*
X35749793Y-37943193D01*
X35740000Y-37941642D01*
X35730207Y-37943193D01*
X35632872Y-37958609D01*
X35632870Y-37958610D01*
X35623081Y-37960160D01*
X35517607Y-38013902D01*
X35433902Y-38097607D01*
X35380160Y-38203081D01*
X35361642Y-38320000D01*
X28152400Y-38320000D01*
X28152400Y-37040000D01*
X35021642Y-37040000D01*
X35040160Y-37156919D01*
X35093902Y-37262393D01*
X35177607Y-37346098D01*
X35283081Y-37399840D01*
X35292870Y-37401390D01*
X35292872Y-37401391D01*
X35390207Y-37416807D01*
X35400000Y-37418358D01*
X35409793Y-37416807D01*
X35507128Y-37401391D01*
X35507130Y-37401390D01*
X35516919Y-37399840D01*
X35622393Y-37346098D01*
X35706098Y-37262393D01*
X35737889Y-37200000D01*
X52121642Y-37200000D01*
X52140160Y-37316919D01*
X52193902Y-37422393D01*
X52277607Y-37506098D01*
X52383081Y-37559840D01*
X52392870Y-37561390D01*
X52392872Y-37561391D01*
X52490207Y-37576807D01*
X52500000Y-37578358D01*
X52509793Y-37576807D01*
X52607128Y-37561391D01*
X52607130Y-37561390D01*
X52616919Y-37559840D01*
X52722393Y-37506098D01*
X52806098Y-37422393D01*
X52859840Y-37316919D01*
X52878358Y-37200000D01*
X52859840Y-37083081D01*
X52806098Y-36977607D01*
X52722393Y-36893902D01*
X52616919Y-36840160D01*
X52607130Y-36838610D01*
X52607128Y-36838609D01*
X52509793Y-36823193D01*
X52500000Y-36821642D01*
X52490207Y-36823193D01*
X52392872Y-36838609D01*
X52392870Y-36838610D01*
X52383081Y-36840160D01*
X52277607Y-36893902D01*
X52193902Y-36977607D01*
X52140160Y-37083081D01*
X52121642Y-37200000D01*
X35737889Y-37200000D01*
X35759840Y-37156919D01*
X35778358Y-37040000D01*
X35759840Y-36923081D01*
X35706098Y-36817607D01*
X35622393Y-36733902D01*
X35516919Y-36680160D01*
X35507130Y-36678610D01*
X35507128Y-36678609D01*
X35409793Y-36663193D01*
X35400000Y-36661642D01*
X35390207Y-36663193D01*
X35292872Y-36678609D01*
X35292870Y-36678610D01*
X35283081Y-36680160D01*
X35177607Y-36733902D01*
X35093902Y-36817607D01*
X35040160Y-36923081D01*
X35021642Y-37040000D01*
X28152400Y-37040000D01*
X28152400Y-35750000D01*
X34411642Y-35750000D01*
X34413193Y-35759793D01*
X34420713Y-35807270D01*
X34430160Y-35866919D01*
X34483902Y-35972393D01*
X34567607Y-36056098D01*
X34673081Y-36109840D01*
X34682870Y-36111390D01*
X34682872Y-36111391D01*
X34780207Y-36126807D01*
X34790000Y-36128358D01*
X34799793Y-36126807D01*
X34897128Y-36111391D01*
X34897130Y-36111390D01*
X34906919Y-36109840D01*
X35012393Y-36056098D01*
X35096098Y-35972393D01*
X35149840Y-35866919D01*
X35159288Y-35807270D01*
X35166807Y-35759793D01*
X35168358Y-35750000D01*
X35166807Y-35740207D01*
X35151391Y-35642872D01*
X35151390Y-35642870D01*
X35149840Y-35633081D01*
X35096098Y-35527607D01*
X35012393Y-35443902D01*
X34906919Y-35390160D01*
X34897130Y-35388610D01*
X34897128Y-35388609D01*
X34799793Y-35373193D01*
X34790000Y-35371642D01*
X34780207Y-35373193D01*
X34682872Y-35388609D01*
X34682870Y-35388610D01*
X34673081Y-35390160D01*
X34567607Y-35443902D01*
X34483902Y-35527607D01*
X34430160Y-35633081D01*
X34428610Y-35642870D01*
X34428609Y-35642872D01*
X34413193Y-35740207D01*
X34411642Y-35750000D01*
X28152400Y-35750000D01*
X28152400Y-35686651D01*
X28153482Y-35678433D01*
X28153482Y-35666025D01*
X28157776Y-35650001D01*
X28153243Y-35633081D01*
X28140931Y-35587134D01*
X28140931Y-35587133D01*
X28136638Y-35571113D01*
X28078888Y-35513363D01*
X28062868Y-35509070D01*
X28062867Y-35509070D01*
X28020070Y-35497603D01*
X28020063Y-35497601D01*
X28000000Y-35492225D01*
X27983975Y-35496519D01*
X27971568Y-35496519D01*
X27963350Y-35497601D01*
X15699049Y-35497601D01*
X15630928Y-35477599D01*
X15584435Y-35423943D01*
X15573357Y-35380403D01*
X15564225Y-35250000D01*
X38871642Y-35250000D01*
X38873193Y-35259793D01*
X38881051Y-35309404D01*
X38890160Y-35366919D01*
X38943902Y-35472393D01*
X39027607Y-35556098D01*
X39133081Y-35609840D01*
X39142870Y-35611390D01*
X39142872Y-35611391D01*
X39240207Y-35626807D01*
X39250000Y-35628358D01*
X39259793Y-35626807D01*
X39357128Y-35611391D01*
X39357130Y-35611390D01*
X39366919Y-35609840D01*
X39472393Y-35556098D01*
X39556098Y-35472393D01*
X39609840Y-35366919D01*
X39618950Y-35309404D01*
X39626807Y-35259793D01*
X39628358Y-35250000D01*
X39614823Y-35164541D01*
X39611391Y-35142872D01*
X39611390Y-35142870D01*
X39609840Y-35133081D01*
X39582794Y-35080000D01*
X44511642Y-35080000D01*
X44513193Y-35089793D01*
X44524835Y-35163295D01*
X44530160Y-35196919D01*
X44583902Y-35302393D01*
X44667607Y-35386098D01*
X44773081Y-35439840D01*
X44782870Y-35441390D01*
X44782872Y-35441391D01*
X44880207Y-35456807D01*
X44890000Y-35458358D01*
X44899793Y-35456807D01*
X44997128Y-35441391D01*
X44997130Y-35441390D01*
X45006919Y-35439840D01*
X45112393Y-35386098D01*
X45196098Y-35302393D01*
X45249840Y-35196919D01*
X45255166Y-35163295D01*
X45266807Y-35089793D01*
X45268358Y-35080000D01*
X45266514Y-35068358D01*
X45251391Y-34972872D01*
X45251390Y-34972870D01*
X45249840Y-34963081D01*
X45196098Y-34857607D01*
X45112393Y-34773902D01*
X45006919Y-34720160D01*
X44997130Y-34718610D01*
X44997128Y-34718609D01*
X44899793Y-34703193D01*
X44890000Y-34701642D01*
X44880207Y-34703193D01*
X44782872Y-34718609D01*
X44782870Y-34718610D01*
X44773081Y-34720160D01*
X44667607Y-34773902D01*
X44583902Y-34857607D01*
X44530160Y-34963081D01*
X44528610Y-34972870D01*
X44528609Y-34972872D01*
X44513486Y-35068358D01*
X44511642Y-35080000D01*
X39582794Y-35080000D01*
X39556098Y-35027607D01*
X39472393Y-34943902D01*
X39366919Y-34890160D01*
X39357130Y-34888610D01*
X39357128Y-34888609D01*
X39259793Y-34873193D01*
X39250000Y-34871642D01*
X39240207Y-34873193D01*
X39142872Y-34888609D01*
X39142870Y-34888610D01*
X39133081Y-34890160D01*
X39027607Y-34943902D01*
X38943902Y-35027607D01*
X38890160Y-35133081D01*
X38888610Y-35142870D01*
X38888609Y-35142872D01*
X38885177Y-35164541D01*
X38871642Y-35250000D01*
X15564225Y-35250000D01*
X15525011Y-34690000D01*
X15971642Y-34690000D01*
X15973193Y-34699793D01*
X15984931Y-34773902D01*
X15990160Y-34806919D01*
X16043902Y-34912393D01*
X16127607Y-34996098D01*
X16233081Y-35049840D01*
X16242870Y-35051390D01*
X16242872Y-35051391D01*
X16340207Y-35066807D01*
X16350000Y-35068358D01*
X16359793Y-35066807D01*
X16457128Y-35051391D01*
X16457130Y-35051390D01*
X16466919Y-35049840D01*
X16572393Y-34996098D01*
X16656098Y-34912393D01*
X16709840Y-34806919D01*
X16715070Y-34773902D01*
X16726807Y-34699793D01*
X16728358Y-34690000D01*
X16709840Y-34573081D01*
X16698080Y-34550000D01*
X17571642Y-34550000D01*
X17573193Y-34559793D01*
X17577945Y-34589793D01*
X17590160Y-34666919D01*
X17643902Y-34772393D01*
X17727607Y-34856098D01*
X17833081Y-34909840D01*
X17842870Y-34911390D01*
X17842872Y-34911391D01*
X17940207Y-34926807D01*
X17950000Y-34928358D01*
X17959793Y-34926807D01*
X18057128Y-34911391D01*
X18057130Y-34911390D01*
X18066919Y-34909840D01*
X18172393Y-34856098D01*
X18256098Y-34772393D01*
X18309840Y-34666919D01*
X18322056Y-34589793D01*
X18323607Y-34580000D01*
X42701642Y-34580000D01*
X42703193Y-34589793D01*
X42716808Y-34675752D01*
X42720160Y-34696919D01*
X42773902Y-34802393D01*
X42857607Y-34886098D01*
X42963081Y-34939840D01*
X42972870Y-34941390D01*
X42972872Y-34941391D01*
X43070207Y-34956807D01*
X43080000Y-34958358D01*
X43089793Y-34956807D01*
X43187128Y-34941391D01*
X43187130Y-34941390D01*
X43196919Y-34939840D01*
X43302393Y-34886098D01*
X43386098Y-34802393D01*
X43439840Y-34696919D01*
X43443193Y-34675752D01*
X43456807Y-34589793D01*
X43458358Y-34580000D01*
X43453607Y-34550000D01*
X43441391Y-34472872D01*
X43441390Y-34472870D01*
X43439840Y-34463081D01*
X43386098Y-34357607D01*
X43302393Y-34273902D01*
X43196919Y-34220160D01*
X43187130Y-34218610D01*
X43187128Y-34218609D01*
X43089793Y-34203193D01*
X43080000Y-34201642D01*
X43070207Y-34203193D01*
X42972872Y-34218609D01*
X42972870Y-34218610D01*
X42963081Y-34220160D01*
X42857607Y-34273902D01*
X42773902Y-34357607D01*
X42720160Y-34463081D01*
X42718610Y-34472870D01*
X42718609Y-34472872D01*
X42706393Y-34550000D01*
X42701642Y-34580000D01*
X18323607Y-34580000D01*
X18323833Y-34578571D01*
X18354246Y-34514418D01*
X18414514Y-34476891D01*
X18428571Y-34473833D01*
X18507128Y-34461391D01*
X18507130Y-34461390D01*
X18516919Y-34459840D01*
X18622393Y-34406098D01*
X18706098Y-34322393D01*
X18732297Y-34270975D01*
X18781046Y-34219360D01*
X18849961Y-34202294D01*
X18878310Y-34207409D01*
X18883081Y-34209840D01*
X19000000Y-34228358D01*
X19009793Y-34226807D01*
X19107128Y-34211391D01*
X19107130Y-34211390D01*
X19116919Y-34209840D01*
X19222393Y-34156098D01*
X19306098Y-34072393D01*
X19359840Y-33966919D01*
X19365710Y-33929857D01*
X19396122Y-33865704D01*
X19456391Y-33828177D01*
X19470445Y-33825120D01*
X19528111Y-33815987D01*
X19557127Y-33811391D01*
X19557128Y-33811391D01*
X19566919Y-33809840D01*
X19672393Y-33756098D01*
X19756098Y-33672393D01*
X19809840Y-33566919D01*
X19821285Y-33494661D01*
X19826807Y-33459793D01*
X19828358Y-33450000D01*
X19809840Y-33333081D01*
X19756098Y-33227607D01*
X19672393Y-33143902D01*
X19566919Y-33090160D01*
X19557130Y-33088610D01*
X19557128Y-33088609D01*
X19459793Y-33073193D01*
X19450000Y-33071642D01*
X19440207Y-33073193D01*
X19342872Y-33088609D01*
X19342870Y-33088610D01*
X19333081Y-33090160D01*
X19227607Y-33143902D01*
X19143902Y-33227607D01*
X19090160Y-33333081D01*
X19088610Y-33342870D01*
X19088609Y-33342872D01*
X19084290Y-33370143D01*
X19053878Y-33434296D01*
X18993609Y-33471823D01*
X18979555Y-33474880D01*
X18922997Y-33483838D01*
X18892873Y-33488609D01*
X18892872Y-33488609D01*
X18883081Y-33490160D01*
X18777607Y-33543902D01*
X18693902Y-33627607D01*
X18675583Y-33663560D01*
X18667703Y-33679025D01*
X18618954Y-33730640D01*
X18550039Y-33747706D01*
X18521690Y-33742591D01*
X18516919Y-33740160D01*
X18400000Y-33721642D01*
X18390207Y-33723193D01*
X18292872Y-33738609D01*
X18292870Y-33738610D01*
X18283081Y-33740160D01*
X18177607Y-33793902D01*
X18093902Y-33877607D01*
X18040160Y-33983081D01*
X18038610Y-33992870D01*
X18038609Y-33992872D01*
X18026167Y-34071429D01*
X17995754Y-34135582D01*
X17935486Y-34173109D01*
X17921429Y-34176167D01*
X17842872Y-34188609D01*
X17842870Y-34188610D01*
X17833081Y-34190160D01*
X17727607Y-34243902D01*
X17643902Y-34327607D01*
X17590160Y-34433081D01*
X17588610Y-34442870D01*
X17588609Y-34442872D01*
X17573193Y-34540207D01*
X17571642Y-34550000D01*
X16698080Y-34550000D01*
X16656098Y-34467607D01*
X16572393Y-34383902D01*
X16466919Y-34330160D01*
X16457130Y-34328610D01*
X16457128Y-34328609D01*
X16359793Y-34313193D01*
X16350000Y-34311642D01*
X16340207Y-34313193D01*
X16242872Y-34328609D01*
X16242870Y-34328610D01*
X16233081Y-34330160D01*
X16127607Y-34383902D01*
X16043902Y-34467607D01*
X15990160Y-34573081D01*
X15971642Y-34690000D01*
X15525011Y-34690000D01*
X15484559Y-34112315D01*
X15484405Y-34109732D01*
X15408995Y-32583737D01*
X15408893Y-32581152D01*
X15407706Y-32540000D01*
X15971642Y-32540000D01*
X15973193Y-32549793D01*
X15983626Y-32615662D01*
X15990160Y-32656919D01*
X16043902Y-32762393D01*
X16127607Y-32846098D01*
X16233081Y-32899840D01*
X16242870Y-32901390D01*
X16242872Y-32901391D01*
X16340207Y-32916807D01*
X16350000Y-32918358D01*
X16359793Y-32916807D01*
X16457128Y-32901391D01*
X16457130Y-32901390D01*
X16466919Y-32899840D01*
X16572393Y-32846098D01*
X16656098Y-32762393D01*
X16709840Y-32656919D01*
X16716375Y-32615662D01*
X16726807Y-32549793D01*
X16728358Y-32540000D01*
X16719667Y-32485128D01*
X16711391Y-32432872D01*
X16711390Y-32432870D01*
X16709840Y-32423081D01*
X16681881Y-32368209D01*
X18069834Y-32368209D01*
X18071385Y-32378002D01*
X18082437Y-32447779D01*
X18088352Y-32485128D01*
X18142094Y-32590602D01*
X18225799Y-32674307D01*
X18331273Y-32728049D01*
X18341062Y-32729599D01*
X18341064Y-32729600D01*
X18438399Y-32745016D01*
X18448192Y-32746567D01*
X18457985Y-32745016D01*
X18555320Y-32729600D01*
X18555322Y-32729599D01*
X18565111Y-32728049D01*
X18670585Y-32674307D01*
X18754290Y-32590602D01*
X18808032Y-32485128D01*
X18813948Y-32447779D01*
X18824999Y-32378002D01*
X18826550Y-32368209D01*
X18820540Y-32330260D01*
X18815700Y-32299701D01*
X27785905Y-32299701D01*
X27787456Y-32309494D01*
X27798307Y-32378002D01*
X27804423Y-32416620D01*
X27858165Y-32522094D01*
X27941870Y-32605799D01*
X28047344Y-32659541D01*
X28057133Y-32661091D01*
X28057135Y-32661092D01*
X28154470Y-32676508D01*
X28164263Y-32678059D01*
X28174056Y-32676508D01*
X28271391Y-32661092D01*
X28271393Y-32661091D01*
X28281182Y-32659541D01*
X28386656Y-32605799D01*
X28470361Y-32522094D01*
X28524103Y-32416620D01*
X28530220Y-32378002D01*
X28541070Y-32309494D01*
X28542574Y-32300000D01*
X31631642Y-32300000D01*
X31650160Y-32416919D01*
X31703902Y-32522393D01*
X31787607Y-32606098D01*
X31893081Y-32659840D01*
X31902870Y-32661390D01*
X31902872Y-32661391D01*
X32000207Y-32676807D01*
X32010000Y-32678358D01*
X32019793Y-32676807D01*
X32117128Y-32661391D01*
X32117130Y-32661390D01*
X32126919Y-32659840D01*
X32232393Y-32606098D01*
X32316098Y-32522393D01*
X32369840Y-32416919D01*
X32388358Y-32300000D01*
X32377889Y-32233902D01*
X32371635Y-32194410D01*
X43042477Y-32194410D01*
X43043641Y-32203312D01*
X43043641Y-32203315D01*
X43047641Y-32233902D01*
X43059298Y-32323046D01*
X43062915Y-32331266D01*
X43107623Y-32432872D01*
X43111547Y-32441791D01*
X43195023Y-32541098D01*
X43202494Y-32546071D01*
X43202495Y-32546072D01*
X43295542Y-32608009D01*
X43295546Y-32608011D01*
X43303017Y-32612984D01*
X43426845Y-32651671D01*
X43556555Y-32654048D01*
X43592494Y-32644250D01*
X43673059Y-32622286D01*
X43673061Y-32622285D01*
X43681718Y-32619925D01*
X43792273Y-32552044D01*
X43812766Y-32529404D01*
X43873304Y-32462523D01*
X43873305Y-32462521D01*
X43879332Y-32455863D01*
X43890133Y-32433571D01*
X43895008Y-32423509D01*
X49614382Y-32423509D01*
X49643014Y-32565507D01*
X49708776Y-32694573D01*
X49714589Y-32700895D01*
X49714590Y-32700896D01*
X49740985Y-32729600D01*
X49806825Y-32801201D01*
X49929936Y-32877533D01*
X50069040Y-32917946D01*
X50075875Y-32918448D01*
X50077000Y-32918531D01*
X50077013Y-32918531D01*
X50079308Y-32918700D01*
X50183289Y-32918700D01*
X50187535Y-32918118D01*
X50187541Y-32918118D01*
X50247037Y-32909968D01*
X50290515Y-32904012D01*
X50310557Y-32895339D01*
X50415572Y-32849895D01*
X50415574Y-32849894D01*
X50423456Y-32846483D01*
X50536029Y-32755323D01*
X50604098Y-32659541D01*
X50614965Y-32644250D01*
X50619941Y-32637248D01*
X50669009Y-32500956D01*
X50670172Y-32485128D01*
X50678989Y-32365054D01*
X50679618Y-32356491D01*
X50650986Y-32214493D01*
X50585224Y-32085427D01*
X50571312Y-32070297D01*
X50492989Y-31985122D01*
X50487175Y-31978799D01*
X50364064Y-31902467D01*
X50224960Y-31862054D01*
X50218125Y-31861552D01*
X50217000Y-31861469D01*
X50216987Y-31861469D01*
X50214692Y-31861300D01*
X50110711Y-31861300D01*
X50106465Y-31861882D01*
X50106459Y-31861882D01*
X50046963Y-31870032D01*
X50003485Y-31875988D01*
X49995601Y-31879400D01*
X49995600Y-31879400D01*
X49878428Y-31930105D01*
X49878426Y-31930106D01*
X49870544Y-31933517D01*
X49757971Y-32024677D01*
X49674059Y-32142752D01*
X49624991Y-32279044D01*
X49624362Y-32287604D01*
X49624362Y-32287606D01*
X49619922Y-32348072D01*
X49614382Y-32423509D01*
X43895008Y-32423509D01*
X43931983Y-32347191D01*
X43931983Y-32347190D01*
X43935897Y-32339112D01*
X43957420Y-32211179D01*
X43957557Y-32200000D01*
X43945542Y-32116098D01*
X43940440Y-32080472D01*
X43940439Y-32080469D01*
X43939166Y-32071579D01*
X43933038Y-32058100D01*
X43889185Y-31961653D01*
X43885470Y-31953482D01*
X43873734Y-31939861D01*
X43806648Y-31862004D01*
X43800787Y-31855202D01*
X43691923Y-31784640D01*
X43567631Y-31747469D01*
X43558655Y-31747414D01*
X43558654Y-31747414D01*
X43505353Y-31747088D01*
X43437902Y-31746676D01*
X43313166Y-31782326D01*
X43305579Y-31787113D01*
X43305577Y-31787114D01*
X43284826Y-31800207D01*
X43203448Y-31851553D01*
X43117570Y-31948791D01*
X43113756Y-31956914D01*
X43113755Y-31956916D01*
X43093239Y-32000614D01*
X43062436Y-32066223D01*
X43061056Y-32075087D01*
X43061055Y-32075090D01*
X43044288Y-32182782D01*
X43042477Y-32194410D01*
X32371635Y-32194410D01*
X32371391Y-32192872D01*
X32371390Y-32192870D01*
X32369840Y-32183081D01*
X32316098Y-32077607D01*
X32232393Y-31993902D01*
X32126919Y-31940160D01*
X32117130Y-31938610D01*
X32117128Y-31938609D01*
X32019793Y-31923193D01*
X32010000Y-31921642D01*
X32000207Y-31923193D01*
X31902872Y-31938609D01*
X31902870Y-31938610D01*
X31893081Y-31940160D01*
X31787607Y-31993902D01*
X31703902Y-32077607D01*
X31650160Y-32183081D01*
X31648610Y-32192870D01*
X31648609Y-32192872D01*
X31642111Y-32233902D01*
X31631642Y-32300000D01*
X28542574Y-32300000D01*
X28542621Y-32299701D01*
X28530490Y-32223110D01*
X28525654Y-32192573D01*
X28525653Y-32192571D01*
X28524103Y-32182782D01*
X28470361Y-32077308D01*
X28386656Y-31993603D01*
X28281182Y-31939861D01*
X28271393Y-31938311D01*
X28271391Y-31938310D01*
X28174056Y-31922894D01*
X28164263Y-31921343D01*
X28154470Y-31922894D01*
X28057135Y-31938310D01*
X28057133Y-31938311D01*
X28047344Y-31939861D01*
X27941870Y-31993603D01*
X27858165Y-32077308D01*
X27804423Y-32182782D01*
X27802873Y-32192571D01*
X27802872Y-32192573D01*
X27798036Y-32223110D01*
X27785905Y-32299701D01*
X18815700Y-32299701D01*
X18809583Y-32261081D01*
X18809582Y-32261079D01*
X18808032Y-32251290D01*
X18754290Y-32145816D01*
X18670585Y-32062111D01*
X18565111Y-32008369D01*
X18555322Y-32006819D01*
X18555320Y-32006818D01*
X18457985Y-31991402D01*
X18448192Y-31989851D01*
X18438399Y-31991402D01*
X18341064Y-32006818D01*
X18341062Y-32006819D01*
X18331273Y-32008369D01*
X18225799Y-32062111D01*
X18142094Y-32145816D01*
X18088352Y-32251290D01*
X18086802Y-32261079D01*
X18086801Y-32261081D01*
X18075844Y-32330260D01*
X18069834Y-32368209D01*
X16681881Y-32368209D01*
X16656098Y-32317607D01*
X16572393Y-32233902D01*
X16466919Y-32180160D01*
X16457130Y-32178610D01*
X16457128Y-32178609D01*
X16359793Y-32163193D01*
X16350000Y-32161642D01*
X16340207Y-32163193D01*
X16242872Y-32178609D01*
X16242870Y-32178610D01*
X16233081Y-32180160D01*
X16127607Y-32233902D01*
X16043902Y-32317607D01*
X15990160Y-32423081D01*
X15988610Y-32432870D01*
X15988609Y-32432872D01*
X15980333Y-32485128D01*
X15971642Y-32540000D01*
X15407706Y-32540000D01*
X15386645Y-31810000D01*
X26561642Y-31810000D01*
X26563193Y-31819793D01*
X26575908Y-31900071D01*
X26580160Y-31926919D01*
X26633902Y-32032393D01*
X26717607Y-32116098D01*
X26823081Y-32169840D01*
X26832870Y-32171390D01*
X26832872Y-32171391D01*
X26930207Y-32186807D01*
X26940000Y-32188358D01*
X26949793Y-32186807D01*
X27047128Y-32171391D01*
X27047130Y-32171390D01*
X27056919Y-32169840D01*
X27162393Y-32116098D01*
X27246098Y-32032393D01*
X27299840Y-31926919D01*
X27304093Y-31900071D01*
X27316807Y-31819793D01*
X27318358Y-31810000D01*
X27308454Y-31747469D01*
X27301391Y-31702872D01*
X27301390Y-31702870D01*
X27299840Y-31693081D01*
X27295340Y-31684250D01*
X27295339Y-31684246D01*
X27264514Y-31623750D01*
X27255520Y-31606098D01*
X27242415Y-31536322D01*
X27269114Y-31470537D01*
X27278691Y-31459800D01*
X27296098Y-31442393D01*
X27349840Y-31336919D01*
X27354137Y-31309793D01*
X27355688Y-31300000D01*
X32841642Y-31300000D01*
X32843193Y-31309793D01*
X32857336Y-31399087D01*
X32860160Y-31416919D01*
X32913902Y-31522393D01*
X32997607Y-31606098D01*
X33103081Y-31659840D01*
X33112870Y-31661390D01*
X33112872Y-31661391D01*
X33210207Y-31676807D01*
X33220000Y-31678358D01*
X33229793Y-31676807D01*
X33327128Y-31661391D01*
X33327130Y-31661390D01*
X33336919Y-31659840D01*
X33442393Y-31606098D01*
X33526098Y-31522393D01*
X33579840Y-31416919D01*
X33582665Y-31399087D01*
X33596807Y-31309793D01*
X33598358Y-31300000D01*
X33596807Y-31290207D01*
X33581391Y-31192872D01*
X33581390Y-31192870D01*
X33579840Y-31183081D01*
X33537508Y-31100000D01*
X46721642Y-31100000D01*
X46723193Y-31109793D01*
X46734801Y-31183081D01*
X46740160Y-31216919D01*
X46793902Y-31322393D01*
X46877607Y-31406098D01*
X46983081Y-31459840D01*
X46992870Y-31461390D01*
X46992872Y-31461391D01*
X47090207Y-31476807D01*
X47100000Y-31478358D01*
X47109793Y-31476807D01*
X47207128Y-31461391D01*
X47207130Y-31461390D01*
X47216919Y-31459840D01*
X47322393Y-31406098D01*
X47406098Y-31322393D01*
X47459840Y-31216919D01*
X47465200Y-31183081D01*
X47476807Y-31109793D01*
X47478358Y-31100000D01*
X47463540Y-31006440D01*
X47461391Y-30992872D01*
X47461390Y-30992870D01*
X47459840Y-30983081D01*
X47406098Y-30877607D01*
X47322393Y-30793902D01*
X47216919Y-30740160D01*
X47207130Y-30738610D01*
X47207128Y-30738609D01*
X47109793Y-30723193D01*
X47100000Y-30721642D01*
X47090207Y-30723193D01*
X46992872Y-30738609D01*
X46992870Y-30738610D01*
X46983081Y-30740160D01*
X46877607Y-30793902D01*
X46793902Y-30877607D01*
X46740160Y-30983081D01*
X46738610Y-30992870D01*
X46738609Y-30992872D01*
X46736460Y-31006440D01*
X46721642Y-31100000D01*
X33537508Y-31100000D01*
X33526098Y-31077607D01*
X33507487Y-31058996D01*
X33473461Y-30996684D01*
X33478526Y-30925869D01*
X33521073Y-30869033D01*
X33527219Y-30865206D01*
X33533561Y-30860598D01*
X33542393Y-30856098D01*
X33626098Y-30772393D01*
X33679840Y-30666919D01*
X33698358Y-30550000D01*
X33691997Y-30509840D01*
X33681391Y-30442872D01*
X33681390Y-30442870D01*
X33679840Y-30433081D01*
X33626098Y-30327607D01*
X33542393Y-30243902D01*
X33436919Y-30190160D01*
X33427130Y-30188610D01*
X33427128Y-30188609D01*
X33329793Y-30173193D01*
X33320000Y-30171642D01*
X33310207Y-30173193D01*
X33212872Y-30188609D01*
X33212870Y-30188610D01*
X33203081Y-30190160D01*
X33097607Y-30243902D01*
X33013902Y-30327607D01*
X32960160Y-30433081D01*
X32958610Y-30442870D01*
X32958609Y-30442872D01*
X32948003Y-30509840D01*
X32941642Y-30550000D01*
X32960160Y-30666919D01*
X33013902Y-30772393D01*
X33032513Y-30791004D01*
X33066539Y-30853316D01*
X33061474Y-30924131D01*
X33018927Y-30980967D01*
X33012781Y-30984794D01*
X33006439Y-30989402D01*
X32997607Y-30993902D01*
X32913902Y-31077607D01*
X32860160Y-31183081D01*
X32858610Y-31192870D01*
X32858609Y-31192872D01*
X32843193Y-31290207D01*
X32841642Y-31300000D01*
X27355688Y-31300000D01*
X27366807Y-31229793D01*
X27368358Y-31220000D01*
X27349840Y-31103081D01*
X27296098Y-30997607D01*
X27212393Y-30913902D01*
X27106919Y-30860160D01*
X27097130Y-30858610D01*
X27097128Y-30858609D01*
X26999793Y-30843193D01*
X26990000Y-30841642D01*
X26980207Y-30843193D01*
X26882872Y-30858609D01*
X26882870Y-30858610D01*
X26873081Y-30860160D01*
X26767607Y-30913902D01*
X26683902Y-30997607D01*
X26630160Y-31103081D01*
X26611642Y-31220000D01*
X26613193Y-31229793D01*
X26625864Y-31309793D01*
X26630160Y-31336919D01*
X26634660Y-31345750D01*
X26634661Y-31345754D01*
X26674480Y-31423901D01*
X26687585Y-31493678D01*
X26660886Y-31559463D01*
X26651309Y-31570200D01*
X26633902Y-31587607D01*
X26580160Y-31693081D01*
X26578610Y-31702870D01*
X26578609Y-31702872D01*
X26571546Y-31747469D01*
X26561642Y-31810000D01*
X15386645Y-31810000D01*
X15384839Y-31747414D01*
X15364829Y-31053813D01*
X15364781Y-31051247D01*
X15364336Y-30997607D01*
X15356463Y-30050000D01*
X17621642Y-30050000D01*
X17640160Y-30166919D01*
X17693902Y-30272393D01*
X17777607Y-30356098D01*
X17883081Y-30409840D01*
X17892870Y-30411390D01*
X17892872Y-30411391D01*
X17990207Y-30426807D01*
X18000000Y-30428358D01*
X18009793Y-30426807D01*
X18107128Y-30411391D01*
X18107130Y-30411390D01*
X18116919Y-30409840D01*
X18222393Y-30356098D01*
X18306098Y-30272393D01*
X18359840Y-30166919D01*
X18378358Y-30050000D01*
X18374279Y-30024248D01*
X18365687Y-29970000D01*
X18811642Y-29970000D01*
X18813193Y-29979793D01*
X18825864Y-30059793D01*
X18830160Y-30086919D01*
X18883902Y-30192393D01*
X18967607Y-30276098D01*
X19073081Y-30329840D01*
X19082870Y-30331390D01*
X19082872Y-30331391D01*
X19180207Y-30346807D01*
X19190000Y-30348358D01*
X19199793Y-30346807D01*
X19297128Y-30331391D01*
X19297130Y-30331390D01*
X19306919Y-30329840D01*
X19412393Y-30276098D01*
X19496098Y-30192393D01*
X19517698Y-30150000D01*
X26561642Y-30150000D01*
X26563193Y-30159793D01*
X26568716Y-30194661D01*
X26580160Y-30266919D01*
X26633902Y-30372393D01*
X26717607Y-30456098D01*
X26823081Y-30509840D01*
X26832870Y-30511390D01*
X26832872Y-30511391D01*
X26930207Y-30526807D01*
X26940000Y-30528358D01*
X26949793Y-30526807D01*
X27047128Y-30511391D01*
X27047130Y-30511390D01*
X27056919Y-30509840D01*
X27162393Y-30456098D01*
X27246098Y-30372393D01*
X27299840Y-30266919D01*
X27311285Y-30194661D01*
X27316807Y-30159793D01*
X27318358Y-30150000D01*
X27299840Y-30033081D01*
X27246098Y-29927607D01*
X27162393Y-29843902D01*
X27056919Y-29790160D01*
X27047130Y-29788610D01*
X27047128Y-29788609D01*
X26949793Y-29773193D01*
X26940000Y-29771642D01*
X26930207Y-29773193D01*
X26832872Y-29788609D01*
X26832870Y-29788610D01*
X26823081Y-29790160D01*
X26717607Y-29843902D01*
X26633902Y-29927607D01*
X26580160Y-30033081D01*
X26561642Y-30150000D01*
X19517698Y-30150000D01*
X19549840Y-30086919D01*
X19554137Y-30059793D01*
X19566807Y-29979793D01*
X19568358Y-29970000D01*
X19549840Y-29853081D01*
X19496098Y-29747607D01*
X19496182Y-29747564D01*
X19474284Y-29686192D01*
X19490364Y-29617040D01*
X19495445Y-29609134D01*
X19501170Y-29603409D01*
X19554912Y-29497935D01*
X19557301Y-29482856D01*
X19571879Y-29390809D01*
X19573430Y-29381016D01*
X19566109Y-29334793D01*
X19556463Y-29273888D01*
X19556462Y-29273886D01*
X19554912Y-29264097D01*
X19501170Y-29158623D01*
X19500683Y-29158136D01*
X19478545Y-29096092D01*
X19494626Y-29026940D01*
X19500157Y-29018334D01*
X19506098Y-29012393D01*
X19559840Y-28906919D01*
X19578358Y-28790000D01*
X19559840Y-28673081D01*
X19506098Y-28567607D01*
X19422393Y-28483902D01*
X19316919Y-28430160D01*
X19307130Y-28428610D01*
X19307128Y-28428609D01*
X19209793Y-28413193D01*
X19200000Y-28411642D01*
X19190207Y-28413193D01*
X19092872Y-28428609D01*
X19092870Y-28428610D01*
X19083081Y-28430160D01*
X18977607Y-28483902D01*
X18893902Y-28567607D01*
X18840160Y-28673081D01*
X18821642Y-28790000D01*
X18840160Y-28906919D01*
X18893902Y-29012393D01*
X18894389Y-29012880D01*
X18916527Y-29074924D01*
X18900446Y-29144076D01*
X18894915Y-29152682D01*
X18888974Y-29158623D01*
X18835232Y-29264097D01*
X18833682Y-29273886D01*
X18833681Y-29273888D01*
X18824035Y-29334793D01*
X18816714Y-29381016D01*
X18818265Y-29390809D01*
X18832844Y-29482856D01*
X18835232Y-29497935D01*
X18888645Y-29602763D01*
X18888974Y-29603409D01*
X18888890Y-29603452D01*
X18910788Y-29664824D01*
X18894708Y-29733976D01*
X18889627Y-29741882D01*
X18883902Y-29747607D01*
X18830160Y-29853081D01*
X18811642Y-29970000D01*
X18365687Y-29970000D01*
X18361391Y-29942872D01*
X18361390Y-29942870D01*
X18359840Y-29933081D01*
X18306098Y-29827607D01*
X18292586Y-29814095D01*
X18258560Y-29751783D01*
X18263625Y-29680968D01*
X18292586Y-29635905D01*
X18306098Y-29622393D01*
X18359840Y-29516919D01*
X18364398Y-29488144D01*
X18376807Y-29409793D01*
X18378358Y-29400000D01*
X18359840Y-29283081D01*
X18306098Y-29177607D01*
X18222393Y-29093902D01*
X18116919Y-29040160D01*
X18107130Y-29038610D01*
X18107128Y-29038609D01*
X18009793Y-29023193D01*
X18000000Y-29021642D01*
X17990207Y-29023193D01*
X17892872Y-29038609D01*
X17892870Y-29038610D01*
X17883081Y-29040160D01*
X17777607Y-29093902D01*
X17693902Y-29177607D01*
X17640160Y-29283081D01*
X17621642Y-29400000D01*
X17623193Y-29409793D01*
X17635603Y-29488144D01*
X17640160Y-29516919D01*
X17693902Y-29622393D01*
X17707414Y-29635905D01*
X17741440Y-29698217D01*
X17736375Y-29769032D01*
X17707414Y-29814095D01*
X17693902Y-29827607D01*
X17640160Y-29933081D01*
X17638610Y-29942870D01*
X17638609Y-29942872D01*
X17625721Y-30024248D01*
X17621642Y-30050000D01*
X15356463Y-30050000D01*
X15356404Y-30042872D01*
X15352088Y-29523397D01*
X15352093Y-29520809D01*
X15370775Y-27992970D01*
X15370834Y-27990384D01*
X15410070Y-26793161D01*
X15420880Y-26463336D01*
X15420990Y-26460764D01*
X15421942Y-26442915D01*
X15450905Y-25900000D01*
X17101642Y-25900000D01*
X17103193Y-25909793D01*
X17116975Y-25996807D01*
X17120160Y-26016919D01*
X17173902Y-26122393D01*
X17257607Y-26206098D01*
X17363081Y-26259840D01*
X17372870Y-26261390D01*
X17372872Y-26261391D01*
X17470207Y-26276807D01*
X17480000Y-26278358D01*
X17489793Y-26276807D01*
X17587122Y-26261392D01*
X17587124Y-26261391D01*
X17596919Y-26259840D01*
X17597080Y-26260857D01*
X17658932Y-26259088D01*
X17716000Y-26291855D01*
X18212811Y-26788666D01*
X18246837Y-26850978D01*
X18241772Y-26921793D01*
X18199225Y-26978629D01*
X18132705Y-27003440D01*
X18084780Y-26997594D01*
X18075751Y-26994660D01*
X18066919Y-26990160D01*
X18057130Y-26988610D01*
X18057128Y-26988609D01*
X17959793Y-26973193D01*
X17950000Y-26971642D01*
X17940207Y-26973193D01*
X17842872Y-26988609D01*
X17842870Y-26988610D01*
X17833081Y-26990160D01*
X17727607Y-27043902D01*
X17643902Y-27127607D01*
X17590160Y-27233081D01*
X17588610Y-27242870D01*
X17588609Y-27242872D01*
X17579940Y-27297607D01*
X17571642Y-27350000D01*
X17573193Y-27359793D01*
X17575265Y-27372872D01*
X17590160Y-27466919D01*
X17643902Y-27572393D01*
X17727607Y-27656098D01*
X17833081Y-27709840D01*
X17842870Y-27711390D01*
X17842872Y-27711391D01*
X17940207Y-27726807D01*
X17950000Y-27728358D01*
X17959793Y-27726807D01*
X18057128Y-27711391D01*
X18057130Y-27711390D01*
X18066919Y-27709840D01*
X18172393Y-27656098D01*
X18256098Y-27572393D01*
X18309840Y-27466919D01*
X18324736Y-27372872D01*
X18326807Y-27359793D01*
X18328358Y-27350000D01*
X18309840Y-27233081D01*
X18305341Y-27224251D01*
X18302406Y-27215218D01*
X18300379Y-27144251D01*
X18337042Y-27083453D01*
X18400754Y-27052128D01*
X18471288Y-27060222D01*
X18511332Y-27087186D01*
X20801581Y-29377435D01*
X20817251Y-29396528D01*
X20824470Y-29407332D01*
X20908124Y-29463228D01*
X21006801Y-29482856D01*
X21018972Y-29480435D01*
X21018974Y-29480435D01*
X21019542Y-29480322D01*
X21044122Y-29477901D01*
X44001822Y-29477901D01*
X44069943Y-29497903D01*
X44101304Y-29532572D01*
X44104110Y-29530533D01*
X44109942Y-29538560D01*
X44114443Y-29547393D01*
X44198148Y-29631098D01*
X44303622Y-29684840D01*
X44313411Y-29686390D01*
X44313413Y-29686391D01*
X44410748Y-29701807D01*
X44420541Y-29703358D01*
X44430334Y-29701807D01*
X44527669Y-29686391D01*
X44527671Y-29686390D01*
X44537460Y-29684840D01*
X44642934Y-29631098D01*
X44726639Y-29547393D01*
X44780381Y-29441919D01*
X44797179Y-29335863D01*
X44797348Y-29334793D01*
X44798730Y-29326070D01*
X46648423Y-29326070D01*
X46649974Y-29335863D01*
X46661294Y-29407332D01*
X46666941Y-29442989D01*
X46720683Y-29548463D01*
X46804388Y-29632168D01*
X46909862Y-29685910D01*
X46919651Y-29687460D01*
X46919653Y-29687461D01*
X47016988Y-29702877D01*
X47026781Y-29704428D01*
X47036574Y-29702877D01*
X47133909Y-29687461D01*
X47133911Y-29687460D01*
X47143700Y-29685910D01*
X47249174Y-29632168D01*
X47332879Y-29548463D01*
X47386621Y-29442989D01*
X47392269Y-29407332D01*
X47403588Y-29335863D01*
X47405139Y-29326070D01*
X47403588Y-29316277D01*
X47388172Y-29218942D01*
X47388171Y-29218940D01*
X47386621Y-29209151D01*
X47332879Y-29103677D01*
X47249174Y-29019972D01*
X47143700Y-28966230D01*
X47133911Y-28964680D01*
X47133909Y-28964679D01*
X47036574Y-28949263D01*
X47026781Y-28947712D01*
X47016988Y-28949263D01*
X46919653Y-28964679D01*
X46919651Y-28964680D01*
X46909862Y-28966230D01*
X46804388Y-29019972D01*
X46720683Y-29103677D01*
X46666941Y-29209151D01*
X46665391Y-29218940D01*
X46665390Y-29218942D01*
X46649974Y-29316277D01*
X46648423Y-29326070D01*
X44798730Y-29326070D01*
X44798899Y-29325000D01*
X44797348Y-29315207D01*
X44781932Y-29217872D01*
X44781931Y-29217870D01*
X44780381Y-29208081D01*
X44726639Y-29102607D01*
X44713127Y-29089095D01*
X44679101Y-29026783D01*
X44684166Y-28955968D01*
X44713127Y-28910905D01*
X44726639Y-28897393D01*
X44776264Y-28800000D01*
X47521642Y-28800000D01*
X47540160Y-28916919D01*
X47593902Y-29022393D01*
X47677607Y-29106098D01*
X47783081Y-29159840D01*
X47792870Y-29161390D01*
X47792872Y-29161391D01*
X47890207Y-29176807D01*
X47900000Y-29178358D01*
X47909793Y-29176807D01*
X48007128Y-29161391D01*
X48007130Y-29161390D01*
X48016919Y-29159840D01*
X48122393Y-29106098D01*
X48206098Y-29022393D01*
X48259840Y-28916919D01*
X48278358Y-28800000D01*
X48259840Y-28683081D01*
X48206098Y-28577607D01*
X48122393Y-28493902D01*
X48016919Y-28440160D01*
X48007130Y-28438610D01*
X48007128Y-28438609D01*
X47909793Y-28423193D01*
X47900000Y-28421642D01*
X47890207Y-28423193D01*
X47792872Y-28438609D01*
X47792870Y-28438610D01*
X47783081Y-28440160D01*
X47677607Y-28493902D01*
X47593902Y-28577607D01*
X47540160Y-28683081D01*
X47521642Y-28800000D01*
X44776264Y-28800000D01*
X44780381Y-28791919D01*
X44798899Y-28675000D01*
X44780381Y-28558081D01*
X44726639Y-28452607D01*
X44642934Y-28368902D01*
X44537460Y-28315160D01*
X44527671Y-28313610D01*
X44527669Y-28313609D01*
X44430334Y-28298193D01*
X44420541Y-28296642D01*
X44410748Y-28298193D01*
X44313413Y-28313609D01*
X44313411Y-28313610D01*
X44303622Y-28315160D01*
X44198148Y-28368902D01*
X44114443Y-28452607D01*
X44109943Y-28461439D01*
X44104110Y-28469467D01*
X44100972Y-28467187D01*
X44065356Y-28504908D01*
X44001822Y-28522099D01*
X36106374Y-28522099D01*
X36038253Y-28502097D01*
X35991760Y-28448441D01*
X35981656Y-28378167D01*
X36003063Y-28325428D01*
X36006098Y-28322393D01*
X36059840Y-28216919D01*
X36062300Y-28201391D01*
X36076807Y-28109793D01*
X36078358Y-28100000D01*
X36070060Y-28047607D01*
X36061391Y-27992872D01*
X36061390Y-27992870D01*
X36059840Y-27983081D01*
X36006098Y-27877607D01*
X35922393Y-27793902D01*
X35816919Y-27740160D01*
X35807130Y-27738610D01*
X35807128Y-27738609D01*
X35709793Y-27723193D01*
X35700000Y-27721642D01*
X35690207Y-27723193D01*
X35592872Y-27738609D01*
X35592870Y-27738610D01*
X35583081Y-27740160D01*
X35477607Y-27793902D01*
X35393902Y-27877607D01*
X35340160Y-27983081D01*
X35338610Y-27992870D01*
X35338609Y-27992872D01*
X35329940Y-28047607D01*
X35321642Y-28100000D01*
X35323193Y-28109793D01*
X35337701Y-28201391D01*
X35340160Y-28216919D01*
X35393902Y-28322393D01*
X35396678Y-28325169D01*
X35419420Y-28388901D01*
X35403342Y-28458054D01*
X35352430Y-28507536D01*
X35293626Y-28522099D01*
X34185957Y-28522099D01*
X34117836Y-28502097D01*
X34071343Y-28448441D01*
X34061508Y-28376388D01*
X34076807Y-28279793D01*
X34078358Y-28270000D01*
X34068400Y-28207128D01*
X34061391Y-28162872D01*
X34061390Y-28162870D01*
X34059840Y-28153081D01*
X34006098Y-28047607D01*
X33922393Y-27963902D01*
X33816919Y-27910160D01*
X33807130Y-27908610D01*
X33807128Y-27908609D01*
X33709793Y-27893193D01*
X33700000Y-27891642D01*
X33690207Y-27893193D01*
X33592872Y-27908609D01*
X33592870Y-27908610D01*
X33583081Y-27910160D01*
X33477607Y-27963902D01*
X33393902Y-28047607D01*
X33340160Y-28153081D01*
X33338610Y-28162870D01*
X33338609Y-28162872D01*
X33331600Y-28207128D01*
X33321642Y-28270000D01*
X33323193Y-28279793D01*
X33338492Y-28376388D01*
X33329392Y-28446800D01*
X33283670Y-28501114D01*
X33214043Y-28522099D01*
X21350143Y-28522099D01*
X21282022Y-28502097D01*
X21261048Y-28485194D01*
X20142218Y-27366364D01*
X20108192Y-27304052D01*
X20113257Y-27233237D01*
X20155804Y-27176401D01*
X20222324Y-27151590D01*
X20260562Y-27157273D01*
X20260679Y-27156535D01*
X20260717Y-27156541D01*
X20261592Y-27156680D01*
X20266651Y-27158178D01*
X20268898Y-27158512D01*
X20268952Y-27158260D01*
X20273025Y-27159126D01*
X20276465Y-27159637D01*
X20277749Y-27160130D01*
X20281904Y-27161013D01*
X20294003Y-27166400D01*
X20313047Y-27166400D01*
X20332758Y-27167951D01*
X20338502Y-27168861D01*
X20338503Y-27168861D01*
X20351579Y-27170932D01*
X20364368Y-27167505D01*
X20377596Y-27166812D01*
X20377626Y-27167382D01*
X20385082Y-27166400D01*
X20738174Y-27166400D01*
X20806295Y-27186402D01*
X20827269Y-27203305D01*
X21330625Y-27706661D01*
X21335166Y-27711445D01*
X21359961Y-27738983D01*
X21372058Y-27744369D01*
X21377370Y-27746734D01*
X21394735Y-27756162D01*
X21410716Y-27766540D01*
X21423798Y-27768612D01*
X21427755Y-27770131D01*
X21431903Y-27771013D01*
X21444003Y-27776400D01*
X21463047Y-27776400D01*
X21482758Y-27777951D01*
X21488500Y-27778861D01*
X21488503Y-27778861D01*
X21501579Y-27780932D01*
X21514370Y-27777504D01*
X21527595Y-27776811D01*
X21527625Y-27777381D01*
X21535079Y-27776400D01*
X23031025Y-27776400D01*
X23037621Y-27776573D01*
X23061382Y-27777819D01*
X23061384Y-27777819D01*
X23074609Y-27778512D01*
X23092402Y-27771682D01*
X23111346Y-27766070D01*
X23129984Y-27762108D01*
X23140692Y-27754328D01*
X23144568Y-27752603D01*
X23148131Y-27750289D01*
X23160493Y-27745543D01*
X23173958Y-27732078D01*
X23188993Y-27719237D01*
X23193695Y-27715821D01*
X23193698Y-27715817D01*
X23204410Y-27708035D01*
X23211031Y-27696568D01*
X23219893Y-27686725D01*
X23220317Y-27687107D01*
X23224893Y-27681143D01*
X23386036Y-27520000D01*
X27861642Y-27520000D01*
X27863193Y-27529793D01*
X27875224Y-27605752D01*
X27880160Y-27636919D01*
X27933902Y-27742393D01*
X28017607Y-27826098D01*
X28123081Y-27879840D01*
X28132870Y-27881390D01*
X28132872Y-27881391D01*
X28230207Y-27896807D01*
X28240000Y-27898358D01*
X28249793Y-27896807D01*
X28347128Y-27881391D01*
X28347130Y-27881390D01*
X28356919Y-27879840D01*
X28462393Y-27826098D01*
X28546098Y-27742393D01*
X28599840Y-27636919D01*
X28604777Y-27605752D01*
X28616807Y-27529793D01*
X28618358Y-27520000D01*
X28612023Y-27480000D01*
X37831642Y-27480000D01*
X37833193Y-27489793D01*
X37843695Y-27556098D01*
X37850160Y-27596919D01*
X37903902Y-27702393D01*
X37987607Y-27786098D01*
X38093081Y-27839840D01*
X38102870Y-27841390D01*
X38102872Y-27841391D01*
X38200207Y-27856807D01*
X38210000Y-27858358D01*
X38219793Y-27856807D01*
X38317128Y-27841391D01*
X38317130Y-27841390D01*
X38325909Y-27840000D01*
X42201642Y-27840000D01*
X42203193Y-27849793D01*
X42212509Y-27908609D01*
X42220160Y-27956919D01*
X42273902Y-28062393D01*
X42357607Y-28146098D01*
X42463081Y-28199840D01*
X42472870Y-28201390D01*
X42472872Y-28201391D01*
X42570207Y-28216807D01*
X42580000Y-28218358D01*
X42589793Y-28216807D01*
X42687128Y-28201391D01*
X42687130Y-28201390D01*
X42696919Y-28199840D01*
X42802393Y-28146098D01*
X42886098Y-28062393D01*
X42939840Y-27956919D01*
X42947492Y-27908609D01*
X42956807Y-27849793D01*
X42958358Y-27840000D01*
X42949821Y-27786098D01*
X42941391Y-27732872D01*
X42941390Y-27732870D01*
X42939840Y-27723081D01*
X42886098Y-27617607D01*
X42802393Y-27533902D01*
X42696919Y-27480160D01*
X42687130Y-27478610D01*
X42687128Y-27478609D01*
X42589793Y-27463193D01*
X42580000Y-27461642D01*
X42570207Y-27463193D01*
X42472872Y-27478609D01*
X42472870Y-27478610D01*
X42463081Y-27480160D01*
X42357607Y-27533902D01*
X42273902Y-27617607D01*
X42220160Y-27723081D01*
X42218610Y-27732870D01*
X42218609Y-27732872D01*
X42210179Y-27786098D01*
X42201642Y-27840000D01*
X38325909Y-27840000D01*
X38326919Y-27839840D01*
X38432393Y-27786098D01*
X38516098Y-27702393D01*
X38569840Y-27596919D01*
X38576306Y-27556098D01*
X38586807Y-27489793D01*
X38588358Y-27480000D01*
X38585450Y-27461642D01*
X38571391Y-27372872D01*
X38571390Y-27372870D01*
X38569840Y-27363081D01*
X38516098Y-27257607D01*
X38432393Y-27173902D01*
X38326919Y-27120160D01*
X38317130Y-27118610D01*
X38317128Y-27118609D01*
X38219793Y-27103193D01*
X38210000Y-27101642D01*
X38200207Y-27103193D01*
X38102872Y-27118609D01*
X38102870Y-27118610D01*
X38093081Y-27120160D01*
X37987607Y-27173902D01*
X37903902Y-27257607D01*
X37850160Y-27363081D01*
X37848610Y-27372870D01*
X37848609Y-27372872D01*
X37834550Y-27461642D01*
X37831642Y-27480000D01*
X28612023Y-27480000D01*
X28599840Y-27403081D01*
X28546098Y-27297607D01*
X28462393Y-27213902D01*
X28356919Y-27160160D01*
X28347130Y-27158610D01*
X28347128Y-27158609D01*
X28249793Y-27143193D01*
X28240000Y-27141642D01*
X28230207Y-27143193D01*
X28132872Y-27158609D01*
X28132870Y-27158610D01*
X28123081Y-27160160D01*
X28017607Y-27213902D01*
X27933902Y-27297607D01*
X27880160Y-27403081D01*
X27861642Y-27520000D01*
X23386036Y-27520000D01*
X23421375Y-27484661D01*
X23622730Y-27283305D01*
X23685043Y-27249280D01*
X23711826Y-27246400D01*
X24471025Y-27246400D01*
X24477621Y-27246573D01*
X24501382Y-27247819D01*
X24501384Y-27247819D01*
X24514609Y-27248512D01*
X24532402Y-27241682D01*
X24551346Y-27236070D01*
X24569984Y-27232108D01*
X24580692Y-27224328D01*
X24584568Y-27222603D01*
X24588131Y-27220289D01*
X24600493Y-27215543D01*
X24613958Y-27202078D01*
X24628993Y-27189237D01*
X24633695Y-27185821D01*
X24633698Y-27185817D01*
X24644410Y-27178035D01*
X24651031Y-27166568D01*
X24659893Y-27156725D01*
X24660317Y-27157107D01*
X24664896Y-27151140D01*
X25102731Y-26713305D01*
X25165043Y-26679279D01*
X25191826Y-26676400D01*
X33381025Y-26676400D01*
X33387621Y-26676573D01*
X33411382Y-26677819D01*
X33411384Y-26677819D01*
X33424609Y-26678512D01*
X33442402Y-26671682D01*
X33461346Y-26666070D01*
X33479984Y-26662108D01*
X33490692Y-26654328D01*
X33494568Y-26652603D01*
X33498131Y-26650289D01*
X33510493Y-26645543D01*
X33523958Y-26632078D01*
X33538993Y-26619237D01*
X33543695Y-26615821D01*
X33543698Y-26615817D01*
X33554410Y-26608035D01*
X33561031Y-26596568D01*
X33569893Y-26586725D01*
X33570317Y-26587107D01*
X33574896Y-26581140D01*
X33652731Y-26503305D01*
X33715043Y-26469279D01*
X33741826Y-26466400D01*
X34568174Y-26466400D01*
X34636295Y-26486402D01*
X34657269Y-26503305D01*
X34830625Y-26676661D01*
X34835167Y-26681446D01*
X34847427Y-26695062D01*
X34859961Y-26708983D01*
X34872056Y-26714368D01*
X34872059Y-26714370D01*
X34877372Y-26716735D01*
X34894741Y-26726166D01*
X34910717Y-26736540D01*
X34923800Y-26738612D01*
X34927761Y-26740133D01*
X34931904Y-26741014D01*
X34944003Y-26746400D01*
X34963047Y-26746400D01*
X34982759Y-26747951D01*
X34988502Y-26748861D01*
X34988504Y-26748861D01*
X35001579Y-26750932D01*
X35014368Y-26747505D01*
X35027596Y-26746812D01*
X35027626Y-26747382D01*
X35035082Y-26746400D01*
X39610919Y-26746400D01*
X39679040Y-26766402D01*
X39725533Y-26820058D01*
X39735637Y-26890332D01*
X39706143Y-26954912D01*
X39700014Y-26961495D01*
X39633902Y-27027607D01*
X39580160Y-27133081D01*
X39578610Y-27142870D01*
X39578609Y-27142872D01*
X39566014Y-27222393D01*
X39561642Y-27250000D01*
X39563193Y-27259793D01*
X39576467Y-27343600D01*
X39580160Y-27366919D01*
X39633902Y-27472393D01*
X39717607Y-27556098D01*
X39823081Y-27609840D01*
X39832870Y-27611390D01*
X39832872Y-27611391D01*
X39930207Y-27626807D01*
X39940000Y-27628358D01*
X39949793Y-27626807D01*
X40047128Y-27611391D01*
X40047130Y-27611390D01*
X40056919Y-27609840D01*
X40162393Y-27556098D01*
X40246098Y-27472393D01*
X40287387Y-27391360D01*
X43660223Y-27391360D01*
X43661774Y-27401153D01*
X43674168Y-27479404D01*
X43678741Y-27508279D01*
X43732483Y-27613753D01*
X43816188Y-27697458D01*
X43921662Y-27751200D01*
X43931451Y-27752750D01*
X43931453Y-27752751D01*
X44028788Y-27768167D01*
X44038581Y-27769718D01*
X44048374Y-27768167D01*
X44145709Y-27752751D01*
X44145711Y-27752750D01*
X44155500Y-27751200D01*
X44260974Y-27697458D01*
X44344679Y-27613753D01*
X44398421Y-27508279D01*
X44402995Y-27479404D01*
X44415388Y-27401153D01*
X44416939Y-27391360D01*
X44398421Y-27274441D01*
X44344679Y-27168967D01*
X44260974Y-27085262D01*
X44155500Y-27031520D01*
X44145711Y-27029970D01*
X44145709Y-27029969D01*
X44048374Y-27014553D01*
X44038581Y-27013002D01*
X44028788Y-27014553D01*
X43931453Y-27029969D01*
X43931451Y-27029970D01*
X43921662Y-27031520D01*
X43816188Y-27085262D01*
X43732483Y-27168967D01*
X43678741Y-27274441D01*
X43660223Y-27391360D01*
X40287387Y-27391360D01*
X40299840Y-27366919D01*
X40303534Y-27343600D01*
X40316807Y-27259793D01*
X40318358Y-27250000D01*
X40313986Y-27222393D01*
X40301391Y-27142872D01*
X40301390Y-27142870D01*
X40299840Y-27133081D01*
X40246098Y-27027607D01*
X40162393Y-26943902D01*
X40084882Y-26904408D01*
X40033267Y-26855659D01*
X40016201Y-26786745D01*
X40039102Y-26719543D01*
X40052990Y-26703046D01*
X40053958Y-26702078D01*
X40068993Y-26689237D01*
X40073695Y-26685821D01*
X40073698Y-26685817D01*
X40084410Y-26678035D01*
X40091031Y-26666568D01*
X40099893Y-26656725D01*
X40100319Y-26657108D01*
X40104894Y-26651142D01*
X40202731Y-26553305D01*
X40265043Y-26519279D01*
X40291826Y-26516400D01*
X40825719Y-26516400D01*
X40893840Y-26536402D01*
X40914814Y-26553305D01*
X40967607Y-26606098D01*
X41073081Y-26659840D01*
X41082870Y-26661390D01*
X41082872Y-26661391D01*
X41180207Y-26676807D01*
X41190000Y-26678358D01*
X41199793Y-26676807D01*
X41297128Y-26661391D01*
X41297130Y-26661390D01*
X41306919Y-26659840D01*
X41338970Y-26643509D01*
X49614382Y-26643509D01*
X49643014Y-26785507D01*
X49708776Y-26914573D01*
X49714589Y-26920895D01*
X49714590Y-26920896D01*
X49731607Y-26939402D01*
X49806825Y-27021201D01*
X49929936Y-27097533D01*
X49938183Y-27099929D01*
X50038189Y-27128983D01*
X50069040Y-27137946D01*
X50075875Y-27138448D01*
X50077000Y-27138531D01*
X50077013Y-27138531D01*
X50079308Y-27138700D01*
X50183289Y-27138700D01*
X50187535Y-27138118D01*
X50187541Y-27138118D01*
X50254225Y-27128983D01*
X50290515Y-27124012D01*
X50298409Y-27120596D01*
X50415572Y-27069895D01*
X50415574Y-27069894D01*
X50423456Y-27066483D01*
X50536029Y-26975323D01*
X50601582Y-26883081D01*
X50614965Y-26864250D01*
X50619941Y-26857248D01*
X50669009Y-26720956D01*
X50670396Y-26702078D01*
X50677113Y-26610596D01*
X50679618Y-26576491D01*
X50650986Y-26434493D01*
X50585224Y-26305427D01*
X50579347Y-26299035D01*
X50532708Y-26248316D01*
X50487175Y-26198799D01*
X50364064Y-26122467D01*
X50285589Y-26099668D01*
X50231297Y-26083895D01*
X50224960Y-26082054D01*
X50218125Y-26081552D01*
X50217000Y-26081469D01*
X50216987Y-26081469D01*
X50214692Y-26081300D01*
X50110711Y-26081300D01*
X50106465Y-26081882D01*
X50106459Y-26081882D01*
X50046963Y-26090032D01*
X50003485Y-26095988D01*
X49995601Y-26099400D01*
X49995600Y-26099400D01*
X49878428Y-26150105D01*
X49878426Y-26150106D01*
X49870544Y-26153517D01*
X49757971Y-26244677D01*
X49674059Y-26362752D01*
X49624991Y-26499044D01*
X49624362Y-26507604D01*
X49624362Y-26507606D01*
X49621916Y-26540913D01*
X49614382Y-26643509D01*
X41338970Y-26643509D01*
X41412393Y-26606098D01*
X41496098Y-26522393D01*
X41549840Y-26416919D01*
X41568358Y-26300000D01*
X41564667Y-26276695D01*
X41551391Y-26192872D01*
X41551390Y-26192870D01*
X41549840Y-26183081D01*
X41496098Y-26077607D01*
X41412393Y-25993902D01*
X41306919Y-25940160D01*
X41297130Y-25938610D01*
X41297128Y-25938609D01*
X41199793Y-25923193D01*
X41190000Y-25921642D01*
X41180207Y-25923193D01*
X41082872Y-25938609D01*
X41082870Y-25938610D01*
X41073081Y-25940160D01*
X40967607Y-25993902D01*
X40914814Y-26046695D01*
X40852502Y-26080721D01*
X40825719Y-26083600D01*
X40589081Y-26083600D01*
X40520960Y-26063598D01*
X40474467Y-26009942D01*
X40464363Y-25939668D01*
X40493857Y-25875088D01*
X40499986Y-25868505D01*
X40546098Y-25822393D01*
X40599840Y-25716919D01*
X40602349Y-25701078D01*
X40632762Y-25636925D01*
X40693030Y-25599398D01*
X40746508Y-25596340D01*
X40837522Y-25610755D01*
X40837523Y-25610755D01*
X40847316Y-25612306D01*
X40857109Y-25610755D01*
X40954444Y-25595339D01*
X40954446Y-25595338D01*
X40964235Y-25593788D01*
X40981612Y-25584934D01*
X43056739Y-25584934D01*
X43059522Y-25588652D01*
X43191357Y-25637681D01*
X43204948Y-25641070D01*
X43359544Y-25661697D01*
X43373540Y-25661991D01*
X43528860Y-25647855D01*
X43542585Y-25645038D01*
X43690915Y-25596843D01*
X43699555Y-25592924D01*
X43706963Y-25584934D01*
X43956739Y-25584934D01*
X43959522Y-25588652D01*
X44091357Y-25637681D01*
X44104948Y-25641070D01*
X44259544Y-25661697D01*
X44273540Y-25661991D01*
X44428860Y-25647855D01*
X44442585Y-25645038D01*
X44590915Y-25596843D01*
X44599555Y-25592924D01*
X44606963Y-25584934D01*
X44856739Y-25584934D01*
X44859522Y-25588652D01*
X44991357Y-25637681D01*
X45004948Y-25641070D01*
X45159544Y-25661697D01*
X45173540Y-25661991D01*
X45328860Y-25647855D01*
X45342585Y-25645038D01*
X45490915Y-25596843D01*
X45499555Y-25592924D01*
X45507930Y-25583891D01*
X45504425Y-25575478D01*
X45195312Y-25266365D01*
X45181368Y-25258751D01*
X45179535Y-25258882D01*
X45172920Y-25263133D01*
X44863499Y-25572554D01*
X44856739Y-25584934D01*
X44606963Y-25584934D01*
X44607930Y-25583891D01*
X44604425Y-25575478D01*
X44295312Y-25266365D01*
X44281368Y-25258751D01*
X44279535Y-25258882D01*
X44272920Y-25263133D01*
X43963499Y-25572554D01*
X43956739Y-25584934D01*
X43706963Y-25584934D01*
X43707930Y-25583891D01*
X43704425Y-25575478D01*
X43395312Y-25266365D01*
X43381368Y-25258751D01*
X43379535Y-25258882D01*
X43372920Y-25263133D01*
X43063499Y-25572554D01*
X43056739Y-25584934D01*
X40981612Y-25584934D01*
X41069709Y-25540046D01*
X41153414Y-25456341D01*
X41207156Y-25350867D01*
X41210680Y-25328621D01*
X41224123Y-25243741D01*
X41225674Y-25233948D01*
X41211249Y-25142872D01*
X41208707Y-25126820D01*
X41208706Y-25126818D01*
X41207156Y-25117029D01*
X41153414Y-25011555D01*
X41069709Y-24927850D01*
X41007911Y-24896362D01*
X42620466Y-24896362D01*
X42635686Y-25051585D01*
X42638597Y-25065280D01*
X42687827Y-25213270D01*
X42690229Y-25218468D01*
X42698217Y-25225772D01*
X42706838Y-25222109D01*
X43016135Y-24912812D01*
X43022513Y-24901132D01*
X43741251Y-24901132D01*
X43741382Y-24902965D01*
X43745633Y-24909580D01*
X43819688Y-24983635D01*
X43833632Y-24991249D01*
X43835465Y-24991118D01*
X43842080Y-24986867D01*
X43916135Y-24912812D01*
X43922513Y-24901132D01*
X44641251Y-24901132D01*
X44641382Y-24902965D01*
X44645633Y-24909580D01*
X44719688Y-24983635D01*
X44733632Y-24991249D01*
X44735465Y-24991118D01*
X44742080Y-24986867D01*
X44816135Y-24912812D01*
X44822513Y-24901132D01*
X45541251Y-24901132D01*
X45541382Y-24902965D01*
X45545633Y-24909580D01*
X45854678Y-25218625D01*
X45867058Y-25225385D01*
X45870874Y-25222528D01*
X45918831Y-25096283D01*
X45922311Y-25082727D01*
X45944448Y-24925221D01*
X45945054Y-24917338D01*
X45945241Y-24903962D01*
X45944854Y-24896062D01*
X45927125Y-24738003D01*
X45924023Y-24724350D01*
X45873200Y-24578407D01*
X45867641Y-24573467D01*
X45858588Y-24577465D01*
X45548865Y-24887188D01*
X45541251Y-24901132D01*
X44822513Y-24901132D01*
X44823749Y-24898868D01*
X44823618Y-24897035D01*
X44819367Y-24890420D01*
X44745312Y-24816365D01*
X44731368Y-24808751D01*
X44729535Y-24808882D01*
X44722920Y-24813133D01*
X44648865Y-24887188D01*
X44641251Y-24901132D01*
X43922513Y-24901132D01*
X43923749Y-24898868D01*
X43923618Y-24897035D01*
X43919367Y-24890420D01*
X43845312Y-24816365D01*
X43831368Y-24808751D01*
X43829535Y-24808882D01*
X43822920Y-24813133D01*
X43748865Y-24887188D01*
X43741251Y-24901132D01*
X43022513Y-24901132D01*
X43023749Y-24898868D01*
X43023618Y-24897035D01*
X43019367Y-24890420D01*
X42709539Y-24580592D01*
X42697159Y-24573832D01*
X42693537Y-24576543D01*
X42643501Y-24714016D01*
X42640209Y-24727625D01*
X42620662Y-24882356D01*
X42620466Y-24896362D01*
X41007911Y-24896362D01*
X40964235Y-24874108D01*
X40954446Y-24872558D01*
X40954444Y-24872557D01*
X40857109Y-24857141D01*
X40847316Y-24855590D01*
X40837523Y-24857141D01*
X40740188Y-24872557D01*
X40740186Y-24872558D01*
X40730397Y-24874108D01*
X40624923Y-24927850D01*
X40541218Y-25011555D01*
X40487476Y-25117029D01*
X40485926Y-25126818D01*
X40485925Y-25126820D01*
X40484967Y-25132870D01*
X40454554Y-25197023D01*
X40394286Y-25234550D01*
X40340808Y-25237608D01*
X40249794Y-25223193D01*
X40249793Y-25223193D01*
X40240000Y-25221642D01*
X40230207Y-25223193D01*
X40132872Y-25238609D01*
X40132870Y-25238610D01*
X40123081Y-25240160D01*
X40083829Y-25260160D01*
X40026444Y-25289399D01*
X40026443Y-25289400D01*
X40017607Y-25293902D01*
X40010592Y-25300917D01*
X40005300Y-25304762D01*
X39938433Y-25328621D01*
X39872683Y-25313333D01*
X39872393Y-25313902D01*
X39870096Y-25312731D01*
X39870094Y-25312730D01*
X39766919Y-25260160D01*
X39757130Y-25258610D01*
X39757128Y-25258609D01*
X39659793Y-25243193D01*
X39650000Y-25241642D01*
X39640207Y-25243193D01*
X39542872Y-25258609D01*
X39542870Y-25258610D01*
X39533081Y-25260160D01*
X39427607Y-25313902D01*
X39343902Y-25397607D01*
X39290160Y-25503081D01*
X39288610Y-25512870D01*
X39288609Y-25512872D01*
X39275775Y-25593902D01*
X39271642Y-25620000D01*
X39273193Y-25629793D01*
X39287575Y-25720596D01*
X39290160Y-25736919D01*
X39343902Y-25842393D01*
X39427607Y-25926098D01*
X39533081Y-25979840D01*
X39542870Y-25981390D01*
X39542872Y-25981391D01*
X39640207Y-25996807D01*
X39650000Y-25998358D01*
X39659793Y-25996807D01*
X39757128Y-25981391D01*
X39757130Y-25981390D01*
X39766919Y-25979840D01*
X39865654Y-25929532D01*
X39935429Y-25916428D01*
X40001214Y-25943128D01*
X40042121Y-26001155D01*
X40045162Y-26072087D01*
X40009371Y-26133402D01*
X39996918Y-26143734D01*
X39996304Y-26144180D01*
X39996302Y-26144183D01*
X39985590Y-26151965D01*
X39978969Y-26163432D01*
X39970107Y-26173275D01*
X39969681Y-26172892D01*
X39965106Y-26178858D01*
X39867269Y-26276695D01*
X39804957Y-26310721D01*
X39778174Y-26313600D01*
X37212549Y-26313600D01*
X37144428Y-26293598D01*
X37097935Y-26239942D01*
X37087831Y-26169668D01*
X37106862Y-26122783D01*
X37106098Y-26122393D01*
X37113338Y-26108183D01*
X37159840Y-26016919D01*
X37163026Y-25996807D01*
X37176807Y-25909793D01*
X37178358Y-25900000D01*
X37171568Y-25857128D01*
X37161391Y-25792872D01*
X37161390Y-25792870D01*
X37159840Y-25783081D01*
X37106098Y-25677607D01*
X37022393Y-25593902D01*
X36916919Y-25540160D01*
X36907130Y-25538610D01*
X36907128Y-25538609D01*
X36809793Y-25523193D01*
X36800000Y-25521642D01*
X36790207Y-25523193D01*
X36692872Y-25538609D01*
X36692870Y-25538610D01*
X36683081Y-25540160D01*
X36577607Y-25593902D01*
X36493902Y-25677607D01*
X36440160Y-25783081D01*
X36438610Y-25792870D01*
X36438609Y-25792872D01*
X36428432Y-25857128D01*
X36421642Y-25900000D01*
X36423193Y-25909793D01*
X36436975Y-25996807D01*
X36440160Y-26016919D01*
X36486662Y-26108183D01*
X36493902Y-26122393D01*
X36492754Y-26122978D01*
X36513245Y-26180399D01*
X36497169Y-26249552D01*
X36446258Y-26299035D01*
X36387451Y-26313600D01*
X35131827Y-26313600D01*
X35063706Y-26293598D01*
X35042732Y-26276696D01*
X34869374Y-26103339D01*
X34864832Y-26098552D01*
X34848902Y-26080859D01*
X34848898Y-26080856D01*
X34840039Y-26071017D01*
X34827943Y-26065632D01*
X34827941Y-26065630D01*
X34822633Y-26063267D01*
X34805256Y-26053832D01*
X34800390Y-26050672D01*
X34800389Y-26050672D01*
X34789284Y-26043460D01*
X34776207Y-26041389D01*
X34772248Y-26039869D01*
X34768095Y-26038986D01*
X34755997Y-26033600D01*
X34736953Y-26033600D01*
X34717242Y-26032049D01*
X34711498Y-26031139D01*
X34711497Y-26031139D01*
X34698421Y-26029068D01*
X34685632Y-26032495D01*
X34672404Y-26033188D01*
X34672374Y-26032618D01*
X34664918Y-26033600D01*
X33608975Y-26033600D01*
X33602379Y-26033427D01*
X33578618Y-26032181D01*
X33578616Y-26032181D01*
X33565391Y-26031488D01*
X33547598Y-26038318D01*
X33528654Y-26043930D01*
X33510016Y-26047892D01*
X33499308Y-26055672D01*
X33495432Y-26057397D01*
X33491869Y-26059711D01*
X33479507Y-26064457D01*
X33466042Y-26077922D01*
X33451007Y-26090763D01*
X33446305Y-26094179D01*
X33446302Y-26094183D01*
X33435590Y-26101965D01*
X33428969Y-26113432D01*
X33420107Y-26123275D01*
X33419681Y-26122892D01*
X33415106Y-26128858D01*
X33337269Y-26206695D01*
X33274957Y-26240721D01*
X33248174Y-26243600D01*
X26839081Y-26243600D01*
X26770960Y-26223598D01*
X26724467Y-26169942D01*
X26714363Y-26099668D01*
X26743857Y-26035088D01*
X26749986Y-26028505D01*
X26806098Y-25972393D01*
X26859840Y-25866919D01*
X26863649Y-25842873D01*
X26876807Y-25759793D01*
X26878358Y-25750000D01*
X26874811Y-25727607D01*
X26861391Y-25642872D01*
X26861390Y-25642870D01*
X26859840Y-25633081D01*
X26806098Y-25527607D01*
X26722393Y-25443902D01*
X26616919Y-25390160D01*
X26607130Y-25388610D01*
X26607128Y-25388609D01*
X26509793Y-25373193D01*
X26500000Y-25371642D01*
X26490207Y-25373193D01*
X26392872Y-25388609D01*
X26392870Y-25388610D01*
X26383081Y-25390160D01*
X26277607Y-25443902D01*
X26193902Y-25527607D01*
X26140160Y-25633081D01*
X26138610Y-25642870D01*
X26138609Y-25642872D01*
X26125189Y-25727607D01*
X26121642Y-25750000D01*
X26123193Y-25759793D01*
X26136352Y-25842873D01*
X26140160Y-25866919D01*
X26193902Y-25972393D01*
X26250014Y-26028505D01*
X26284040Y-26090817D01*
X26278975Y-26161632D01*
X26236428Y-26218468D01*
X26169908Y-26243279D01*
X26160919Y-26243600D01*
X25058976Y-26243600D01*
X25052380Y-26243427D01*
X25028618Y-26242181D01*
X25028616Y-26242181D01*
X25015392Y-26241488D01*
X25003029Y-26246234D01*
X24997605Y-26248316D01*
X24978646Y-26253932D01*
X24972970Y-26255138D01*
X24972968Y-26255139D01*
X24960016Y-26257892D01*
X24949301Y-26265677D01*
X24945427Y-26267402D01*
X24941872Y-26269711D01*
X24929507Y-26274457D01*
X24916042Y-26287922D01*
X24901007Y-26300763D01*
X24896305Y-26304179D01*
X24896302Y-26304183D01*
X24885590Y-26311965D01*
X24878969Y-26323432D01*
X24870107Y-26333275D01*
X24869683Y-26332893D01*
X24865107Y-26338857D01*
X24635893Y-26568072D01*
X24427270Y-26776695D01*
X24364957Y-26810720D01*
X24338174Y-26813600D01*
X23578962Y-26813600D01*
X23572367Y-26813427D01*
X23548616Y-26812182D01*
X23548615Y-26812182D01*
X23535391Y-26811489D01*
X23523030Y-26816234D01*
X23523029Y-26816234D01*
X23517603Y-26818317D01*
X23498648Y-26823931D01*
X23480014Y-26827892D01*
X23479517Y-26825554D01*
X23427065Y-26832588D01*
X23362767Y-26802483D01*
X23324952Y-26742395D01*
X23325626Y-26671401D01*
X23357085Y-26618951D01*
X25272731Y-24703305D01*
X25335043Y-24669279D01*
X25361826Y-24666400D01*
X25591025Y-24666400D01*
X25597621Y-24666573D01*
X25621382Y-24667819D01*
X25621384Y-24667819D01*
X25634609Y-24668512D01*
X25652402Y-24661682D01*
X25671346Y-24656070D01*
X25689984Y-24652108D01*
X25700692Y-24644328D01*
X25704568Y-24642603D01*
X25708131Y-24640289D01*
X25720493Y-24635543D01*
X25733958Y-24622078D01*
X25748993Y-24609237D01*
X25753695Y-24605821D01*
X25753698Y-24605817D01*
X25764410Y-24598035D01*
X25771031Y-24586568D01*
X25779893Y-24576725D01*
X25780317Y-24577107D01*
X25784896Y-24571140D01*
X25954904Y-24401132D01*
X43241251Y-24401132D01*
X43241382Y-24402965D01*
X43245633Y-24409580D01*
X43369688Y-24533635D01*
X43383632Y-24541249D01*
X43385465Y-24541118D01*
X43392080Y-24536867D01*
X43516135Y-24412812D01*
X43522513Y-24401132D01*
X44141251Y-24401132D01*
X44141382Y-24402965D01*
X44145633Y-24409580D01*
X44269688Y-24533635D01*
X44283632Y-24541249D01*
X44285465Y-24541118D01*
X44292080Y-24536867D01*
X44416135Y-24412812D01*
X44422513Y-24401132D01*
X45041251Y-24401132D01*
X45041382Y-24402965D01*
X45045633Y-24409580D01*
X45169688Y-24533635D01*
X45183632Y-24541249D01*
X45185465Y-24541118D01*
X45192080Y-24536867D01*
X45316135Y-24412812D01*
X45323749Y-24398868D01*
X45323618Y-24397035D01*
X45319367Y-24390420D01*
X45195312Y-24266365D01*
X45181368Y-24258751D01*
X45179535Y-24258882D01*
X45172920Y-24263133D01*
X45048865Y-24387188D01*
X45041251Y-24401132D01*
X44422513Y-24401132D01*
X44423749Y-24398868D01*
X44423618Y-24397035D01*
X44419367Y-24390420D01*
X44295312Y-24266365D01*
X44281368Y-24258751D01*
X44279535Y-24258882D01*
X44272920Y-24263133D01*
X44148865Y-24387188D01*
X44141251Y-24401132D01*
X43522513Y-24401132D01*
X43523749Y-24398868D01*
X43523618Y-24397035D01*
X43519367Y-24390420D01*
X43395312Y-24266365D01*
X43381368Y-24258751D01*
X43379535Y-24258882D01*
X43372920Y-24263133D01*
X43248865Y-24387188D01*
X43241251Y-24401132D01*
X25954904Y-24401132D01*
X26560949Y-23795087D01*
X40918653Y-23795087D01*
X40920204Y-23804880D01*
X40935449Y-23901132D01*
X40937171Y-23912006D01*
X40990913Y-24017480D01*
X41074618Y-24101185D01*
X41180092Y-24154927D01*
X41189881Y-24156477D01*
X41189883Y-24156478D01*
X41287218Y-24171894D01*
X41297011Y-24173445D01*
X41306804Y-24171894D01*
X41404139Y-24156478D01*
X41404141Y-24156477D01*
X41413930Y-24154927D01*
X41519404Y-24101185D01*
X41603109Y-24017480D01*
X41656851Y-23912006D01*
X41658574Y-23901132D01*
X41659329Y-23896362D01*
X42620466Y-23896362D01*
X42635686Y-24051585D01*
X42638597Y-24065280D01*
X42687827Y-24213270D01*
X42690229Y-24218468D01*
X42698217Y-24225772D01*
X42706838Y-24222109D01*
X43016135Y-23912812D01*
X43022513Y-23901132D01*
X43741251Y-23901132D01*
X43741382Y-23902965D01*
X43745633Y-23909580D01*
X43819688Y-23983635D01*
X43833632Y-23991249D01*
X43835465Y-23991118D01*
X43842080Y-23986867D01*
X43916135Y-23912812D01*
X43922513Y-23901132D01*
X44641251Y-23901132D01*
X44641382Y-23902965D01*
X44645633Y-23909580D01*
X44719688Y-23983635D01*
X44733632Y-23991249D01*
X44735465Y-23991118D01*
X44742080Y-23986867D01*
X44816135Y-23912812D01*
X44822513Y-23901132D01*
X45541251Y-23901132D01*
X45541382Y-23902965D01*
X45545633Y-23909580D01*
X45854678Y-24218625D01*
X45867058Y-24225385D01*
X45870874Y-24222528D01*
X45918831Y-24096283D01*
X45922311Y-24082727D01*
X45944448Y-23925221D01*
X45945054Y-23917338D01*
X45945241Y-23903962D01*
X45944854Y-23896062D01*
X45927125Y-23738003D01*
X45924023Y-23724350D01*
X45873200Y-23578407D01*
X45867641Y-23573467D01*
X45858588Y-23577465D01*
X45548865Y-23887188D01*
X45541251Y-23901132D01*
X44822513Y-23901132D01*
X44823749Y-23898868D01*
X44823618Y-23897035D01*
X44819367Y-23890420D01*
X44745312Y-23816365D01*
X44731368Y-23808751D01*
X44729535Y-23808882D01*
X44722920Y-23813133D01*
X44648865Y-23887188D01*
X44641251Y-23901132D01*
X43922513Y-23901132D01*
X43923749Y-23898868D01*
X43923618Y-23897035D01*
X43919367Y-23890420D01*
X43845312Y-23816365D01*
X43831368Y-23808751D01*
X43829535Y-23808882D01*
X43822920Y-23813133D01*
X43748865Y-23887188D01*
X43741251Y-23901132D01*
X43022513Y-23901132D01*
X43023749Y-23898868D01*
X43023618Y-23897035D01*
X43019367Y-23890420D01*
X42709539Y-23580592D01*
X42697159Y-23573832D01*
X42693537Y-23576543D01*
X42643501Y-23714016D01*
X42640209Y-23727625D01*
X42620662Y-23882356D01*
X42620466Y-23896362D01*
X41659329Y-23896362D01*
X41673818Y-23804880D01*
X41675369Y-23795087D01*
X41664322Y-23725339D01*
X41658402Y-23687959D01*
X41658401Y-23687957D01*
X41656851Y-23678168D01*
X41603109Y-23572694D01*
X41519404Y-23488989D01*
X41413930Y-23435247D01*
X41404141Y-23433697D01*
X41404139Y-23433696D01*
X41306804Y-23418280D01*
X41297011Y-23416729D01*
X41287218Y-23418280D01*
X41189883Y-23433696D01*
X41189881Y-23433697D01*
X41180092Y-23435247D01*
X41074618Y-23488989D01*
X40990913Y-23572694D01*
X40937171Y-23678168D01*
X40935621Y-23687957D01*
X40935620Y-23687959D01*
X40929700Y-23725339D01*
X40918653Y-23795087D01*
X26560949Y-23795087D01*
X27056036Y-23300000D01*
X34031642Y-23300000D01*
X34033193Y-23309793D01*
X34046635Y-23394661D01*
X34050160Y-23416919D01*
X34103902Y-23522393D01*
X34187607Y-23606098D01*
X34293081Y-23659840D01*
X34302870Y-23661390D01*
X34302872Y-23661391D01*
X34400207Y-23676807D01*
X34410000Y-23678358D01*
X34419793Y-23676807D01*
X34517128Y-23661391D01*
X34517130Y-23661390D01*
X34526919Y-23659840D01*
X34632393Y-23606098D01*
X34716098Y-23522393D01*
X34769840Y-23416919D01*
X34773366Y-23394661D01*
X34786807Y-23309793D01*
X34788358Y-23300000D01*
X34776342Y-23224131D01*
X34771391Y-23192872D01*
X34771390Y-23192870D01*
X34769840Y-23183081D01*
X34716098Y-23077607D01*
X34638491Y-23000000D01*
X35921642Y-23000000D01*
X35923193Y-23009793D01*
X35935333Y-23086440D01*
X35940160Y-23116919D01*
X35993902Y-23222393D01*
X36077607Y-23306098D01*
X36183081Y-23359840D01*
X36192870Y-23361390D01*
X36192872Y-23361391D01*
X36290207Y-23376807D01*
X36300000Y-23378358D01*
X36309793Y-23376807D01*
X36407128Y-23361391D01*
X36407130Y-23361390D01*
X36416919Y-23359840D01*
X36522393Y-23306098D01*
X36606098Y-23222393D01*
X36609711Y-23215302D01*
X43056360Y-23215302D01*
X43060184Y-23224131D01*
X43369688Y-23533635D01*
X43383632Y-23541249D01*
X43385465Y-23541118D01*
X43392080Y-23536867D01*
X43702348Y-23226599D01*
X43708517Y-23215301D01*
X43956360Y-23215301D01*
X43960185Y-23224132D01*
X44269688Y-23533635D01*
X44283632Y-23541249D01*
X44285465Y-23541118D01*
X44292080Y-23536867D01*
X44602348Y-23226599D01*
X44608517Y-23215301D01*
X44856360Y-23215301D01*
X44860185Y-23224132D01*
X45169688Y-23533635D01*
X45183632Y-23541249D01*
X45185465Y-23541118D01*
X45192080Y-23536867D01*
X45502347Y-23226600D01*
X45509107Y-23214220D01*
X45506522Y-23210766D01*
X45506222Y-23210606D01*
X45363320Y-23159720D01*
X45349695Y-23156524D01*
X45194818Y-23138057D01*
X45180821Y-23137959D01*
X45025707Y-23154262D01*
X45012033Y-23157268D01*
X44864384Y-23207532D01*
X44862613Y-23208366D01*
X44856360Y-23215301D01*
X44608517Y-23215301D01*
X44609107Y-23214221D01*
X44606522Y-23210766D01*
X44606222Y-23210606D01*
X44463320Y-23159720D01*
X44449695Y-23156524D01*
X44294818Y-23138057D01*
X44280821Y-23137959D01*
X44125707Y-23154262D01*
X44112033Y-23157268D01*
X43964384Y-23207532D01*
X43962613Y-23208366D01*
X43956360Y-23215301D01*
X43708517Y-23215301D01*
X43709107Y-23214221D01*
X43706522Y-23210766D01*
X43706222Y-23210606D01*
X43563320Y-23159720D01*
X43549695Y-23156524D01*
X43394818Y-23138057D01*
X43380821Y-23137959D01*
X43225707Y-23154262D01*
X43212033Y-23157268D01*
X43064384Y-23207532D01*
X43062613Y-23208366D01*
X43056360Y-23215302D01*
X36609711Y-23215302D01*
X36659840Y-23116919D01*
X36664668Y-23086440D01*
X36676807Y-23009793D01*
X36678358Y-23000000D01*
X36676807Y-22990207D01*
X36661391Y-22892872D01*
X36661390Y-22892870D01*
X36659840Y-22883081D01*
X36606098Y-22777607D01*
X36522393Y-22693902D01*
X36416919Y-22640160D01*
X36407130Y-22638610D01*
X36407128Y-22638609D01*
X36309793Y-22623193D01*
X36300000Y-22621642D01*
X36290207Y-22623193D01*
X36192872Y-22638609D01*
X36192870Y-22638610D01*
X36183081Y-22640160D01*
X36077607Y-22693902D01*
X35993902Y-22777607D01*
X35940160Y-22883081D01*
X35938610Y-22892870D01*
X35938609Y-22892872D01*
X35923193Y-22990207D01*
X35921642Y-23000000D01*
X34638491Y-23000000D01*
X34632393Y-22993902D01*
X34526919Y-22940160D01*
X34517130Y-22938610D01*
X34517128Y-22938609D01*
X34419793Y-22923193D01*
X34410000Y-22921642D01*
X34400207Y-22923193D01*
X34302872Y-22938609D01*
X34302870Y-22938610D01*
X34293081Y-22940160D01*
X34187607Y-22993902D01*
X34103902Y-23077607D01*
X34050160Y-23183081D01*
X34048610Y-23192870D01*
X34048609Y-23192872D01*
X34043658Y-23224131D01*
X34031642Y-23300000D01*
X27056036Y-23300000D01*
X27066661Y-23289375D01*
X27071446Y-23284833D01*
X27089143Y-23268899D01*
X27098983Y-23260039D01*
X27106734Y-23242630D01*
X27116162Y-23225265D01*
X27126540Y-23209284D01*
X27128612Y-23196202D01*
X27130131Y-23192245D01*
X27131013Y-23188097D01*
X27136400Y-23175997D01*
X27136400Y-23156953D01*
X27137951Y-23137242D01*
X27138860Y-23131500D01*
X27139550Y-23127144D01*
X27139552Y-23127137D01*
X27140932Y-23118421D01*
X27141597Y-23118526D01*
X27155206Y-23061234D01*
X27206354Y-23011996D01*
X27276002Y-22998227D01*
X27342039Y-23024298D01*
X27366558Y-23049647D01*
X27369401Y-23053560D01*
X27373902Y-23062393D01*
X27457607Y-23146098D01*
X27563081Y-23199840D01*
X27572870Y-23201390D01*
X27572872Y-23201391D01*
X27670207Y-23216807D01*
X27680000Y-23218358D01*
X27689793Y-23216807D01*
X27787128Y-23201391D01*
X27787130Y-23201390D01*
X27796919Y-23199840D01*
X27902393Y-23146098D01*
X27986098Y-23062393D01*
X28039840Y-22956919D01*
X28041782Y-22944661D01*
X28056807Y-22849793D01*
X28058358Y-22840000D01*
X28053152Y-22807128D01*
X28041391Y-22732872D01*
X28041390Y-22732870D01*
X28039840Y-22723081D01*
X27986098Y-22617607D01*
X27902393Y-22533902D01*
X27845016Y-22504667D01*
X27793401Y-22455919D01*
X27776335Y-22387004D01*
X27799236Y-22319802D01*
X27854833Y-22275650D01*
X27902219Y-22266400D01*
X41701982Y-22266400D01*
X41770103Y-22286402D01*
X41816596Y-22340058D01*
X41826700Y-22410332D01*
X41803917Y-22466463D01*
X41800917Y-22470592D01*
X41793902Y-22477607D01*
X41740160Y-22583081D01*
X41738610Y-22592870D01*
X41738609Y-22592872D01*
X41723193Y-22690207D01*
X41721642Y-22700000D01*
X41723193Y-22709793D01*
X41735333Y-22786440D01*
X41740160Y-22816919D01*
X41793902Y-22922393D01*
X41877607Y-23006098D01*
X41983081Y-23059840D01*
X41992870Y-23061390D01*
X41992872Y-23061391D01*
X42090207Y-23076807D01*
X42100000Y-23078358D01*
X42109793Y-23076807D01*
X42207128Y-23061391D01*
X42207130Y-23061390D01*
X42216919Y-23059840D01*
X42322393Y-23006098D01*
X42406098Y-22922393D01*
X42459840Y-22816919D01*
X42464668Y-22786440D01*
X42476807Y-22709793D01*
X42478358Y-22700000D01*
X42476807Y-22690207D01*
X42461391Y-22592872D01*
X42461390Y-22592870D01*
X42459840Y-22583081D01*
X42406098Y-22477607D01*
X42399083Y-22470592D01*
X42396083Y-22466463D01*
X42372224Y-22399596D01*
X42388303Y-22330444D01*
X42439216Y-22280963D01*
X42498018Y-22266400D01*
X43801025Y-22266400D01*
X43807621Y-22266573D01*
X43831382Y-22267819D01*
X43831384Y-22267819D01*
X43844609Y-22268512D01*
X43862402Y-22261682D01*
X43881346Y-22256070D01*
X43899984Y-22252108D01*
X43910692Y-22244328D01*
X43914568Y-22242603D01*
X43918131Y-22240289D01*
X43930493Y-22235543D01*
X43942324Y-22223712D01*
X43950683Y-22219147D01*
X43950961Y-22218967D01*
X43950975Y-22218988D01*
X44004636Y-22189686D01*
X44031419Y-22186807D01*
X44040207Y-22186807D01*
X44050000Y-22188358D01*
X44059793Y-22186807D01*
X44157128Y-22171391D01*
X44157130Y-22171390D01*
X44166919Y-22169840D01*
X44272393Y-22116098D01*
X44356098Y-22032393D01*
X44409840Y-21926919D01*
X44411673Y-21915350D01*
X44426807Y-21819793D01*
X44428358Y-21810000D01*
X44409840Y-21693081D01*
X44356098Y-21587607D01*
X44272393Y-21503902D01*
X44166919Y-21450160D01*
X44157130Y-21448610D01*
X44157128Y-21448609D01*
X44059793Y-21433193D01*
X44050000Y-21431642D01*
X44040207Y-21433193D01*
X43942872Y-21448609D01*
X43942870Y-21448610D01*
X43933081Y-21450160D01*
X43827607Y-21503902D01*
X43743902Y-21587607D01*
X43690160Y-21693081D01*
X43685518Y-21722393D01*
X43684739Y-21727309D01*
X43654328Y-21791462D01*
X43594060Y-21828990D01*
X43560290Y-21833600D01*
X41855049Y-21833600D01*
X41786928Y-21813598D01*
X41740435Y-21759942D01*
X41730331Y-21689668D01*
X41742782Y-21650397D01*
X41746000Y-21644081D01*
X41759840Y-21616919D01*
X41770584Y-21549087D01*
X41776807Y-21509793D01*
X41778358Y-21500000D01*
X41759840Y-21383081D01*
X41706098Y-21277607D01*
X41622393Y-21193902D01*
X41621819Y-21193610D01*
X41581611Y-21141463D01*
X41575537Y-21070727D01*
X41608671Y-21007936D01*
X41633098Y-20988378D01*
X41684625Y-20956740D01*
X41684626Y-20956740D01*
X41692273Y-20952044D01*
X41731616Y-20908579D01*
X41773304Y-20862523D01*
X41773305Y-20862521D01*
X41779332Y-20855863D01*
X41790133Y-20833571D01*
X41831983Y-20747191D01*
X41831983Y-20747190D01*
X41835897Y-20739112D01*
X41857420Y-20611179D01*
X41857557Y-20600000D01*
X41856756Y-20594410D01*
X45842477Y-20594410D01*
X45843641Y-20603312D01*
X45843641Y-20603315D01*
X45848314Y-20639045D01*
X45859298Y-20723046D01*
X45911547Y-20841791D01*
X45995023Y-20941098D01*
X46002494Y-20946071D01*
X46002495Y-20946072D01*
X46095542Y-21008009D01*
X46095546Y-21008011D01*
X46103017Y-21012984D01*
X46226845Y-21051671D01*
X46356555Y-21054048D01*
X46375093Y-21048994D01*
X46473059Y-21022286D01*
X46473061Y-21022285D01*
X46481718Y-21019925D01*
X46592273Y-20952044D01*
X46631616Y-20908579D01*
X46673304Y-20862523D01*
X46673305Y-20862521D01*
X46679332Y-20855863D01*
X46690133Y-20833571D01*
X46731983Y-20747191D01*
X46731983Y-20747190D01*
X46735897Y-20739112D01*
X46757420Y-20611179D01*
X46757557Y-20600000D01*
X46739166Y-20471579D01*
X46733038Y-20458100D01*
X46720427Y-20430364D01*
X49745488Y-20430364D01*
X49750769Y-20437418D01*
X49912267Y-20531790D01*
X49921553Y-20536240D01*
X50120512Y-20612214D01*
X50130410Y-20615090D01*
X50339106Y-20657549D01*
X50349334Y-20658768D01*
X50562161Y-20666573D01*
X50572447Y-20666106D01*
X50783696Y-20639045D01*
X50793773Y-20636903D01*
X50997766Y-20575702D01*
X51007358Y-20571942D01*
X51122504Y-20515533D01*
X51192478Y-20503526D01*
X51257835Y-20531256D01*
X51297825Y-20589919D01*
X51299751Y-20660889D01*
X51267031Y-20717778D01*
X50980718Y-21004092D01*
X50977286Y-21009229D01*
X50977283Y-21009232D01*
X50969690Y-21020596D01*
X50955453Y-21041903D01*
X50943586Y-21101562D01*
X50955453Y-21161221D01*
X50980717Y-21199032D01*
X52204092Y-22422406D01*
X52209229Y-22425838D01*
X52209232Y-22425841D01*
X52223778Y-22435560D01*
X52241903Y-22447671D01*
X52301562Y-22459538D01*
X52313733Y-22457117D01*
X52349050Y-22450092D01*
X52361221Y-22447671D01*
X52399032Y-22422407D01*
X53622406Y-21199032D01*
X53635032Y-21180137D01*
X53635560Y-21179346D01*
X53647671Y-21161221D01*
X53659538Y-21101562D01*
X53647671Y-21041903D01*
X53634564Y-21022286D01*
X53625845Y-21009237D01*
X53625841Y-21009232D01*
X53622407Y-21004092D01*
X52399032Y-19780718D01*
X52393895Y-19777286D01*
X52393892Y-19777283D01*
X52371538Y-19762347D01*
X52371539Y-19762347D01*
X52361221Y-19755453D01*
X52301562Y-19743586D01*
X52241903Y-19755453D01*
X52204092Y-19780717D01*
X51917629Y-20067180D01*
X51855320Y-20101203D01*
X51784505Y-20096139D01*
X51727669Y-20053592D01*
X51702858Y-19987072D01*
X51715580Y-19922256D01*
X51770181Y-19811779D01*
X51773980Y-19802183D01*
X51835887Y-19598426D01*
X51838066Y-19588345D01*
X51866101Y-19375398D01*
X51866620Y-19368723D01*
X51868083Y-19308875D01*
X51867889Y-19302157D01*
X51850292Y-19088115D01*
X51848607Y-19077935D01*
X51796725Y-18871386D01*
X51793405Y-18861635D01*
X51708483Y-18666325D01*
X51703616Y-18657250D01*
X51638574Y-18556708D01*
X51627888Y-18547506D01*
X51618323Y-18551909D01*
X49752248Y-20417984D01*
X49745488Y-20430364D01*
X46720427Y-20430364D01*
X46700153Y-20385776D01*
X46685470Y-20353482D01*
X46600787Y-20255202D01*
X46491923Y-20184640D01*
X46367631Y-20147469D01*
X46358655Y-20147414D01*
X46358654Y-20147414D01*
X46305353Y-20147088D01*
X46237902Y-20146676D01*
X46113166Y-20182326D01*
X46105579Y-20187113D01*
X46105577Y-20187114D01*
X46063663Y-20213560D01*
X46003448Y-20251553D01*
X45917570Y-20348791D01*
X45913756Y-20356914D01*
X45913755Y-20356916D01*
X45889168Y-20409286D01*
X45862436Y-20466223D01*
X45861056Y-20475087D01*
X45861055Y-20475090D01*
X45845390Y-20575702D01*
X45842477Y-20594410D01*
X41856756Y-20594410D01*
X41839166Y-20471579D01*
X41833038Y-20458100D01*
X41800153Y-20385776D01*
X41785470Y-20353482D01*
X41700787Y-20255202D01*
X41591923Y-20184640D01*
X41467631Y-20147469D01*
X41458655Y-20147414D01*
X41458654Y-20147414D01*
X41405353Y-20147088D01*
X41337902Y-20146676D01*
X41213166Y-20182326D01*
X41205579Y-20187113D01*
X41205577Y-20187114D01*
X41163663Y-20213560D01*
X41103448Y-20251553D01*
X41017570Y-20348791D01*
X41013756Y-20356914D01*
X41013755Y-20356916D01*
X40989168Y-20409286D01*
X40962436Y-20466223D01*
X40961056Y-20475087D01*
X40961055Y-20475090D01*
X40945390Y-20575702D01*
X40942477Y-20594410D01*
X40943641Y-20603312D01*
X40943641Y-20603315D01*
X40948314Y-20639045D01*
X40959298Y-20723046D01*
X41011547Y-20841791D01*
X41095023Y-20941098D01*
X41102493Y-20946071D01*
X41102496Y-20946073D01*
X41170312Y-20991215D01*
X41215935Y-21045612D01*
X41224906Y-21116040D01*
X41194376Y-21180137D01*
X41181112Y-21192116D01*
X41177607Y-21193902D01*
X41093902Y-21277607D01*
X41040160Y-21383081D01*
X41021642Y-21500000D01*
X41023193Y-21509793D01*
X41029417Y-21549087D01*
X41040160Y-21616919D01*
X41054000Y-21644081D01*
X41057218Y-21650397D01*
X41070322Y-21720174D01*
X41043622Y-21785958D01*
X40985595Y-21826865D01*
X40944951Y-21833600D01*
X28442593Y-21833600D01*
X28374472Y-21813598D01*
X28327979Y-21759942D01*
X28317875Y-21689668D01*
X28347369Y-21625088D01*
X28385390Y-21595333D01*
X28453561Y-21560598D01*
X28462393Y-21556098D01*
X28546098Y-21472393D01*
X28599840Y-21366919D01*
X28604633Y-21336661D01*
X28616807Y-21259793D01*
X28618358Y-21250000D01*
X28609473Y-21193902D01*
X28601391Y-21142872D01*
X28601390Y-21142870D01*
X28599840Y-21133081D01*
X28546098Y-21027607D01*
X28462393Y-20943902D01*
X28356919Y-20890160D01*
X28347130Y-20888610D01*
X28347128Y-20888609D01*
X28249793Y-20873193D01*
X28240000Y-20871642D01*
X28230207Y-20873193D01*
X28132872Y-20888609D01*
X28132870Y-20888610D01*
X28123081Y-20890160D01*
X28017607Y-20943902D01*
X27933902Y-21027607D01*
X27880160Y-21133081D01*
X27878610Y-21142870D01*
X27878609Y-21142872D01*
X27870527Y-21193902D01*
X27861642Y-21250000D01*
X27863193Y-21259793D01*
X27875368Y-21336661D01*
X27880160Y-21366919D01*
X27933902Y-21472393D01*
X28017607Y-21556098D01*
X28026439Y-21560598D01*
X28094610Y-21595333D01*
X28146225Y-21644081D01*
X28163291Y-21712996D01*
X28140390Y-21780198D01*
X28084793Y-21824350D01*
X28037407Y-21833600D01*
X27688962Y-21833600D01*
X27682367Y-21833427D01*
X27658617Y-21832182D01*
X27658616Y-21832182D01*
X27645391Y-21831489D01*
X27633027Y-21836235D01*
X27633028Y-21836235D01*
X27627604Y-21838317D01*
X27608655Y-21843930D01*
X27590016Y-21847892D01*
X27579301Y-21855677D01*
X27575431Y-21857400D01*
X27571871Y-21859712D01*
X27559507Y-21864458D01*
X27546042Y-21877923D01*
X27531007Y-21890764D01*
X27527287Y-21893467D01*
X27515590Y-21901965D01*
X27508968Y-21913435D01*
X27500107Y-21923276D01*
X27499683Y-21922894D01*
X27495104Y-21928861D01*
X26773349Y-22650616D01*
X26768565Y-22655157D01*
X26741017Y-22679961D01*
X26735632Y-22692057D01*
X26735630Y-22692059D01*
X26733267Y-22697367D01*
X26723832Y-22714744D01*
X26713460Y-22730716D01*
X26711389Y-22743793D01*
X26709869Y-22747752D01*
X26708986Y-22751905D01*
X26703600Y-22764003D01*
X26703600Y-22783047D01*
X26702049Y-22802758D01*
X26699068Y-22821579D01*
X26702495Y-22834368D01*
X26703188Y-22847596D01*
X26702618Y-22847626D01*
X26703600Y-22855082D01*
X26703600Y-22988174D01*
X26683598Y-23056295D01*
X26666695Y-23077269D01*
X25547270Y-24196695D01*
X25484958Y-24230720D01*
X25458175Y-24233600D01*
X25228962Y-24233600D01*
X25222367Y-24233427D01*
X25198617Y-24232182D01*
X25198616Y-24232182D01*
X25185391Y-24231489D01*
X25173027Y-24236235D01*
X25173028Y-24236235D01*
X25167604Y-24238317D01*
X25148655Y-24243930D01*
X25130016Y-24247892D01*
X25119301Y-24255677D01*
X25115431Y-24257400D01*
X25111871Y-24259712D01*
X25099507Y-24264458D01*
X25086042Y-24277923D01*
X25071007Y-24290764D01*
X25055590Y-24301965D01*
X25048968Y-24313435D01*
X25040107Y-24323276D01*
X25039683Y-24322894D01*
X25035104Y-24328861D01*
X22937677Y-26426288D01*
X22875365Y-26460314D01*
X22848582Y-26463193D01*
X22839792Y-26463193D01*
X22830000Y-26461642D01*
X22820207Y-26463193D01*
X22722872Y-26478609D01*
X22722870Y-26478610D01*
X22713081Y-26480160D01*
X22607607Y-26533902D01*
X22523902Y-26617607D01*
X22470160Y-26723081D01*
X22468610Y-26732870D01*
X22468609Y-26732872D01*
X22458205Y-26798564D01*
X22451642Y-26840000D01*
X22453193Y-26849793D01*
X22467386Y-26939402D01*
X22470160Y-26956919D01*
X22523902Y-27062393D01*
X22590014Y-27128505D01*
X22624040Y-27190817D01*
X22618975Y-27261632D01*
X22576428Y-27318468D01*
X22509908Y-27343279D01*
X22500919Y-27343600D01*
X22169954Y-27343600D01*
X22101833Y-27323598D01*
X22055340Y-27269942D01*
X22045236Y-27199668D01*
X22057687Y-27160397D01*
X22068880Y-27138429D01*
X22079840Y-27116919D01*
X22082911Y-27097533D01*
X22096807Y-27009793D01*
X22098358Y-27000000D01*
X22092934Y-26965752D01*
X22081391Y-26892872D01*
X22081390Y-26892870D01*
X22079840Y-26883081D01*
X22026098Y-26777607D01*
X21942393Y-26693902D01*
X21836919Y-26640160D01*
X21827130Y-26638610D01*
X21827128Y-26638609D01*
X21729793Y-26623193D01*
X21720000Y-26621642D01*
X21710207Y-26623193D01*
X21612872Y-26638609D01*
X21612870Y-26638610D01*
X21603081Y-26640160D01*
X21497607Y-26693902D01*
X21413902Y-26777607D01*
X21360160Y-26883081D01*
X21358071Y-26882017D01*
X21325750Y-26929293D01*
X21260356Y-26956936D01*
X21190398Y-26944835D01*
X21156888Y-26920853D01*
X21039384Y-26803349D01*
X21034842Y-26798564D01*
X21018899Y-26780857D01*
X21018898Y-26780857D01*
X21010039Y-26771017D01*
X20997943Y-26765632D01*
X20997941Y-26765630D01*
X20992633Y-26763267D01*
X20975256Y-26753832D01*
X20970390Y-26750672D01*
X20970389Y-26750672D01*
X20959284Y-26743460D01*
X20946207Y-26741389D01*
X20942248Y-26739869D01*
X20938095Y-26738986D01*
X20925997Y-26733600D01*
X20906953Y-26733600D01*
X20887242Y-26732049D01*
X20881498Y-26731139D01*
X20881497Y-26731139D01*
X20868421Y-26729068D01*
X20855632Y-26732495D01*
X20842404Y-26733188D01*
X20842374Y-26732618D01*
X20834918Y-26733600D01*
X20481827Y-26733600D01*
X20413706Y-26713598D01*
X20392732Y-26696696D01*
X19753712Y-26057677D01*
X19719687Y-25995364D01*
X19716807Y-25968581D01*
X19716807Y-25959792D01*
X19718358Y-25950000D01*
X19708888Y-25890207D01*
X19701391Y-25842872D01*
X19701390Y-25842870D01*
X19699840Y-25833081D01*
X19646098Y-25727607D01*
X19562393Y-25643902D01*
X19456919Y-25590160D01*
X19447130Y-25588610D01*
X19447128Y-25588609D01*
X19349793Y-25573193D01*
X19340000Y-25571642D01*
X19330207Y-25573193D01*
X19232872Y-25588609D01*
X19232870Y-25588610D01*
X19223081Y-25590160D01*
X19117607Y-25643902D01*
X19033902Y-25727607D01*
X18980160Y-25833081D01*
X18978609Y-25842872D01*
X18978609Y-25842873D01*
X18968087Y-25909305D01*
X18937674Y-25973458D01*
X18877406Y-26010985D01*
X18806417Y-26009971D01*
X18754547Y-25978692D01*
X18392616Y-25616761D01*
X18358592Y-25554451D01*
X18363657Y-25483635D01*
X18406204Y-25426800D01*
X18424509Y-25415402D01*
X18453558Y-25400600D01*
X18453559Y-25400599D01*
X18462393Y-25396098D01*
X18546098Y-25312393D01*
X18599840Y-25206919D01*
X18601408Y-25197023D01*
X18616807Y-25099793D01*
X18618358Y-25090000D01*
X18602697Y-24991118D01*
X18601391Y-24982872D01*
X18601390Y-24982870D01*
X18599840Y-24973081D01*
X18546098Y-24867607D01*
X18462393Y-24783902D01*
X18356919Y-24730160D01*
X18347130Y-24728610D01*
X18347128Y-24728609D01*
X18249793Y-24713193D01*
X18240000Y-24711642D01*
X18230207Y-24713193D01*
X18132872Y-24728609D01*
X18132870Y-24728610D01*
X18123081Y-24730160D01*
X18017607Y-24783902D01*
X17933902Y-24867607D01*
X17929402Y-24876439D01*
X17911947Y-24910696D01*
X17863199Y-24962311D01*
X17794284Y-24979377D01*
X17725618Y-24955428D01*
X17719404Y-24950913D01*
X17712393Y-24943902D01*
X17703562Y-24939402D01*
X17703560Y-24939401D01*
X17647223Y-24910696D01*
X17606919Y-24890160D01*
X17597130Y-24888610D01*
X17597128Y-24888609D01*
X17499793Y-24873193D01*
X17490000Y-24871642D01*
X17480207Y-24873193D01*
X17382872Y-24888609D01*
X17382870Y-24888610D01*
X17373081Y-24890160D01*
X17267607Y-24943902D01*
X17183902Y-25027607D01*
X17130160Y-25133081D01*
X17111642Y-25250000D01*
X17113193Y-25259793D01*
X17127618Y-25350867D01*
X17130160Y-25366919D01*
X17183902Y-25472393D01*
X17192414Y-25480905D01*
X17193655Y-25483178D01*
X17196741Y-25487425D01*
X17196192Y-25487824D01*
X17226440Y-25543217D01*
X17221375Y-25614032D01*
X17192414Y-25659095D01*
X17173902Y-25677607D01*
X17120160Y-25783081D01*
X17118610Y-25792870D01*
X17118609Y-25792872D01*
X17108432Y-25857128D01*
X17101642Y-25900000D01*
X15450905Y-25900000D01*
X15502384Y-24935003D01*
X15502547Y-24932443D01*
X15503904Y-24914105D01*
X15590007Y-23750000D01*
X18621642Y-23750000D01*
X18640160Y-23866919D01*
X18693902Y-23972393D01*
X18777607Y-24056098D01*
X18883081Y-24109840D01*
X18892870Y-24111390D01*
X18892872Y-24111391D01*
X18990207Y-24126807D01*
X19000000Y-24128358D01*
X19009793Y-24126807D01*
X19107128Y-24111391D01*
X19107130Y-24111390D01*
X19116919Y-24109840D01*
X19222393Y-24056098D01*
X19306098Y-23972393D01*
X19359840Y-23866919D01*
X19378358Y-23750000D01*
X19374452Y-23725339D01*
X19361391Y-23642872D01*
X19361390Y-23642870D01*
X19359840Y-23633081D01*
X19306098Y-23527607D01*
X19222393Y-23443902D01*
X19116919Y-23390160D01*
X19107130Y-23388610D01*
X19107128Y-23388609D01*
X19009793Y-23373193D01*
X19000000Y-23371642D01*
X18990207Y-23373193D01*
X18892872Y-23388609D01*
X18892870Y-23388610D01*
X18883081Y-23390160D01*
X18777607Y-23443902D01*
X18693902Y-23527607D01*
X18640160Y-23633081D01*
X18638610Y-23642870D01*
X18638609Y-23642872D01*
X18625548Y-23725339D01*
X18621642Y-23750000D01*
X15590007Y-23750000D01*
X15615255Y-23408644D01*
X15615473Y-23406068D01*
X15618242Y-23376807D01*
X15632137Y-23230000D01*
X17061642Y-23230000D01*
X17063193Y-23239793D01*
X17073695Y-23306098D01*
X17080160Y-23346919D01*
X17133902Y-23452393D01*
X17217607Y-23536098D01*
X17323081Y-23589840D01*
X17332870Y-23591390D01*
X17332872Y-23591391D01*
X17430207Y-23606807D01*
X17440000Y-23608358D01*
X17449793Y-23606807D01*
X17547128Y-23591391D01*
X17547130Y-23591390D01*
X17556919Y-23589840D01*
X17662393Y-23536098D01*
X17746098Y-23452393D01*
X17788080Y-23370000D01*
X21671642Y-23370000D01*
X21673193Y-23379793D01*
X21684692Y-23452393D01*
X21690160Y-23486919D01*
X21743902Y-23592393D01*
X21827607Y-23676098D01*
X21933081Y-23729840D01*
X21942870Y-23731390D01*
X21942872Y-23731391D01*
X22040207Y-23746807D01*
X22050000Y-23748358D01*
X22059793Y-23746807D01*
X22157128Y-23731391D01*
X22157130Y-23731390D01*
X22166919Y-23729840D01*
X22272393Y-23676098D01*
X22356098Y-23592393D01*
X22409840Y-23486919D01*
X22415309Y-23452393D01*
X22426807Y-23379793D01*
X22428358Y-23370000D01*
X22415720Y-23290207D01*
X22411391Y-23262872D01*
X22411390Y-23262870D01*
X22409840Y-23253081D01*
X22356098Y-23147607D01*
X22272393Y-23063902D01*
X22166919Y-23010160D01*
X22157130Y-23008610D01*
X22157128Y-23008609D01*
X22059793Y-22993193D01*
X22050000Y-22991642D01*
X22040207Y-22993193D01*
X21942872Y-23008609D01*
X21942870Y-23008610D01*
X21933081Y-23010160D01*
X21827607Y-23063902D01*
X21743902Y-23147607D01*
X21690160Y-23253081D01*
X21688610Y-23262870D01*
X21688609Y-23262872D01*
X21684280Y-23290207D01*
X21671642Y-23370000D01*
X17788080Y-23370000D01*
X17799840Y-23346919D01*
X17806306Y-23306098D01*
X17816807Y-23239793D01*
X17818358Y-23230000D01*
X17816514Y-23218358D01*
X17801391Y-23122872D01*
X17801390Y-23122870D01*
X17799840Y-23113081D01*
X17746098Y-23007607D01*
X17662393Y-22923902D01*
X17556919Y-22870160D01*
X17547130Y-22868610D01*
X17547128Y-22868609D01*
X17449793Y-22853193D01*
X17440000Y-22851642D01*
X17430207Y-22853193D01*
X17332872Y-22868609D01*
X17332870Y-22868610D01*
X17323081Y-22870160D01*
X17217607Y-22923902D01*
X17133902Y-23007607D01*
X17080160Y-23113081D01*
X17078610Y-23122870D01*
X17078609Y-23122872D01*
X17063486Y-23218358D01*
X17061642Y-23230000D01*
X15632137Y-23230000D01*
X15756076Y-21920495D01*
X15757455Y-21914653D01*
X15758996Y-21899846D01*
X15764860Y-21884690D01*
X15764826Y-21884469D01*
X15764905Y-21884262D01*
X15762362Y-21868216D01*
X15763928Y-21853805D01*
X15764462Y-21849561D01*
X15829470Y-21395494D01*
X15831016Y-21386852D01*
X15835900Y-21364151D01*
X15889769Y-21113733D01*
X15933902Y-20908579D01*
X15936046Y-20900066D01*
X16071986Y-20430113D01*
X16074718Y-20421770D01*
X16229281Y-20000000D01*
X39121642Y-20000000D01*
X39140160Y-20116919D01*
X39193902Y-20222393D01*
X39277607Y-20306098D01*
X39383081Y-20359840D01*
X39392870Y-20361390D01*
X39392872Y-20361391D01*
X39490207Y-20376807D01*
X39500000Y-20378358D01*
X39509793Y-20376807D01*
X39607128Y-20361391D01*
X39607130Y-20361390D01*
X39616919Y-20359840D01*
X39722393Y-20306098D01*
X39806098Y-20222393D01*
X39859840Y-20116919D01*
X39878358Y-20000000D01*
X39871120Y-19954298D01*
X39861391Y-19892872D01*
X39861390Y-19892870D01*
X39859840Y-19883081D01*
X39806098Y-19777607D01*
X39722393Y-19693902D01*
X39616919Y-19640160D01*
X39607130Y-19638610D01*
X39607128Y-19638609D01*
X39509793Y-19623193D01*
X39500000Y-19621642D01*
X39490207Y-19623193D01*
X39392872Y-19638609D01*
X39392870Y-19638610D01*
X39383081Y-19640160D01*
X39277607Y-19693902D01*
X39193902Y-19777607D01*
X39140160Y-19883081D01*
X39138610Y-19892870D01*
X39138609Y-19892872D01*
X39128880Y-19954298D01*
X39121642Y-20000000D01*
X16229281Y-20000000D01*
X16243049Y-19962430D01*
X16246355Y-19954298D01*
X16446259Y-19507800D01*
X16450123Y-19499917D01*
X16574504Y-19267085D01*
X16680649Y-19068390D01*
X16685028Y-19060838D01*
X16723198Y-19000000D01*
X18371642Y-19000000D01*
X18373193Y-19009793D01*
X18383986Y-19077935D01*
X18390160Y-19116919D01*
X18443902Y-19222393D01*
X18527607Y-19306098D01*
X18633081Y-19359840D01*
X18642870Y-19361390D01*
X18642872Y-19361391D01*
X18740207Y-19376807D01*
X18750000Y-19378358D01*
X18759793Y-19376807D01*
X18857128Y-19361391D01*
X18857130Y-19361390D01*
X18866919Y-19359840D01*
X18972393Y-19306098D01*
X19056098Y-19222393D01*
X19109840Y-19116919D01*
X19116015Y-19077935D01*
X19122800Y-19035094D01*
X45442197Y-19035094D01*
X45472182Y-19183806D01*
X45476081Y-19191458D01*
X45537156Y-19311324D01*
X45537158Y-19311327D01*
X45541055Y-19318975D01*
X45546868Y-19325297D01*
X45546869Y-19325298D01*
X45599558Y-19382597D01*
X45643740Y-19430644D01*
X45651043Y-19435172D01*
X45651044Y-19435173D01*
X45765372Y-19506060D01*
X45772672Y-19510586D01*
X45780919Y-19512982D01*
X45912015Y-19551069D01*
X45912018Y-19551070D01*
X45918353Y-19552910D01*
X45925794Y-19553456D01*
X45926805Y-19553531D01*
X45926813Y-19553531D01*
X45929110Y-19553700D01*
X46038004Y-19553700D01*
X46042249Y-19553118D01*
X46042256Y-19553118D01*
X46103309Y-19544754D01*
X46150301Y-19538317D01*
X46208847Y-19512982D01*
X46281644Y-19481480D01*
X46281646Y-19481479D01*
X46289528Y-19478068D01*
X46407425Y-19382597D01*
X46412401Y-19375595D01*
X46412403Y-19375593D01*
X46482203Y-19277374D01*
X49143561Y-19277374D01*
X49155820Y-19489988D01*
X49157256Y-19500208D01*
X49204076Y-19707957D01*
X49207156Y-19717786D01*
X49287281Y-19915114D01*
X49291924Y-19924305D01*
X49371971Y-20054931D01*
X49382427Y-20064391D01*
X49391205Y-20060607D01*
X50133489Y-19318323D01*
X50141103Y-19304379D01*
X50140972Y-19302546D01*
X50136721Y-19295931D01*
X49395360Y-18554570D01*
X49383824Y-18548270D01*
X49371542Y-18557893D01*
X49323600Y-18628173D01*
X49318515Y-18637124D01*
X49228849Y-18830294D01*
X49225286Y-18839981D01*
X49168375Y-19045192D01*
X49166444Y-19055311D01*
X49143813Y-19267085D01*
X49143561Y-19277374D01*
X46482203Y-19277374D01*
X46490329Y-19265940D01*
X46490330Y-19265938D01*
X46495304Y-19258939D01*
X46505938Y-19229404D01*
X46543785Y-19124279D01*
X46546693Y-19116203D01*
X46547360Y-19107128D01*
X46557174Y-18973470D01*
X46557803Y-18964906D01*
X46527818Y-18816194D01*
X46512228Y-18785598D01*
X46462844Y-18688676D01*
X46462842Y-18688673D01*
X46458945Y-18681025D01*
X46427120Y-18646415D01*
X46362078Y-18575683D01*
X46356260Y-18569356D01*
X46340492Y-18559579D01*
X46234628Y-18493940D01*
X46234627Y-18493939D01*
X46227328Y-18489414D01*
X46219081Y-18487018D01*
X46087985Y-18448931D01*
X46087982Y-18448930D01*
X46081647Y-18447090D01*
X46074206Y-18446544D01*
X46073195Y-18446469D01*
X46073187Y-18446469D01*
X46070890Y-18446300D01*
X45961996Y-18446300D01*
X45957751Y-18446882D01*
X45957744Y-18446882D01*
X45896691Y-18455246D01*
X45849699Y-18461683D01*
X45841815Y-18465095D01*
X45841814Y-18465095D01*
X45718356Y-18518520D01*
X45718354Y-18518521D01*
X45710472Y-18521932D01*
X45670167Y-18554570D01*
X45638016Y-18580606D01*
X45592575Y-18617403D01*
X45587599Y-18624405D01*
X45587597Y-18624407D01*
X45509671Y-18734060D01*
X45504696Y-18741061D01*
X45501788Y-18749138D01*
X45501787Y-18749140D01*
X45488661Y-18785598D01*
X45453307Y-18883797D01*
X45452679Y-18892354D01*
X45452678Y-18892357D01*
X45449099Y-18941103D01*
X45442197Y-19035094D01*
X19122800Y-19035094D01*
X19126807Y-19009793D01*
X19128358Y-19000000D01*
X19117824Y-18933489D01*
X19111391Y-18892872D01*
X19111390Y-18892870D01*
X19109840Y-18883081D01*
X19056098Y-18777607D01*
X18972393Y-18693902D01*
X18866919Y-18640160D01*
X18857130Y-18638610D01*
X18857128Y-18638609D01*
X18759793Y-18623193D01*
X18750000Y-18621642D01*
X18740207Y-18623193D01*
X18642872Y-18638609D01*
X18642870Y-18638610D01*
X18633081Y-18640160D01*
X18527607Y-18693902D01*
X18443902Y-18777607D01*
X18390160Y-18883081D01*
X18388610Y-18892870D01*
X18388609Y-18892872D01*
X18382176Y-18933489D01*
X18371642Y-19000000D01*
X16723198Y-19000000D01*
X16945041Y-18646412D01*
X16949961Y-18639146D01*
X17238186Y-18243851D01*
X17243602Y-18236942D01*
X17558651Y-17862676D01*
X17564535Y-17856161D01*
X17786998Y-17626459D01*
X17892072Y-17517966D01*
X18598257Y-17517966D01*
X18628565Y-17652446D01*
X18631645Y-17662275D01*
X18711770Y-17859603D01*
X18716413Y-17868794D01*
X18827694Y-18050388D01*
X18833777Y-18058699D01*
X18973213Y-18219667D01*
X18980580Y-18226883D01*
X19144434Y-18362916D01*
X19152881Y-18368831D01*
X19336756Y-18476279D01*
X19346042Y-18480729D01*
X19545001Y-18556703D01*
X19554899Y-18559579D01*
X19658250Y-18580606D01*
X19672299Y-18579410D01*
X19676000Y-18569065D01*
X19676000Y-17522115D01*
X19671525Y-17506876D01*
X19670135Y-17505671D01*
X19662452Y-17504000D01*
X18613225Y-17504000D01*
X18599694Y-17507973D01*
X18598257Y-17517966D01*
X17892072Y-17517966D01*
X17904886Y-17504735D01*
X17911204Y-17498651D01*
X17912374Y-17497601D01*
X18275189Y-17171786D01*
X18281918Y-17166154D01*
X18478525Y-17012926D01*
X18544550Y-16986827D01*
X18589286Y-16990790D01*
X18608294Y-16996000D01*
X20058000Y-16996000D01*
X20126121Y-17016002D01*
X20172614Y-17069658D01*
X20184000Y-17122000D01*
X20184000Y-18568517D01*
X20188064Y-18582359D01*
X20201478Y-18584393D01*
X20208184Y-18583534D01*
X20218262Y-18581392D01*
X20422255Y-18520191D01*
X20431842Y-18516433D01*
X20623095Y-18422739D01*
X20631945Y-18417464D01*
X20805328Y-18293792D01*
X20813200Y-18287139D01*
X20964052Y-18136812D01*
X20970730Y-18128965D01*
X21095003Y-17956020D01*
X21100313Y-17947183D01*
X21194670Y-17756267D01*
X21198469Y-17746672D01*
X21260377Y-17542911D01*
X21261950Y-17535636D01*
X21295899Y-17473282D01*
X21358170Y-17439181D01*
X21428992Y-17444160D01*
X21485879Y-17486637D01*
X21506221Y-17527537D01*
X21520001Y-17575593D01*
X21530828Y-17613351D01*
X21533015Y-17620979D01*
X21535830Y-17626456D01*
X21535831Y-17626459D01*
X21612551Y-17775740D01*
X21622916Y-17795908D01*
X21626739Y-17800732D01*
X21626742Y-17800736D01*
X21680685Y-17868794D01*
X21745083Y-17950044D01*
X21749777Y-17954038D01*
X21749777Y-17954039D01*
X21791786Y-17989791D01*
X21894862Y-18077516D01*
X22066547Y-18173467D01*
X22253600Y-18234244D01*
X22448895Y-18257532D01*
X22455030Y-18257060D01*
X22455032Y-18257060D01*
X22638852Y-18242916D01*
X22638856Y-18242915D01*
X22644994Y-18242443D01*
X22834428Y-18189552D01*
X22839932Y-18186772D01*
X22839934Y-18186771D01*
X23004480Y-18103653D01*
X23004482Y-18103652D01*
X23009981Y-18100874D01*
X23164966Y-17979786D01*
X23168992Y-17975122D01*
X23168995Y-17975119D01*
X23289451Y-17835569D01*
X23289452Y-17835567D01*
X23293480Y-17830901D01*
X23390628Y-17659890D01*
X23452710Y-17473266D01*
X23477360Y-17278138D01*
X23477753Y-17250000D01*
X23476373Y-17235930D01*
X24002345Y-17235930D01*
X24005889Y-17278138D01*
X24014056Y-17375385D01*
X24018803Y-17431919D01*
X24020502Y-17437844D01*
X24070828Y-17613351D01*
X24073015Y-17620979D01*
X24075830Y-17626456D01*
X24075831Y-17626459D01*
X24152551Y-17775740D01*
X24162916Y-17795908D01*
X24166739Y-17800732D01*
X24166742Y-17800736D01*
X24220685Y-17868794D01*
X24285083Y-17950044D01*
X24289777Y-17954038D01*
X24289777Y-17954039D01*
X24331786Y-17989791D01*
X24434862Y-18077516D01*
X24606547Y-18173467D01*
X24793600Y-18234244D01*
X24988895Y-18257532D01*
X24995030Y-18257060D01*
X24995032Y-18257060D01*
X25178852Y-18242916D01*
X25178856Y-18242915D01*
X25184994Y-18242443D01*
X25374428Y-18189552D01*
X25379932Y-18186772D01*
X25379934Y-18186771D01*
X25544480Y-18103653D01*
X25544482Y-18103652D01*
X25549981Y-18100874D01*
X25704966Y-17979786D01*
X25708992Y-17975122D01*
X25708995Y-17975119D01*
X25829451Y-17835569D01*
X25829452Y-17835567D01*
X25833480Y-17830901D01*
X25930628Y-17659890D01*
X25992710Y-17473266D01*
X26017360Y-17278138D01*
X26017753Y-17250000D01*
X25998561Y-17054260D01*
X25941714Y-16865975D01*
X25849379Y-16692318D01*
X25845489Y-16687548D01*
X25845486Y-16687544D01*
X25728967Y-16544678D01*
X25728964Y-16544675D01*
X25725072Y-16539903D01*
X25701403Y-16520322D01*
X25578278Y-16418464D01*
X25578274Y-16418462D01*
X25573528Y-16414535D01*
X25518799Y-16384943D01*
X26547100Y-16384943D01*
X26547101Y-18115056D01*
X26555972Y-18159658D01*
X26562867Y-18169978D01*
X26562868Y-18169979D01*
X26563290Y-18170610D01*
X26589766Y-18210234D01*
X26600082Y-18217127D01*
X26630025Y-18237135D01*
X26630028Y-18237136D01*
X26640342Y-18244028D01*
X26652509Y-18246448D01*
X26652511Y-18246449D01*
X26670743Y-18250075D01*
X26684943Y-18252900D01*
X26763104Y-18252900D01*
X28284292Y-18252899D01*
X28352413Y-18272901D01*
X28398906Y-18326557D01*
X28408741Y-18398610D01*
X28396642Y-18475000D01*
X28398193Y-18484793D01*
X28413493Y-18581392D01*
X28415160Y-18591919D01*
X28468902Y-18697393D01*
X28552607Y-18781098D01*
X28658081Y-18834840D01*
X28667870Y-18836390D01*
X28667872Y-18836391D01*
X28765207Y-18851807D01*
X28775000Y-18853358D01*
X28784793Y-18851807D01*
X28882128Y-18836391D01*
X28882130Y-18836390D01*
X28891919Y-18834840D01*
X28997393Y-18781098D01*
X29081098Y-18697393D01*
X29134840Y-18591919D01*
X29136508Y-18581392D01*
X29151807Y-18484793D01*
X29153358Y-18475000D01*
X29134840Y-18358081D01*
X29081098Y-18252607D01*
X29010429Y-18181938D01*
X49746734Y-18181938D01*
X49753479Y-18194269D01*
X50492699Y-18933489D01*
X50506643Y-18941103D01*
X50508476Y-18940972D01*
X50515091Y-18936721D01*
X51258900Y-18192912D01*
X51265921Y-18180055D01*
X51259122Y-18170724D01*
X51255065Y-18168029D01*
X51068628Y-18065110D01*
X51059216Y-18060880D01*
X50858470Y-17989791D01*
X50848500Y-17987157D01*
X50638838Y-17949812D01*
X50628584Y-17948842D01*
X50415627Y-17946239D01*
X50405343Y-17946959D01*
X50194832Y-17979172D01*
X50184804Y-17981561D01*
X49982379Y-18047723D01*
X49972870Y-18051720D01*
X49783977Y-18150051D01*
X49775245Y-18155550D01*
X49755188Y-18170610D01*
X49746734Y-18181938D01*
X29010429Y-18181938D01*
X28997393Y-18168902D01*
X28891919Y-18115160D01*
X28882130Y-18113610D01*
X28882128Y-18113609D01*
X28784793Y-18098193D01*
X28775000Y-18096642D01*
X28698610Y-18108741D01*
X28628200Y-18099641D01*
X28573886Y-18053920D01*
X28552900Y-17984292D01*
X28552899Y-16391133D01*
X28552899Y-16384944D01*
X28544028Y-16340342D01*
X28533055Y-16323919D01*
X28517127Y-16300082D01*
X28510234Y-16289766D01*
X28499918Y-16282873D01*
X28469975Y-16262865D01*
X28469972Y-16262864D01*
X28459658Y-16255972D01*
X28447491Y-16253552D01*
X28447489Y-16253551D01*
X28429257Y-16249925D01*
X28415057Y-16247100D01*
X27550140Y-16247100D01*
X26684944Y-16247101D01*
X26669287Y-16250215D01*
X26652517Y-16253550D01*
X26652515Y-16253551D01*
X26640342Y-16255972D01*
X26589766Y-16289766D01*
X26582873Y-16300082D01*
X26562865Y-16330025D01*
X26562864Y-16330028D01*
X26555972Y-16340342D01*
X26547100Y-16384943D01*
X25518799Y-16384943D01*
X25400520Y-16320990D01*
X25212637Y-16262830D01*
X25206519Y-16262187D01*
X25206514Y-16262186D01*
X25023164Y-16242916D01*
X25023162Y-16242916D01*
X25017035Y-16242272D01*
X24950720Y-16248307D01*
X24827305Y-16259538D01*
X24827302Y-16259539D01*
X24821166Y-16260097D01*
X24632489Y-16315628D01*
X24458192Y-16406748D01*
X24304912Y-16529988D01*
X24300954Y-16534705D01*
X24300952Y-16534707D01*
X24270404Y-16571113D01*
X24178489Y-16680653D01*
X24083739Y-16853004D01*
X24081878Y-16858871D01*
X24081877Y-16858873D01*
X24058797Y-16931630D01*
X24024269Y-17040476D01*
X24002345Y-17235930D01*
X23476373Y-17235930D01*
X23458561Y-17054260D01*
X23401714Y-16865975D01*
X23309379Y-16692318D01*
X23305489Y-16687548D01*
X23305486Y-16687544D01*
X23188967Y-16544678D01*
X23188964Y-16544675D01*
X23185072Y-16539903D01*
X23161403Y-16520322D01*
X23038278Y-16418464D01*
X23038274Y-16418462D01*
X23033528Y-16414535D01*
X22860520Y-16320990D01*
X22672637Y-16262830D01*
X22666519Y-16262187D01*
X22666514Y-16262186D01*
X22483164Y-16242916D01*
X22483162Y-16242916D01*
X22477035Y-16242272D01*
X22410720Y-16248307D01*
X22287305Y-16259538D01*
X22287302Y-16259539D01*
X22281166Y-16260097D01*
X22092489Y-16315628D01*
X21918192Y-16406748D01*
X21764912Y-16529988D01*
X21760954Y-16534705D01*
X21760952Y-16534707D01*
X21730404Y-16571113D01*
X21638489Y-16680653D01*
X21543739Y-16853004D01*
X21541878Y-16858871D01*
X21541877Y-16858873D01*
X21503137Y-16980997D01*
X21463473Y-17039881D01*
X21398271Y-17067973D01*
X21328232Y-17056355D01*
X21275592Y-17008716D01*
X21260831Y-16973594D01*
X21221214Y-16815875D01*
X21217894Y-16806124D01*
X21132972Y-16610814D01*
X21128105Y-16601739D01*
X21012426Y-16422926D01*
X21006136Y-16414757D01*
X20862806Y-16257240D01*
X20855273Y-16250215D01*
X20688139Y-16118222D01*
X20679552Y-16112517D01*
X20633968Y-16087353D01*
X20583998Y-16036921D01*
X20569226Y-15967478D01*
X20594342Y-15901072D01*
X20655993Y-15857190D01*
X20723006Y-15835458D01*
X20895091Y-15779652D01*
X20903527Y-15777237D01*
X21148241Y-15716337D01*
X21378269Y-15659092D01*
X21386848Y-15657272D01*
X21587905Y-15621885D01*
X21868671Y-15572470D01*
X21877365Y-15571251D01*
X22072061Y-15550824D01*
X22363899Y-15520206D01*
X22372639Y-15519596D01*
X22747460Y-15506531D01*
X22832719Y-15503559D01*
X22837106Y-15503483D01*
X22849940Y-15503483D01*
X22865963Y-15507776D01*
X22881987Y-15503482D01*
X22894395Y-15503482D01*
X22902613Y-15502400D01*
X28721600Y-15502400D01*
X28789721Y-15522402D01*
G37*
G04 #@! TD.AperFunction*
M02*
